<svg width="65" height="80" viewBox="0 0 65 80" fill="none" xmlns="http://www.w3.org/2000/svg">
<path d="M63.5 79V80H64.5V79H63.5ZM2.8 79L2.08002 78.306L0.447149 80H2.8V79ZM21.5 59.6L22.22 60.294L22.221 60.2929L21.5 59.6ZM33.1 46.6L33.8838 47.2211L33.8894 47.2139L33.1 46.6ZM39.3 37.5L38.4303 37.0064L38.4252 37.0154L38.4203 37.0245L39.3 37.5ZM41.8 24.3L40.8455 24.5983L40.8539 24.6249L40.8637 24.6511L41.8 24.3ZM40.2 21.5L39.4366 22.1459L39.4494 22.1611L39.4628 22.1757L40.2 21.5ZM37.5 19.5L37.0294 20.3824L37.0636 20.4006L37.0992 20.4162L37.5 19.5ZM27.6 21.3L26.851 20.6374L26.8437 20.6457L26.8366 20.6541L27.6 21.3ZM25.7 31V32H26.853L26.6899 30.8586L25.7 31ZM4.3 31H3.3V32H4.3V31ZM6.4 19L5.47391 18.6227L5.47089 18.6301L5.468 18.6376L6.4 19ZM12.5 9.7L13.2071 10.4071L12.5 9.7ZM21.7 3.7L21.3375 2.76797L21.3316 2.77032L21.7 3.7ZM45.1 3.6L44.7469 4.53562L44.7527 4.53775L45.1 3.6ZM54.4 9.2L53.7217 9.9348L54.4 9.2ZM60.5 17.8L59.5847 18.2027L59.5877 18.2096L60.5 17.8ZM60 40L59.1089 39.5461L59.1056 39.5528L60 40ZM51.6 50.7L52.2834 51.4301L52.2881 51.4256L51.6 50.7ZM39.1 62.4L38.4166 61.6699L36.5683 63.4H39.1V62.4ZM63.5 62.4H64.5V61.4H63.5V62.4ZM63.5 78H2.8V80H63.5V78ZM3.51998 79.694L22.22 60.294L20.78 58.906L2.08002 78.306L3.51998 79.694ZM22.221 60.2929C27.1654 55.1481 31.0561 50.7893 33.8837 47.2211L32.3163 45.9789C29.5439 49.4774 25.7013 53.7852 20.779 58.9071L22.221 60.2929ZM33.8894 47.2139C36.7051 43.5938 38.809 40.5112 40.1797 37.9755L38.4203 37.0245C37.1243 39.4221 35.0949 42.4062 32.3106 45.9861L33.8894 47.2139ZM40.1697 37.9936C41.5862 35.4979 42.5117 33.3937 42.8772 31.7124L40.9228 31.2876C40.6217 32.6729 39.8138 34.5688 38.4303 37.0064L40.1697 37.9936ZM42.8772 31.7124C43.2193 30.1387 43.4 28.7629 43.4 27.6H41.4C41.4 28.5704 41.2474 29.7946 40.9228 31.2876L42.8772 31.7124ZM43.4 27.6C43.4 26.3461 43.1782 25.1272 42.7363 23.9489L40.8637 24.6511C41.2218 25.6061 41.4 26.5872 41.4 27.6H43.4ZM42.7545 24.0017C42.3787 22.7991 41.7728 21.7359 40.9372 20.8243L39.4628 22.1757C40.0939 22.8641 40.5547 23.6676 40.8455 24.5983L42.7545 24.0017ZM40.9634 20.8541C40.1288 19.8678 39.1037 19.1101 37.9008 18.5838L37.0992 20.4162C38.0296 20.8232 38.8045 21.3989 39.4366 22.1459L40.9634 20.8541ZM37.9706 18.6176C36.7955 17.9909 35.4261 17.7 33.9 17.7V19.7C35.1739 19.7 36.2045 19.9424 37.0294 20.3824L37.9706 18.6176ZM33.9 17.7C30.9951 17.7 28.6039 18.6559 26.851 20.6374L28.349 21.9626C29.6627 20.4775 31.4716 19.7 33.9 19.7V17.7ZM26.8366 20.6541C25.1952 22.5939 24.4 24.9998 24.4 27.8H26.4C26.4 25.4002 27.0714 23.4728 28.3634 21.9459L26.8366 20.6541ZM24.4 27.8C24.4 28.606 24.5083 29.7291 24.7101 31.1414L26.6899 30.8586C26.4917 29.4709 26.4 28.4607 26.4 27.8H24.4ZM25.7 30H4.3V32H25.7V30ZM5.3 31C5.3 26.7069 5.98275 22.832 7.33201 19.3624L5.468 18.6376C4.01725 22.368 3.3 26.4931 3.3 31H5.3ZM7.32609 19.3773C8.74539 15.8936 10.7067 12.9075 13.2071 10.4071L11.7929 8.99289C9.09332 11.6925 6.98794 14.9064 5.47391 18.6227L7.32609 19.3773ZM13.2071 10.4071C15.7073 7.90691 18.6576 5.98112 22.0684 4.62968L21.3316 2.77032C17.6757 4.21887 14.4927 6.29308 11.7929 8.99289L13.2071 10.4071ZM22.0624 4.632C25.5354 3.28141 29.3444 2.59999 33.5 2.59999V0.599995C29.1223 0.599995 25.0646 1.31858 21.3376 2.76799L22.0624 4.632ZM33.5 2.59999C37.5929 2.59999 41.3384 3.24936 44.7469 4.5356L45.4531 2.6644C41.7949 1.28397 37.8071 0.599995 33.5 0.599995V2.59999ZM44.7527 4.53775C48.2407 5.82959 51.2256 7.6307 53.7217 9.9348L55.0783 8.46519C52.3744 5.96929 49.1593 4.03708 45.4473 2.66225L44.7527 4.53775ZM53.7217 9.9348C56.2178 12.2388 58.1717 14.9914 59.5847 18.2027L61.4153 17.3973C59.895 13.9419 57.7823 10.9612 55.0783 8.46519L53.7217 9.9348ZM59.5877 18.2096C60.9921 21.3374 61.7 24.7631 61.7 28.5H63.7C63.7 24.5036 62.9413 20.7959 61.4123 17.3904L59.5877 18.2096ZM61.7 28.5C61.7 32.4824 60.8343 36.1594 59.109 39.5461L60.891 40.4539C62.7657 36.774 63.7 32.7842 63.7 28.5H61.7ZM59.1056 39.5528C57.4398 42.8844 54.7235 46.3599 50.9119 49.9744L52.2881 51.4256C56.2098 47.7068 59.0936 44.0489 60.8944 40.4472L59.1056 39.5528ZM50.9166 49.9699L38.4166 61.6699L39.7834 63.1301L52.2834 51.4301L50.9166 49.9699ZM39.1 63.4H63.5V61.4H39.1V63.4ZM62.5 62.4V79H64.5V62.4H62.5Z" fill="#D9B465" fill-opacity="0.5"/>
</svg>
