<svg width="63" height="83" viewBox="0 0 63 83" fill="none" xmlns="http://www.w3.org/2000/svg">
<path d="M27.9 33L28.024 32.0077L26.9 31.8672V33H27.9ZM36.2 30.9L35.5088 30.1774L36.2 30.9ZM36.3 19.7L35.5929 20.4071L35.6011 20.4153L35.6095 20.4234L36.3 19.7ZM25 20L24.2628 19.3243L25 20ZM22.8 26.2V27.2H23.8V26.2H22.8ZM4.7 26.2L3.70696 26.0822L3.57434 27.2H4.7V26.2ZM7.6 15.7L6.70557 15.2528L6.70165 15.2606L6.69787 15.2685L7.6 15.7ZM13.4 8L14.063 8.74858L14.0689 8.74335L14.0748 8.73803L13.4 8ZM21.6 3.2L21.9223 4.14665L21.9312 4.1436L21.9401 4.14038L21.6 3.2ZM42.1 3.09999L41.765 4.04221L41.7774 4.04663L41.79 4.05072L42.1 3.09999ZM49.9 7.5L49.2285 8.24099L49.2406 8.25195L49.253 8.2625L49.9 7.5ZM54.9 14.4L53.9763 14.783L53.982 14.7968L53.9881 14.8104L54.9 14.4ZM54.6 32.3L53.7425 31.7855L53.7381 31.793L54.6 32.3ZM48.8 38.2L48.2504 37.3646L46.4823 38.5278L48.5036 39.1551L48.8 38.2ZM57.8 44.7L56.9734 45.2628L56.9803 45.2729L56.9875 45.2829L57.8 44.7ZM52.7 74.2L52.0636 73.4286L52.0541 73.4366L52.7 74.2ZM43.3 79.3L42.989 78.3496L42.9838 78.3513L43.3 79.3ZM15.7 77.7L15.2631 78.5995L15.7 77.7ZM4.5 66.9L5.3697 66.4064L5.36662 66.401L4.5 66.9ZM1.9 60.3L0.91613 60.4789L0.918739 60.4932L0.921766 60.5075L1.9 60.3ZM1.3 53.6V52.6H0.3V53.6H1.3ZM20.7 53.6L21.6993 53.5623L21.663 52.6H20.7V53.6ZM23.8 61.7L23.1054 62.4194L23.1119 62.4257L23.1186 62.4319L23.8 61.7ZM39.2 61.6L39.9593 62.2508L39.2 61.6ZM38.7 47.3L38.0471 48.0574L38.7 47.3ZM29.9 45L30.0104 45.9939L30.0642 45.9879L30.1169 45.9762L29.9 45ZM27.9 45.3H26.9V46.4982L28.0789 46.2839L27.9 45.3ZM27.776 33.9923C28.3288 34.0614 28.808 34.1 29.2 34.1V32.1C28.9253 32.1 28.5378 32.0719 28.024 32.0077L27.776 33.9923ZM29.2 34.1C29.2008 34.1 29.2016 34.1 29.2023 34.1C29.2031 34.1 29.2039 34.1 29.2047 34.1C29.2055 34.1 29.2062 34.1 29.207 34.1C29.2078 34.1 29.2086 34.1 29.2094 34.1C29.2101 34.1 29.2109 34.1 29.2117 34.1C29.2125 34.1 29.2133 34.1 29.214 34.1C29.2148 34.1 29.2156 34.1 29.2164 34.1C29.2171 34.1 29.2179 34.1 29.2187 34.1C29.2195 34.1 29.2203 34.1 29.221 34.1C29.2218 34.1 29.2226 34.1 29.2234 34.1C29.2241 34.1 29.2249 34.1 29.2257 34.1C29.2265 34.1 29.2272 34.1 29.228 34.1C29.2288 34.1 29.2296 34.1 29.2303 34.1C29.2311 34.1 29.2319 34.1 29.2327 34.1C29.2334 34.1 29.2342 34.1 29.235 34.1C29.2358 34.1 29.2365 34.1 29.2373 34.1C29.2381 34.1 29.2389 34.1 29.2396 34.1C29.2404 34.1 29.2412 34.1 29.2419 34.1C29.2427 34.1 29.2435 34.1 29.2443 34.1C29.245 34.1 29.2458 34.1 29.2466 34.1C29.2473 34.1 29.2481 34.1 29.2489 34.1C29.2497 34.1 29.2504 34.1 29.2512 34.1C29.252 34.1 29.2527 34.1 29.2535 34.1C29.2543 34.1 29.255 34.1 29.2558 34.1C29.2566 34.1 29.2573 34.1 29.2581 34.1C29.2589 34.1 29.2597 34.1 29.2604 34.1C29.2612 34.1 29.262 34.1 29.2627 34.1C29.2635 34.1 29.2643 34.1 29.265 34.1C29.2658 34.1 29.2666 34.1 29.2673 34.1C29.2681 34.1 29.2689 34.1 29.2696 34.1C29.2704 34.1 29.2712 34.1 29.2719 34.1C29.2727 34.1 29.2735 34.1 29.2742 34.1C29.275 34.1 29.2757 34.1 29.2765 34.1C29.2773 34.1 29.278 34.1 29.2788 34.1C29.2796 34.1 29.2803 34.1 29.2811 34.1C29.2819 34.1 29.2826 34.1 29.2834 34.1C29.2841 34.1 29.2849 34.1 29.2857 34.1C29.2864 34.1 29.2872 34.1 29.288 34.1C29.2887 34.1 29.2895 34.1 29.2902 34.1C29.291 34.1 29.2918 34.1 29.2925 34.1C29.2933 34.1 29.2941 34.1 29.2948 34.1C29.2956 34.1 29.2963 34.1 29.2971 34.1C29.2979 34.1 29.2986 34.1 29.2994 34.1C29.3001 34.1 29.3009 34.1 29.3016 34.1C29.3024 34.1 29.3032 34.1 29.3039 34.1C29.3047 34.1 29.3054 34.1 29.3062 34.1C29.307 34.1 29.3077 34.1 29.3085 34.1C29.3092 34.1 29.31 34.1 29.3107 34.1C29.3115 34.1 29.3123 34.1 29.313 34.1C29.3138 34.1 29.3145 34.1 29.3153 34.1C29.316 34.1 29.3168 34.1 29.3175 34.1C29.3183 34.1 29.3191 34.1 29.3198 34.1C29.3206 34.1 29.3213 34.1 29.3221 34.1C29.3228 34.1 29.3236 34.1 29.3243 34.1C29.3251 34.1 29.3258 34.1 29.3266 34.1C29.3274 34.1 29.3281 34.1 29.3289 34.1C29.3296 34.1 29.3304 34.1 29.3311 34.1C29.3319 34.1 29.3326 34.1 29.3334 34.1C29.3341 34.1 29.3349 34.1 29.3356 34.1C29.3364 34.1 29.3371 34.1 29.3379 34.1C29.3386 34.1 29.3394 34.1 29.3401 34.1C29.3409 34.1 29.3416 34.1 29.3424 34.1C29.3431 34.1 29.3439 34.1 29.3446 34.1C29.3454 34.1 29.3461 34.1 29.3469 34.1C29.3476 34.1 29.3484 34.1 29.3491 34.1C29.3499 34.1 29.3506 34.1 29.3514 34.1C29.3521 34.1 29.3529 34.1 29.3536 34.1C29.3544 34.1 29.3551 34.1 29.3558 34.1C29.3566 34.1 29.3573 34.1 29.3581 34.1C29.3588 34.1 29.3596 34.1 29.3603 34.1C29.3611 34.1 29.3618 34.1 29.3626 34.1C29.3633 34.1 29.3641 34.1 29.3648 34.1C29.3655 34.1 29.3663 34.1 29.367 34.1C29.3678 34.1 29.3685 34.1 29.3693 34.1C29.37 34.1 29.3707 34.1 29.3715 34.1C29.3722 34.1 29.373 34.1 29.3737 34.1C29.3745 34.1 29.3752 34.1 29.3759 34.1C29.3767 34.1 29.3774 34.1 29.3782 34.1C29.3789 34.1 29.3797 34.1 29.3804 34.1C29.3811 34.1 29.3819 34.1 29.3826 34.1C29.3834 34.1 29.3841 34.1 29.3848 34.1C29.3856 34.1 29.3863 34.1 29.3871 34.1C29.3878 34.1 29.3885 34.1 29.3893 34.1C29.39 34.1 29.3908 34.1 29.3915 34.1C29.3922 34.1 29.393 34.1 29.3937 34.1C29.3944 34.1 29.3952 34.1 29.3959 34.1C29.3967 34.1 29.3974 34.1 29.3981 34.1C29.3989 34.1 29.3996 34.1 29.4003 34.1C29.4011 34.1 29.4018 34.1 29.4026 34.1C29.4033 34.1 29.404 34.1 29.4048 34.1C29.4055 34.1 29.4062 34.1 29.407 34.1C29.4077 34.1 29.4084 34.1 29.4092 34.1C29.4099 34.1 29.4106 34.1 29.4114 34.1C29.4121 34.1 29.4128 34.1 29.4136 34.1C29.4143 34.1 29.415 34.1 29.4158 34.1C29.4165 34.1 29.4172 34.1 29.418 34.1C29.4187 34.1 29.4194 34.1 29.4202 34.1C29.4209 34.1 29.4216 34.1 29.4224 34.1C29.4231 34.1 29.4238 34.1 29.4246 34.1C29.4253 34.1 29.426 34.1 29.4267 34.1C29.4275 34.1 29.4282 34.1 29.4289 34.1C29.4297 34.1 29.4304 34.1 29.4311 34.1C29.4319 34.1 29.4326 34.1 29.4333 34.1C29.434 34.1 29.4348 34.1 29.4355 34.1C29.4362 34.1 29.437 34.1 29.4377 34.1C29.4384 34.1 29.4391 34.1 29.4399 34.1C29.4406 34.1 29.4413 34.1 29.442 34.1C29.4428 34.1 29.4435 34.1 29.4442 34.1C29.445 34.1 29.4457 34.1 29.4464 34.1C29.4471 34.1 29.4479 34.1 29.4486 34.1C29.4493 34.1 29.45 34.1 29.4508 34.1C29.4515 34.1 29.4522 34.1 29.4529 34.1C29.4537 34.1 29.4544 34.1 29.4551 34.1C29.4558 34.1 29.4566 34.1 29.4573 34.1C29.458 34.1 29.4587 34.1 29.4594 34.1C29.4602 34.1 29.4609 34.1 29.4616 34.1C29.4623 34.1 29.4631 34.1 29.4638 34.1C29.4645 34.1 29.4652 34.1 29.4659 34.1C29.4667 34.1 29.4674 34.1 29.4681 34.1C29.4688 34.1 29.4695 34.1 29.4703 34.1C29.471 34.1 29.4717 34.1 29.4724 34.1C29.4731 34.1 29.4739 34.1 29.4746 34.1C29.4753 34.1 29.476 34.1 29.4767 34.1C29.4775 34.1 29.4782 34.1 29.4789 34.1C29.4796 34.1 29.4803 34.1 29.481 34.1C29.4818 34.1 29.4825 34.1 29.4832 34.1C29.4839 34.1 29.4846 34.1 29.4854 34.1C29.4861 34.1 29.4868 34.1 29.4875 34.1C29.4882 34.1 29.4889 34.1 29.4896 34.1C29.4904 34.1 29.4911 34.1 29.4918 34.1C29.4925 34.1 29.4932 34.1 29.4939 34.1C29.4947 34.1 29.4954 34.1 29.4961 34.1C29.4968 34.1 29.4975 34.1 29.4982 34.1C29.4989 34.1 29.4997 34.1 29.5004 34.1C29.5011 34.1 29.5018 34.1 29.5025 34.1C29.5032 34.1 29.5039 34.1 29.5046 34.1C29.5054 34.1 29.5061 34.1 29.5068 34.1C29.5075 34.1 29.5082 34.1 29.5089 34.1C29.5096 34.1 29.5103 34.1 29.511 34.1C29.5118 34.1 29.5125 34.1 29.5132 34.1C29.5139 34.1 29.5146 34.1 29.5153 34.1C29.516 34.1 29.5167 34.1 29.5174 34.1C29.5181 34.1 29.5188 34.1 29.5196 34.1C29.5203 34.1 29.521 34.1 29.5217 34.1C29.5224 34.1 29.5231 34.1 29.5238 34.1C29.5245 34.1 29.5252 34.1 29.5259 34.1C29.5266 34.1 29.5273 34.1 29.528 34.1C29.5288 34.1 29.5295 34.1 29.5302 34.1C29.5309 34.1 29.5316 34.1 29.5323 34.1C29.533 34.1 29.5337 34.1 29.5344 34.1C29.5351 34.1 29.5358 34.1 29.5365 34.1C29.5372 34.1 29.5379 34.1 29.5386 34.1C29.5393 34.1 29.54 34.1 29.5407 34.1C29.5414 34.1 29.5421 34.1 29.5428 34.1C29.5435 34.1 29.5443 34.1 29.545 34.1C29.5457 34.1 29.5464 34.1 29.5471 34.1C29.5478 34.1 29.5485 34.1 29.5492 34.1C29.5499 34.1 29.5506 34.1 29.5513 34.1C29.552 34.1 29.5527 34.1 29.5534 34.1C29.5541 34.1 29.5548 34.1 29.5555 34.1C29.5562 34.1 29.5569 34.1 29.5576 34.1C29.5583 34.1 29.559 34.1 29.5597 34.1C29.5604 34.1 29.5611 34.1 29.5618 34.1C29.5625 34.1 29.5632 34.1 29.5639 34.1C29.5646 34.1 29.5653 34.1 29.5659 34.1C29.5666 34.1 29.5673 34.1 29.568 34.1C29.5687 34.1 29.5694 34.1 29.5701 34.1C29.5708 34.1 29.5715 34.1 29.5722 34.1C29.5729 34.1 29.5736 34.1 29.5743 34.1C29.575 34.1 29.5757 34.1 29.5764 34.1C29.5771 34.1 29.5778 34.1 29.5785 34.1C29.5792 34.1 29.5799 34.1 29.5806 34.1C29.5812 34.1 29.5819 34.1 29.5826 34.1C29.5833 34.1 29.584 34.1 29.5847 34.1C29.5854 34.1 29.5861 34.1 29.5868 34.1C29.5875 34.1 29.5882 34.1 29.5889 34.1C29.5896 34.1 29.5903 34.1 29.5909 34.1C29.5916 34.1 29.5923 34.1 29.593 34.1C29.5937 34.1 29.5944 34.1 29.5951 34.1C29.5958 34.1 29.5965 34.1 29.5972 34.1C29.5978 34.1 29.5985 34.1 29.5992 34.1C29.5999 34.1 29.6006 34.1 29.6013 34.1C29.602 34.1 29.6027 34.1 29.6034 34.1C29.604 34.1 29.6047 34.1 29.6054 34.1C29.6061 34.1 29.6068 34.1 29.6075 34.1C29.6082 34.1 29.6089 34.1 29.6095 34.1C29.6102 34.1 29.6109 34.1 29.6116 34.1C29.6123 34.1 29.613 34.1 29.6137 34.1C29.6143 34.1 29.615 34.1 29.6157 34.1C29.6164 34.1 29.6171 34.1 29.6178 34.1C29.6185 34.1 29.6191 34.1 29.6198 34.1C29.6205 34.1 29.6212 34.1 29.6219 34.1C29.6226 34.1 29.6232 34.1 29.6239 34.1C29.6246 34.1 29.6253 34.1 29.626 34.1C29.6267 34.1 29.6273 34.1 29.628 34.1C29.6287 34.1 29.6294 34.1 29.6301 34.1C29.6307 34.1 29.6314 34.1 29.6321 34.1C29.6328 34.1 29.6335 34.1 29.6342 34.1C29.6348 34.1 29.6355 34.1 29.6362 34.1C29.6369 34.1 29.6376 34.1 29.6382 34.1C29.6389 34.1 29.6396 34.1 29.6403 34.1C29.641 34.1 29.6416 34.1 29.6423 34.1C29.643 34.1 29.6437 34.1 29.6443 34.1C29.645 34.1 29.6457 34.1 29.6464 34.1C29.6471 34.1 29.6477 34.1 29.6484 34.1C29.6491 34.1 29.6498 34.1 29.6504 34.1C29.6511 34.1 29.6518 34.1 29.6525 34.1C29.6531 34.1 29.6538 34.1 29.6545 34.1C29.6552 34.1 29.6558 34.1 29.6565 34.1C29.6572 34.1 29.6579 34.1 29.6585 34.1C29.6592 34.1 29.6599 34.1 29.6606 34.1C29.6612 34.1 29.6619 34.1 29.6626 34.1C29.6633 34.1 29.6639 34.1 29.6646 34.1C29.6653 34.1 29.666 34.1 29.6666 34.1C29.6673 34.1 29.668 34.1 29.6686 34.1C29.6693 34.1 29.67 34.1 29.6707 34.1C29.6713 34.1 29.672 34.1 29.6727 34.1C29.6733 34.1 29.674 34.1 29.6747 34.1C29.6754 34.1 29.676 34.1 29.6767 34.1C29.6774 34.1 29.678 34.1 29.6787 34.1C29.6794 34.1 29.68 34.1 29.6807 34.1C29.6814 34.1 29.682 34.1 29.6827 34.1C29.6834 34.1 29.684 34.1 29.6847 34.1C29.6854 34.1 29.6861 34.1 29.6867 34.1C29.6874 34.1 29.6881 34.1 29.6887 34.1C29.6894 34.1 29.6901 34.1 29.6907 34.1C29.6914 34.1 29.6921 34.1 29.6927 34.1C29.6934 34.1 29.694 34.1 29.6947 34.1C29.6954 34.1 29.696 34.1 29.6967 34.1C29.6974 34.1 29.698 34.1 29.6987 34.1C29.6994 34.1 29.7 34.1 29.7007 34.1C29.7014 34.1 29.702 34.1 29.7027 34.1C29.7034 34.1 29.704 34.1 29.7047 34.1C29.7053 34.1 29.706 34.1 29.7067 34.1C29.7073 34.1 29.708 34.1 29.7086 34.1C29.7093 34.1 29.71 34.1 29.7106 34.1C29.7113 34.1 29.712 34.1 29.7126 34.1C29.7133 34.1 29.7139 34.1 29.7146 34.1C29.7153 34.1 29.7159 34.1 29.7166 34.1C29.7172 34.1 29.7179 34.1 29.7186 34.1C29.7192 34.1 29.7199 34.1 29.7205 34.1C29.7212 34.1 29.7218 34.1 29.7225 34.1C29.7232 34.1 29.7238 34.1 29.7245 34.1C29.7251 34.1 29.7258 34.1 29.7265 34.1C29.7271 34.1 29.7278 34.1 29.7284 34.1C29.7291 34.1 29.7297 34.1 29.7304 34.1C29.7311 34.1 29.7317 34.1 29.7324 34.1C29.733 34.1 29.7337 34.1 29.7343 34.1C29.735 34.1 29.7356 34.1 29.7363 34.1C29.7369 34.1 29.7376 34.1 29.7383 34.1C29.7389 34.1 29.7396 34.1 29.7402 34.1C29.7409 34.1 29.7415 34.1 29.7422 34.1C29.7428 34.1 29.7435 34.1 29.7441 34.1C29.7448 34.1 29.7454 34.1 29.7461 34.1C29.7467 34.1 29.7474 34.1 29.748 34.1C29.7487 34.1 29.7494 34.1 29.75 34.1C29.7507 34.1 29.7513 34.1 29.752 34.1C29.7526 34.1 29.7533 34.1 29.7539 34.1C29.7546 34.1 29.7552 34.1 29.7559 34.1C29.7565 34.1 29.7572 34.1 29.7578 34.1C29.7585 34.1 29.7591 34.1 29.7597 34.1C29.7604 34.1 29.761 34.1 29.7617 34.1C29.7623 34.1 29.763 34.1 29.7636 34.1C29.7643 34.1 29.7649 34.1 29.7656 34.1C29.7662 34.1 29.7669 34.1 29.7675 34.1C29.7682 34.1 29.7688 34.1 29.7695 34.1C29.7701 34.1 29.7707 34.1 29.7714 34.1C29.772 34.1 29.7727 34.1 29.7733 34.1C29.774 34.1 29.7746 34.1 29.7753 34.1C29.7759 34.1 29.7766 34.1 29.7772 34.1C29.7778 34.1 29.7785 34.1 29.7791 34.1C29.7798 34.1 29.7804 34.1 29.7811 34.1C29.7817 34.1 29.7823 34.1 29.783 34.1C29.7836 34.1 29.7843 34.1 29.7849 34.1C29.7856 34.1 29.7862 34.1 29.7868 34.1C29.7875 34.1 29.7881 34.1 29.7888 34.1C29.7894 34.1 29.79 34.1 29.7907 34.1C29.7913 34.1 29.792 34.1 29.7926 34.1C29.7932 34.1 29.7939 34.1 29.7945 34.1C29.7952 34.1 29.7958 34.1 29.7964 34.1C29.7971 34.1 29.7977 34.1 29.7984 34.1C29.799 34.1 29.7996 34.1 29.8003 34.1C29.8009 34.1 29.8015 34.1 29.8022 34.1C29.8028 34.1 29.8035 34.1 29.8041 34.1C29.8047 34.1 29.8054 34.1 29.806 34.1C29.8066 34.1 29.8073 34.1 29.8079 34.1C29.8085 34.1 29.8092 34.1 29.8098 34.1C29.8105 34.1 29.8111 34.1 29.8117 34.1C29.8124 34.1 29.813 34.1 29.8136 34.1C29.8143 34.1 29.8149 34.1 29.8155 34.1C29.8162 34.1 29.8168 34.1 29.8174 34.1C29.8181 34.1 29.8187 34.1 29.8193 34.1C29.82 34.1 29.8206 34.1 29.8212 34.1C29.8219 34.1 29.8225 34.1 29.8231 34.1C29.8238 34.1 29.8244 34.1 29.825 34.1C29.8256 34.1 29.8263 34.1 29.8269 34.1C29.8275 34.1 29.8282 34.1 29.8288 34.1C29.8294 34.1 29.8301 34.1 29.8307 34.1C29.8313 34.1 29.8319 34.1 29.8326 34.1C29.8332 34.1 29.8338 34.1 29.8345 34.1C29.8351 34.1 29.8357 34.1 29.8363 34.1C29.837 34.1 29.8376 34.1 29.8382 34.1C29.8389 34.1 29.8395 34.1 29.8401 34.1C29.8407 34.1 29.8414 34.1 29.842 34.1C29.8426 34.1 29.8432 34.1 29.8439 34.1C29.8445 34.1 29.8451 34.1 29.8458 34.1C29.8464 34.1 29.847 34.1 29.8476 34.1C29.8483 34.1 29.8489 34.1 29.8495 34.1C29.8501 34.1 29.8507 34.1 29.8514 34.1C29.852 34.1 29.8526 34.1 29.8532 34.1C29.8539 34.1 29.8545 34.1 29.8551 34.1C29.8557 34.1 29.8564 34.1 29.857 34.1C29.8576 34.1 29.8582 34.1 29.8589 34.1C29.8595 34.1 29.8601 34.1 29.8607 34.1C29.8613 34.1 29.862 34.1 29.8626 34.1C29.8632 34.1 29.8638 34.1 29.8644 34.1C29.8651 34.1 29.8657 34.1 29.8663 34.1C29.8669 34.1 29.8675 34.1 29.8682 34.1C29.8688 34.1 29.8694 34.1 29.87 34.1C29.8706 34.1 29.8713 34.1 29.8719 34.1C29.8725 34.1 29.8731 34.1 29.8737 34.1C29.8743 34.1 29.875 34.1 29.8756 34.1C29.8762 34.1 29.8768 34.1 29.8774 34.1C29.8781 34.1 29.8787 34.1 29.8793 34.1C29.8799 34.1 29.8805 34.1 29.8811 34.1C29.8818 34.1 29.8824 34.1 29.883 34.1C29.8836 34.1 29.8842 34.1 29.8848 34.1C29.8854 34.1 29.8861 34.1 29.8867 34.1C29.8873 34.1 29.8879 34.1 29.8885 34.1C29.8891 34.1 29.8897 34.1 29.8904 34.1C29.891 34.1 29.8916 34.1 29.8922 34.1C29.8928 34.1 29.8934 34.1 29.894 34.1C29.8946 34.1 29.8953 34.1 29.8959 34.1C29.8965 34.1 29.8971 34.1 29.8977 34.1C29.8983 34.1 29.8989 34.1 29.8995 34.1C29.9001 34.1 29.9008 34.1 29.9014 34.1C29.902 34.1 29.9026 34.1 29.9032 34.1C29.9038 34.1 29.9044 34.1 29.905 34.1C29.9056 34.1 29.9062 34.1 29.9069 34.1C29.9075 34.1 29.9081 34.1 29.9087 34.1C29.9093 34.1 29.9099 34.1 29.9105 34.1C29.9111 34.1 29.9117 34.1 29.9123 34.1C29.9129 34.1 29.9135 34.1 29.9141 34.1C29.9148 34.1 29.9154 34.1 29.916 34.1C29.9166 34.1 29.9172 34.1 29.9178 34.1C29.9184 34.1 29.919 34.1 29.9196 34.1C29.9202 34.1 29.9208 34.1 29.9214 34.1C29.922 34.1 29.9226 34.1 29.9232 34.1C29.9238 34.1 29.9244 34.1 29.925 34.1C29.9256 34.1 29.9263 34.1 29.9269 34.1C29.9275 34.1 29.9281 34.1 29.9287 34.1C29.9293 34.1 29.9299 34.1 29.9305 34.1C29.9311 34.1 29.9317 34.1 29.9323 34.1C29.9329 34.1 29.9335 34.1 29.9341 34.1C29.9347 34.1 29.9353 34.1 29.9359 34.1C29.9365 34.1 29.9371 34.1 29.9377 34.1C29.9383 34.1 29.9389 34.1 29.9395 34.1C29.9401 34.1 29.9407 34.1 29.9413 34.1C29.9419 34.1 29.9425 34.1 29.9431 34.1C29.9437 34.1 29.9443 34.1 29.9449 34.1C29.9455 34.1 29.9461 34.1 29.9467 34.1C29.9473 34.1 29.9479 34.1 29.9485 34.1C29.9491 34.1 29.9497 34.1 29.9503 34.1C29.9508 34.1 29.9514 34.1 29.952 34.1C29.9526 34.1 29.9532 34.1 29.9538 34.1C29.9544 34.1 29.955 34.1 29.9556 34.1C29.9562 34.1 29.9568 34.1 29.9574 34.1C29.958 34.1 29.9586 34.1 29.9592 34.1C29.9598 34.1 29.9604 34.1 29.961 34.1C29.9616 34.1 29.9622 34.1 29.9627 34.1C29.9633 34.1 29.9639 34.1 29.9645 34.1C29.9651 34.1 29.9657 34.1 29.9663 34.1C29.9669 34.1 29.9675 34.1 29.9681 34.1C29.9687 34.1 29.9693 34.1 29.9698 34.1C29.9704 34.1 29.971 34.1 29.9716 34.1C29.9722 34.1 29.9728 34.1 29.9734 34.1C29.974 34.1 29.9746 34.1 29.9752 34.1C29.9757 34.1 29.9763 34.1 29.9769 34.1C29.9775 34.1 29.9781 34.1 29.9787 34.1C29.9793 34.1 29.9799 34.1 29.9805 34.1C29.981 34.1 29.9816 34.1 29.9822 34.1C29.9828 34.1 29.9834 34.1 29.984 34.1C29.9846 34.1 29.9852 34.1 29.9857 34.1C29.9863 34.1 29.9869 34.1 29.9875 34.1C29.9881 34.1 29.9887 34.1 29.9893 34.1C29.9898 34.1 29.9904 34.1 29.991 34.1C29.9916 34.1 29.9922 34.1 29.9928 34.1C29.9934 34.1 29.9939 34.1 29.9945 34.1C29.9951 34.1 29.9957 34.1 29.9963 34.1C29.9969 34.1 29.9974 34.1 29.998 34.1C29.9986 34.1 29.9992 34.1 29.9998 34.1C30.0004 34.1 30.0009 34.1 30.0015 34.1C30.0021 34.1 30.0027 34.1 30.0033 34.1C30.0038 34.1 30.0044 34.1 30.005 34.1C30.0056 34.1 30.0062 34.1 30.0067 34.1C30.0073 34.1 30.0079 34.1 30.0085 34.1C30.0091 34.1 30.0096 34.1 30.0102 34.1C30.0108 34.1 30.0114 34.1 30.012 34.1C30.0125 34.1 30.0131 34.1 30.0137 34.1C30.0143 34.1 30.0149 34.1 30.0154 34.1C30.016 34.1 30.0166 34.1 30.0172 34.1C30.0177 34.1 30.0183 34.1 30.0189 34.1C30.0195 34.1 30.0201 34.1 30.0206 34.1C30.0212 34.1 30.0218 34.1 30.0224 34.1C30.0229 34.1 30.0235 34.1 30.0241 34.1C30.0247 34.1 30.0252 34.1 30.0258 34.1C30.0264 34.1 30.027 34.1 30.0275 34.1C30.0281 34.1 30.0287 34.1 30.0293 34.1C30.0298 34.1 30.0304 34.1 30.031 34.1C30.0315 34.1 30.0321 34.1 30.0327 34.1C30.0333 34.1 30.0338 34.1 30.0344 34.1C30.035 34.1 30.0356 34.1 30.0361 34.1C30.0367 34.1 30.0373 34.1 30.0378 34.1C30.0384 34.1 30.039 34.1 30.0396 34.1C30.0401 34.1 30.0407 34.1 30.0413 34.1C30.0418 34.1 30.0424 34.1 30.043 34.1C30.0435 34.1 30.0441 34.1 30.0447 34.1C30.0452 34.1 30.0458 34.1 30.0464 34.1C30.047 34.1 30.0475 34.1 30.0481 34.1C30.0487 34.1 30.0492 34.1 30.0498 34.1C30.0504 34.1 30.0509 34.1 30.0515 34.1C30.0521 34.1 30.0526 34.1 30.0532 34.1C30.0538 34.1 30.0543 34.1 30.0549 34.1C30.0555 34.1 30.056 34.1 30.0566 34.1C30.0572 34.1 30.0577 34.1 30.0583 34.1C30.0589 34.1 30.0594 34.1 30.06 34.1C30.0606 34.1 30.0611 34.1 30.0617 34.1C30.0622 34.1 30.0628 34.1 30.0634 34.1C30.0639 34.1 30.0645 34.1 30.0651 34.1C30.0656 34.1 30.0662 34.1 30.0667 34.1C30.0673 34.1 30.0679 34.1 30.0684 34.1C30.069 34.1 30.0696 34.1 30.0701 34.1C30.0707 34.1 30.0712 34.1 30.0718 34.1C30.0724 34.1 30.0729 34.1 30.0735 34.1C30.074 34.1 30.0746 34.1 30.0752 34.1C30.0757 34.1 30.0763 34.1 30.0768 34.1C30.0774 34.1 30.078 34.1 30.0785 34.1C30.0791 34.1 30.0796 34.1 30.0802 34.1C30.0808 34.1 30.0813 34.1 30.0819 34.1C30.0824 34.1 30.083 34.1 30.0835 34.1C30.0841 34.1 30.0847 34.1 30.0852 34.1C30.0858 34.1 30.0863 34.1 30.0869 34.1C30.0874 34.1 30.088 34.1 30.0886 34.1C30.0891 34.1 30.0897 34.1 30.0902 34.1C30.0908 34.1 30.0913 34.1 30.0919 34.1C30.0924 34.1 30.093 34.1 30.0936 34.1C30.0941 34.1 30.0947 34.1 30.0952 34.1C30.0958 34.1 30.0963 34.1 30.0969 34.1C30.0974 34.1 30.098 34.1 30.0985 34.1C30.0991 34.1 30.0996 34.1 30.1002 34.1C30.1007 34.1 30.1013 34.1 30.1019 34.1C30.1024 34.1 30.103 34.1 30.1035 34.1C30.1041 34.1 30.1046 34.1 30.1052 34.1C30.1057 34.1 30.1063 34.1 30.1068 34.1C30.1074 34.1 30.1079 34.1 30.1085 34.1C30.109 34.1 30.1096 34.1 30.1101 34.1C30.1107 34.1 30.1112 34.1 30.1118 34.1C30.1123 34.1 30.1129 34.1 30.1134 34.1C30.114 34.1 30.1145 34.1 30.115 34.1C30.1156 34.1 30.1161 34.1 30.1167 34.1C30.1172 34.1 30.1178 34.1 30.1183 34.1C30.1189 34.1 30.1194 34.1 30.12 34.1C30.1205 34.1 30.1211 34.1 30.1216 34.1C30.1222 34.1 30.1227 34.1 30.1232 34.1C30.1238 34.1 30.1243 34.1 30.1249 34.1C30.1254 34.1 30.126 34.1 30.1265 34.1C30.1271 34.1 30.1276 34.1 30.1281 34.1C30.1287 34.1 30.1292 34.1 30.1298 34.1C30.1303 34.1 30.1309 34.1 30.1314 34.1C30.1319 34.1 30.1325 34.1 30.133 34.1C30.1336 34.1 30.1341 34.1 30.1347 34.1C30.1352 34.1 30.1357 34.1 30.1363 34.1C30.1368 34.1 30.1374 34.1 30.1379 34.1C30.1384 34.1 30.139 34.1 30.1395 34.1C30.1401 34.1 30.1406 34.1 30.1411 34.1C30.1417 34.1 30.1422 34.1 30.1428 34.1C30.1433 34.1 30.1438 34.1 30.1444 34.1C30.1449 34.1 30.1455 34.1 30.146 34.1C30.1465 34.1 30.1471 34.1 30.1476 34.1C30.1481 34.1 30.1487 34.1 30.1492 34.1C30.1498 34.1 30.1503 34.1 30.1508 34.1C30.1514 34.1 30.1519 34.1 30.1524 34.1C30.153 34.1 30.1535 34.1 30.154 34.1C30.1546 34.1 30.1551 34.1 30.1557 34.1C30.1562 34.1 30.1567 34.1 30.1573 34.1C30.1578 34.1 30.1583 34.1 30.1589 34.1C30.1594 34.1 30.1599 34.1 30.1605 34.1C30.161 34.1 30.1615 34.1 30.1621 34.1C30.1626 34.1 30.1631 34.1 30.1637 34.1C30.1642 34.1 30.1647 34.1 30.1653 34.1C30.1658 34.1 30.1663 34.1 30.1669 34.1C30.1674 34.1 30.1679 34.1 30.1684 34.1C30.169 34.1 30.1695 34.1 30.17 34.1C30.1706 34.1 30.1711 34.1 30.1716 34.1C30.1722 34.1 30.1727 34.1 30.1732 34.1C30.1737 34.1 30.1743 34.1 30.1748 34.1C30.1753 34.1 30.1759 34.1 30.1764 34.1C30.1769 34.1 30.1774 34.1 30.178 34.1C30.1785 34.1 30.179 34.1 30.1796 34.1C30.1801 34.1 30.1806 34.1 30.1811 34.1C30.1817 34.1 30.1822 34.1 30.1827 34.1C30.1833 34.1 30.1838 34.1 30.1843 34.1C30.1848 34.1 30.1854 34.1 30.1859 34.1C30.1864 34.1 30.1869 34.1 30.1875 34.1C30.188 34.1 30.1885 34.1 30.189 34.1C30.1896 34.1 30.1901 34.1 30.1906 34.1C30.1911 34.1 30.1916 34.1 30.1922 34.1C30.1927 34.1 30.1932 34.1 30.1937 34.1C30.1943 34.1 30.1948 34.1 30.1953 34.1C30.1958 34.1 30.1964 34.1 30.1969 34.1C30.1974 34.1 30.1979 34.1 30.1984 34.1C30.199 34.1 30.1995 34.1 30.2 34.1V32.1C30.1995 32.1 30.199 32.1 30.1984 32.1C30.1979 32.1 30.1974 32.1 30.1969 32.1C30.1964 32.1 30.1958 32.1 30.1953 32.1C30.1948 32.1 30.1943 32.1 30.1937 32.1C30.1932 32.1 30.1927 32.1 30.1922 32.1C30.1916 32.1 30.1911 32.1 30.1906 32.1C30.1901 32.1 30.1896 32.1 30.189 32.1C30.1885 32.1 30.188 32.1 30.1875 32.1C30.1869 32.1 30.1864 32.1 30.1859 32.1C30.1854 32.1 30.1848 32.1 30.1843 32.1C30.1838 32.1 30.1833 32.1 30.1827 32.1C30.1822 32.1 30.1817 32.1 30.1811 32.1C30.1806 32.1 30.1801 32.1 30.1796 32.1C30.179 32.1 30.1785 32.1 30.178 32.1C30.1774 32.1 30.1769 32.1 30.1764 32.1C30.1759 32.1 30.1753 32.1 30.1748 32.1C30.1743 32.1 30.1737 32.1 30.1732 32.1C30.1727 32.1 30.1722 32.1 30.1716 32.1C30.1711 32.1 30.1706 32.1 30.17 32.1C30.1695 32.1 30.169 32.1 30.1684 32.1C30.1679 32.1 30.1674 32.1 30.1669 32.1C30.1663 32.1 30.1658 32.1 30.1653 32.1C30.1647 32.1 30.1642 32.1 30.1637 32.1C30.1631 32.1 30.1626 32.1 30.1621 32.1C30.1615 32.1 30.161 32.1 30.1605 32.1C30.1599 32.1 30.1594 32.1 30.1589 32.1C30.1583 32.1 30.1578 32.1 30.1573 32.1C30.1567 32.1 30.1562 32.1 30.1557 32.1C30.1551 32.1 30.1546 32.1 30.154 32.1C30.1535 32.1 30.153 32.1 30.1524 32.1C30.1519 32.1 30.1514 32.1 30.1508 32.1C30.1503 32.1 30.1498 32.1 30.1492 32.1C30.1487 32.1 30.1481 32.1 30.1476 32.1C30.1471 32.1 30.1465 32.1 30.146 32.1C30.1455 32.1 30.1449 32.1 30.1444 32.1C30.1438 32.1 30.1433 32.1 30.1428 32.1C30.1422 32.1 30.1417 32.1 30.1411 32.1C30.1406 32.1 30.1401 32.1 30.1395 32.1C30.139 32.1 30.1384 32.1 30.1379 32.1C30.1374 32.1 30.1368 32.1 30.1363 32.1C30.1357 32.1 30.1352 32.1 30.1347 32.1C30.1341 32.1 30.1336 32.1 30.133 32.1C30.1325 32.1 30.1319 32.1 30.1314 32.1C30.1309 32.1 30.1303 32.1 30.1298 32.1C30.1292 32.1 30.1287 32.1 30.1281 32.1C30.1276 32.1 30.1271 32.1 30.1265 32.1C30.126 32.1 30.1254 32.1 30.1249 32.1C30.1243 32.1 30.1238 32.1 30.1232 32.1C30.1227 32.1 30.1222 32.1 30.1216 32.1C30.1211 32.1 30.1205 32.1 30.12 32.1C30.1194 32.1 30.1189 32.1 30.1183 32.1C30.1178 32.1 30.1172 32.1 30.1167 32.1C30.1161 32.1 30.1156 32.1 30.115 32.1C30.1145 32.1 30.114 32.1 30.1134 32.1C30.1129 32.1 30.1123 32.1 30.1118 32.1C30.1112 32.1 30.1107 32.1 30.1101 32.1C30.1096 32.1 30.109 32.1 30.1085 32.1C30.1079 32.1 30.1074 32.1 30.1068 32.1C30.1063 32.1 30.1057 32.1 30.1052 32.1C30.1046 32.1 30.1041 32.1 30.1035 32.1C30.103 32.1 30.1024 32.1 30.1019 32.1C30.1013 32.1 30.1007 32.1 30.1002 32.1C30.0996 32.1 30.0991 32.1 30.0985 32.1C30.098 32.1 30.0974 32.1 30.0969 32.1C30.0963 32.1 30.0958 32.1 30.0952 32.1C30.0947 32.1 30.0941 32.1 30.0936 32.1C30.093 32.1 30.0924 32.1 30.0919 32.1C30.0913 32.1 30.0908 32.1 30.0902 32.1C30.0897 32.1 30.0891 32.1 30.0886 32.1C30.088 32.1 30.0874 32.1 30.0869 32.1C30.0863 32.1 30.0858 32.1 30.0852 32.1C30.0847 32.1 30.0841 32.1 30.0835 32.1C30.083 32.1 30.0824 32.1 30.0819 32.1C30.0813 32.1 30.0808 32.1 30.0802 32.1C30.0796 32.1 30.0791 32.1 30.0785 32.1C30.078 32.1 30.0774 32.1 30.0768 32.1C30.0763 32.1 30.0757 32.1 30.0752 32.1C30.0746 32.1 30.074 32.1 30.0735 32.1C30.0729 32.1 30.0724 32.1 30.0718 32.1C30.0712 32.1 30.0707 32.1 30.0701 32.1C30.0696 32.1 30.069 32.1 30.0684 32.1C30.0679 32.1 30.0673 32.1 30.0667 32.1C30.0662 32.1 30.0656 32.1 30.0651 32.1C30.0645 32.1 30.0639 32.1 30.0634 32.1C30.0628 32.1 30.0622 32.1 30.0617 32.1C30.0611 32.1 30.0606 32.1 30.06 32.1C30.0594 32.1 30.0589 32.1 30.0583 32.1C30.0577 32.1 30.0572 32.1 30.0566 32.1C30.056 32.1 30.0555 32.1 30.0549 32.1C30.0543 32.1 30.0538 32.1 30.0532 32.1C30.0526 32.1 30.0521 32.1 30.0515 32.1C30.0509 32.1 30.0504 32.1 30.0498 32.1C30.0492 32.1 30.0487 32.1 30.0481 32.1C30.0475 32.1 30.047 32.1 30.0464 32.1C30.0458 32.1 30.0452 32.1 30.0447 32.1C30.0441 32.1 30.0435 32.1 30.043 32.1C30.0424 32.1 30.0418 32.1 30.0413 32.1C30.0407 32.1 30.0401 32.1 30.0396 32.1C30.039 32.1 30.0384 32.1 30.0378 32.1C30.0373 32.1 30.0367 32.1 30.0361 32.1C30.0356 32.1 30.035 32.1 30.0344 32.1C30.0338 32.1 30.0333 32.1 30.0327 32.1C30.0321 32.1 30.0315 32.1 30.031 32.1C30.0304 32.1 30.0298 32.1 30.0293 32.1C30.0287 32.1 30.0281 32.1 30.0275 32.1C30.027 32.1 30.0264 32.1 30.0258 32.1C30.0252 32.1 30.0247 32.1 30.0241 32.1C30.0235 32.1 30.0229 32.1 30.0224 32.1C30.0218 32.1 30.0212 32.1 30.0206 32.1C30.0201 32.1 30.0195 32.1 30.0189 32.1C30.0183 32.1 30.0177 32.1 30.0172 32.1C30.0166 32.1 30.016 32.1 30.0154 32.1C30.0149 32.1 30.0143 32.1 30.0137 32.1C30.0131 32.1 30.0125 32.1 30.012 32.1C30.0114 32.1 30.0108 32.1 30.0102 32.1C30.0096 32.1 30.0091 32.1 30.0085 32.1C30.0079 32.1 30.0073 32.1 30.0067 32.1C30.0062 32.1 30.0056 32.1 30.005 32.1C30.0044 32.1 30.0038 32.1 30.0033 32.1C30.0027 32.1 30.0021 32.1 30.0015 32.1C30.0009 32.1 30.0004 32.1 29.9998 32.1C29.9992 32.1 29.9986 32.1 29.998 32.1C29.9974 32.1 29.9969 32.1 29.9963 32.1C29.9957 32.1 29.9951 32.1 29.9945 32.1C29.9939 32.1 29.9934 32.1 29.9928 32.1C29.9922 32.1 29.9916 32.1 29.991 32.1C29.9904 32.1 29.9898 32.1 29.9893 32.1C29.9887 32.1 29.9881 32.1 29.9875 32.1C29.9869 32.1 29.9863 32.1 29.9857 32.1C29.9852 32.1 29.9846 32.1 29.984 32.1C29.9834 32.1 29.9828 32.1 29.9822 32.1C29.9816 32.1 29.981 32.1 29.9805 32.1C29.9799 32.1 29.9793 32.1 29.9787 32.1C29.9781 32.1 29.9775 32.1 29.9769 32.1C29.9763 32.1 29.9757 32.1 29.9752 32.1C29.9746 32.1 29.974 32.1 29.9734 32.1C29.9728 32.1 29.9722 32.1 29.9716 32.1C29.971 32.1 29.9704 32.1 29.9698 32.1C29.9693 32.1 29.9687 32.1 29.9681 32.1C29.9675 32.1 29.9669 32.1 29.9663 32.1C29.9657 32.1 29.9651 32.1 29.9645 32.1C29.9639 32.1 29.9633 32.1 29.9627 32.1C29.9622 32.1 29.9616 32.1 29.961 32.1C29.9604 32.1 29.9598 32.1 29.9592 32.1C29.9586 32.1 29.958 32.1 29.9574 32.1C29.9568 32.1 29.9562 32.1 29.9556 32.1C29.955 32.1 29.9544 32.1 29.9538 32.1C29.9532 32.1 29.9526 32.1 29.952 32.1C29.9514 32.1 29.9508 32.1 29.9503 32.1C29.9497 32.1 29.9491 32.1 29.9485 32.1C29.9479 32.1 29.9473 32.1 29.9467 32.1C29.9461 32.1 29.9455 32.1 29.9449 32.1C29.9443 32.1 29.9437 32.1 29.9431 32.1C29.9425 32.1 29.9419 32.1 29.9413 32.1C29.9407 32.1 29.9401 32.1 29.9395 32.1C29.9389 32.1 29.9383 32.1 29.9377 32.1C29.9371 32.1 29.9365 32.1 29.9359 32.1C29.9353 32.1 29.9347 32.1 29.9341 32.1C29.9335 32.1 29.9329 32.1 29.9323 32.1C29.9317 32.1 29.9311 32.1 29.9305 32.1C29.9299 32.1 29.9293 32.1 29.9287 32.1C29.9281 32.1 29.9275 32.1 29.9269 32.1C29.9263 32.1 29.9256 32.1 29.925 32.1C29.9244 32.1 29.9238 32.1 29.9232 32.1C29.9226 32.1 29.922 32.1 29.9214 32.1C29.9208 32.1 29.9202 32.1 29.9196 32.1C29.919 32.1 29.9184 32.1 29.9178 32.1C29.9172 32.1 29.9166 32.1 29.916 32.1C29.9154 32.1 29.9148 32.1 29.9141 32.1C29.9135 32.1 29.9129 32.1 29.9123 32.1C29.9117 32.1 29.9111 32.1 29.9105 32.1C29.9099 32.1 29.9093 32.1 29.9087 32.1C29.9081 32.1 29.9075 32.1 29.9069 32.1C29.9062 32.1 29.9056 32.1 29.905 32.1C29.9044 32.1 29.9038 32.1 29.9032 32.1C29.9026 32.1 29.902 32.1 29.9014 32.1C29.9008 32.1 29.9001 32.1 29.8995 32.1C29.8989 32.1 29.8983 32.1 29.8977 32.1C29.8971 32.1 29.8965 32.1 29.8959 32.1C29.8953 32.1 29.8946 32.1 29.894 32.1C29.8934 32.1 29.8928 32.1 29.8922 32.1C29.8916 32.1 29.891 32.1 29.8904 32.1C29.8897 32.1 29.8891 32.1 29.8885 32.1C29.8879 32.1 29.8873 32.1 29.8867 32.1C29.8861 32.1 29.8854 32.1 29.8848 32.1C29.8842 32.1 29.8836 32.1 29.883 32.1C29.8824 32.1 29.8818 32.1 29.8811 32.1C29.8805 32.1 29.8799 32.1 29.8793 32.1C29.8787 32.1 29.8781 32.1 29.8774 32.1C29.8768 32.1 29.8762 32.1 29.8756 32.1C29.875 32.1 29.8743 32.1 29.8737 32.1C29.8731 32.1 29.8725 32.1 29.8719 32.1C29.8713 32.1 29.8706 32.1 29.87 32.1C29.8694 32.1 29.8688 32.1 29.8682 32.1C29.8675 32.1 29.8669 32.1 29.8663 32.1C29.8657 32.1 29.8651 32.1 29.8644 32.1C29.8638 32.1 29.8632 32.1 29.8626 32.1C29.862 32.1 29.8613 32.1 29.8607 32.1C29.8601 32.1 29.8595 32.1 29.8589 32.1C29.8582 32.1 29.8576 32.1 29.857 32.1C29.8564 32.1 29.8557 32.1 29.8551 32.1C29.8545 32.1 29.8539 32.1 29.8532 32.1C29.8526 32.1 29.852 32.1 29.8514 32.1C29.8507 32.1 29.8501 32.1 29.8495 32.1C29.8489 32.1 29.8483 32.1 29.8476 32.1C29.847 32.1 29.8464 32.1 29.8458 32.1C29.8451 32.1 29.8445 32.1 29.8439 32.1C29.8432 32.1 29.8426 32.1 29.842 32.1C29.8414 32.1 29.8407 32.1 29.8401 32.1C29.8395 32.1 29.8389 32.1 29.8382 32.1C29.8376 32.1 29.837 32.1 29.8363 32.1C29.8357 32.1 29.8351 32.1 29.8345 32.1C29.8338 32.1 29.8332 32.1 29.8326 32.1C29.8319 32.1 29.8313 32.1 29.8307 32.1C29.8301 32.1 29.8294 32.1 29.8288 32.1C29.8282 32.1 29.8275 32.1 29.8269 32.1C29.8263 32.1 29.8256 32.1 29.825 32.1C29.8244 32.1 29.8238 32.1 29.8231 32.1C29.8225 32.1 29.8219 32.1 29.8212 32.1C29.8206 32.1 29.82 32.1 29.8193 32.1C29.8187 32.1 29.8181 32.1 29.8174 32.1C29.8168 32.1 29.8162 32.1 29.8155 32.1C29.8149 32.1 29.8143 32.1 29.8136 32.1C29.813 32.1 29.8124 32.1 29.8117 32.1C29.8111 32.1 29.8105 32.1 29.8098 32.1C29.8092 32.1 29.8085 32.1 29.8079 32.1C29.8073 32.1 29.8066 32.1 29.806 32.1C29.8054 32.1 29.8047 32.1 29.8041 32.1C29.8035 32.1 29.8028 32.1 29.8022 32.1C29.8015 32.1 29.8009 32.1 29.8003 32.1C29.7996 32.1 29.799 32.1 29.7984 32.1C29.7977 32.1 29.7971 32.1 29.7964 32.1C29.7958 32.1 29.7952 32.1 29.7945 32.1C29.7939 32.1 29.7932 32.1 29.7926 32.1C29.792 32.1 29.7913 32.1 29.7907 32.1C29.79 32.1 29.7894 32.1 29.7888 32.1C29.7881 32.1 29.7875 32.1 29.7868 32.1C29.7862 32.1 29.7856 32.1 29.7849 32.1C29.7843 32.1 29.7836 32.1 29.783 32.1C29.7823 32.1 29.7817 32.1 29.7811 32.1C29.7804 32.1 29.7798 32.1 29.7791 32.1C29.7785 32.1 29.7778 32.1 29.7772 32.1C29.7766 32.1 29.7759 32.1 29.7753 32.1C29.7746 32.1 29.774 32.1 29.7733 32.1C29.7727 32.1 29.772 32.1 29.7714 32.1C29.7707 32.1 29.7701 32.1 29.7695 32.1C29.7688 32.1 29.7682 32.1 29.7675 32.1C29.7669 32.1 29.7662 32.1 29.7656 32.1C29.7649 32.1 29.7643 32.1 29.7636 32.1C29.763 32.1 29.7623 32.1 29.7617 32.1C29.761 32.1 29.7604 32.1 29.7597 32.1C29.7591 32.1 29.7585 32.1 29.7578 32.1C29.7572 32.1 29.7565 32.1 29.7559 32.1C29.7552 32.1 29.7546 32.1 29.7539 32.1C29.7533 32.1 29.7526 32.1 29.752 32.1C29.7513 32.1 29.7507 32.1 29.75 32.1C29.7494 32.1 29.7487 32.1 29.748 32.1C29.7474 32.1 29.7467 32.1 29.7461 32.1C29.7454 32.1 29.7448 32.1 29.7441 32.1C29.7435 32.1 29.7428 32.1 29.7422 32.1C29.7415 32.1 29.7409 32.1 29.7402 32.1C29.7396 32.1 29.7389 32.1 29.7383 32.1C29.7376 32.1 29.7369 32.1 29.7363 32.1C29.7356 32.1 29.735 32.1 29.7343 32.1C29.7337 32.1 29.733 32.1 29.7324 32.1C29.7317 32.1 29.7311 32.1 29.7304 32.1C29.7297 32.1 29.7291 32.1 29.7284 32.1C29.7278 32.1 29.7271 32.1 29.7265 32.1C29.7258 32.1 29.7251 32.1 29.7245 32.1C29.7238 32.1 29.7232 32.1 29.7225 32.1C29.7218 32.1 29.7212 32.1 29.7205 32.1C29.7199 32.1 29.7192 32.1 29.7186 32.1C29.7179 32.1 29.7172 32.1 29.7166 32.1C29.7159 32.1 29.7153 32.1 29.7146 32.1C29.7139 32.1 29.7133 32.1 29.7126 32.1C29.712 32.1 29.7113 32.1 29.7106 32.1C29.71 32.1 29.7093 32.1 29.7086 32.1C29.708 32.1 29.7073 32.1 29.7067 32.1C29.706 32.1 29.7053 32.1 29.7047 32.1C29.704 32.1 29.7034 32.1 29.7027 32.1C29.702 32.1 29.7014 32.1 29.7007 32.1C29.7 32.1 29.6994 32.1 29.6987 32.1C29.698 32.1 29.6974 32.1 29.6967 32.1C29.696 32.1 29.6954 32.1 29.6947 32.1C29.694 32.1 29.6934 32.1 29.6927 32.1C29.6921 32.1 29.6914 32.1 29.6907 32.1C29.6901 32.1 29.6894 32.1 29.6887 32.1C29.6881 32.1 29.6874 32.1 29.6867 32.1C29.6861 32.1 29.6854 32.1 29.6847 32.1C29.684 32.1 29.6834 32.1 29.6827 32.1C29.682 32.1 29.6814 32.1 29.6807 32.1C29.68 32.1 29.6794 32.1 29.6787 32.1C29.678 32.1 29.6774 32.1 29.6767 32.1C29.676 32.1 29.6754 32.1 29.6747 32.1C29.674 32.1 29.6733 32.1 29.6727 32.1C29.672 32.1 29.6713 32.1 29.6707 32.1C29.67 32.1 29.6693 32.1 29.6686 32.1C29.668 32.1 29.6673 32.1 29.6666 32.1C29.666 32.1 29.6653 32.1 29.6646 32.1C29.6639 32.1 29.6633 32.1 29.6626 32.1C29.6619 32.1 29.6612 32.1 29.6606 32.1C29.6599 32.1 29.6592 32.1 29.6585 32.1C29.6579 32.1 29.6572 32.1 29.6565 32.1C29.6558 32.1 29.6552 32.1 29.6545 32.1C29.6538 32.1 29.6531 32.1 29.6525 32.1C29.6518 32.1 29.6511 32.1 29.6504 32.1C29.6498 32.1 29.6491 32.1 29.6484 32.1C29.6477 32.1 29.6471 32.1 29.6464 32.1C29.6457 32.1 29.645 32.1 29.6443 32.1C29.6437 32.1 29.643 32.1 29.6423 32.1C29.6416 32.1 29.641 32.1 29.6403 32.1C29.6396 32.1 29.6389 32.1 29.6382 32.1C29.6376 32.1 29.6369 32.1 29.6362 32.1C29.6355 32.1 29.6348 32.1 29.6342 32.1C29.6335 32.1 29.6328 32.1 29.6321 32.1C29.6314 32.1 29.6307 32.1 29.6301 32.1C29.6294 32.1 29.6287 32.1 29.628 32.1C29.6273 32.1 29.6267 32.1 29.626 32.1C29.6253 32.1 29.6246 32.1 29.6239 32.1C29.6232 32.1 29.6226 32.1 29.6219 32.1C29.6212 32.1 29.6205 32.1 29.6198 32.1C29.6191 32.1 29.6185 32.1 29.6178 32.1C29.6171 32.1 29.6164 32.1 29.6157 32.1C29.615 32.1 29.6143 32.1 29.6137 32.1C29.613 32.1 29.6123 32.1 29.6116 32.1C29.6109 32.1 29.6102 32.1 29.6095 32.1C29.6089 32.1 29.6082 32.1 29.6075 32.1C29.6068 32.1 29.6061 32.1 29.6054 32.1C29.6047 32.1 29.604 32.1 29.6034 32.1C29.6027 32.1 29.602 32.1 29.6013 32.1C29.6006 32.1 29.5999 32.1 29.5992 32.1C29.5985 32.1 29.5978 32.1 29.5972 32.1C29.5965 32.1 29.5958 32.1 29.5951 32.1C29.5944 32.1 29.5937 32.1 29.593 32.1C29.5923 32.1 29.5916 32.1 29.5909 32.1C29.5903 32.1 29.5896 32.1 29.5889 32.1C29.5882 32.1 29.5875 32.1 29.5868 32.1C29.5861 32.1 29.5854 32.1 29.5847 32.1C29.584 32.1 29.5833 32.1 29.5826 32.1C29.5819 32.1 29.5812 32.1 29.5806 32.1C29.5799 32.1 29.5792 32.1 29.5785 32.1C29.5778 32.1 29.5771 32.1 29.5764 32.1C29.5757 32.1 29.575 32.1 29.5743 32.1C29.5736 32.1 29.5729 32.1 29.5722 32.1C29.5715 32.1 29.5708 32.1 29.5701 32.1C29.5694 32.1 29.5687 32.1 29.568 32.1C29.5673 32.1 29.5666 32.1 29.5659 32.1C29.5653 32.1 29.5646 32.1 29.5639 32.1C29.5632 32.1 29.5625 32.1 29.5618 32.1C29.5611 32.1 29.5604 32.1 29.5597 32.1C29.559 32.1 29.5583 32.1 29.5576 32.1C29.5569 32.1 29.5562 32.1 29.5555 32.1C29.5548 32.1 29.5541 32.1 29.5534 32.1C29.5527 32.1 29.552 32.1 29.5513 32.1C29.5506 32.1 29.5499 32.1 29.5492 32.1C29.5485 32.1 29.5478 32.1 29.5471 32.1C29.5464 32.1 29.5457 32.1 29.545 32.1C29.5443 32.1 29.5435 32.1 29.5428 32.1C29.5421 32.1 29.5414 32.1 29.5407 32.1C29.54 32.1 29.5393 32.1 29.5386 32.1C29.5379 32.1 29.5372 32.1 29.5365 32.1C29.5358 32.1 29.5351 32.1 29.5344 32.1C29.5337 32.1 29.533 32.1 29.5323 32.1C29.5316 32.1 29.5309 32.1 29.5302 32.1C29.5295 32.1 29.5288 32.1 29.528 32.1C29.5273 32.1 29.5266 32.1 29.5259 32.1C29.5252 32.1 29.5245 32.1 29.5238 32.1C29.5231 32.1 29.5224 32.1 29.5217 32.1C29.521 32.1 29.5203 32.1 29.5196 32.1C29.5188 32.1 29.5181 32.1 29.5174 32.1C29.5167 32.1 29.516 32.1 29.5153 32.1C29.5146 32.1 29.5139 32.1 29.5132 32.1C29.5125 32.1 29.5118 32.1 29.511 32.1C29.5103 32.1 29.5096 32.1 29.5089 32.1C29.5082 32.1 29.5075 32.1 29.5068 32.1C29.5061 32.1 29.5054 32.1 29.5046 32.1C29.5039 32.1 29.5032 32.1 29.5025 32.1C29.5018 32.1 29.5011 32.1 29.5004 32.1C29.4997 32.1 29.4989 32.1 29.4982 32.1C29.4975 32.1 29.4968 32.1 29.4961 32.1C29.4954 32.1 29.4947 32.1 29.4939 32.1C29.4932 32.1 29.4925 32.1 29.4918 32.1C29.4911 32.1 29.4904 32.1 29.4896 32.1C29.4889 32.1 29.4882 32.1 29.4875 32.1C29.4868 32.1 29.4861 32.1 29.4854 32.1C29.4846 32.1 29.4839 32.1 29.4832 32.1C29.4825 32.1 29.4818 32.1 29.481 32.1C29.4803 32.1 29.4796 32.1 29.4789 32.1C29.4782 32.1 29.4775 32.1 29.4767 32.1C29.476 32.1 29.4753 32.1 29.4746 32.1C29.4739 32.1 29.4731 32.1 29.4724 32.1C29.4717 32.1 29.471 32.1 29.4703 32.1C29.4695 32.1 29.4688 32.1 29.4681 32.1C29.4674 32.1 29.4667 32.1 29.4659 32.1C29.4652 32.1 29.4645 32.1 29.4638 32.1C29.4631 32.1 29.4623 32.1 29.4616 32.1C29.4609 32.1 29.4602 32.1 29.4594 32.1C29.4587 32.1 29.458 32.1 29.4573 32.1C29.4566 32.1 29.4558 32.1 29.4551 32.1C29.4544 32.1 29.4537 32.1 29.4529 32.1C29.4522 32.1 29.4515 32.1 29.4508 32.1C29.45 32.1 29.4493 32.1 29.4486 32.1C29.4479 32.1 29.4471 32.1 29.4464 32.1C29.4457 32.1 29.445 32.1 29.4442 32.1C29.4435 32.1 29.4428 32.1 29.442 32.1C29.4413 32.1 29.4406 32.1 29.4399 32.1C29.4391 32.1 29.4384 32.1 29.4377 32.1C29.437 32.1 29.4362 32.1 29.4355 32.1C29.4348 32.1 29.434 32.1 29.4333 32.1C29.4326 32.1 29.4319 32.1 29.4311 32.1C29.4304 32.1 29.4297 32.1 29.4289 32.1C29.4282 32.1 29.4275 32.1 29.4267 32.1C29.426 32.1 29.4253 32.1 29.4246 32.1C29.4238 32.1 29.4231 32.1 29.4224 32.1C29.4216 32.1 29.4209 32.1 29.4202 32.1C29.4194 32.1 29.4187 32.1 29.418 32.1C29.4172 32.1 29.4165 32.1 29.4158 32.1C29.415 32.1 29.4143 32.1 29.4136 32.1C29.4128 32.1 29.4121 32.1 29.4114 32.1C29.4106 32.1 29.4099 32.1 29.4092 32.1C29.4084 32.1 29.4077 32.1 29.407 32.1C29.4062 32.1 29.4055 32.1 29.4048 32.1C29.404 32.1 29.4033 32.1 29.4026 32.1C29.4018 32.1 29.4011 32.1 29.4003 32.1C29.3996 32.1 29.3989 32.1 29.3981 32.1C29.3974 32.1 29.3967 32.1 29.3959 32.1C29.3952 32.1 29.3944 32.1 29.3937 32.1C29.393 32.1 29.3922 32.1 29.3915 32.1C29.3908 32.1 29.39 32.1 29.3893 32.1C29.3885 32.1 29.3878 32.1 29.3871 32.1C29.3863 32.1 29.3856 32.1 29.3848 32.1C29.3841 32.1 29.3834 32.1 29.3826 32.1C29.3819 32.1 29.3811 32.1 29.3804 32.1C29.3797 32.1 29.3789 32.1 29.3782 32.1C29.3774 32.1 29.3767 32.1 29.3759 32.1C29.3752 32.1 29.3745 32.1 29.3737 32.1C29.373 32.1 29.3722 32.1 29.3715 32.1C29.3707 32.1 29.37 32.1 29.3693 32.1C29.3685 32.1 29.3678 32.1 29.367 32.1C29.3663 32.1 29.3655 32.1 29.3648 32.1C29.3641 32.1 29.3633 32.1 29.3626 32.1C29.3618 32.1 29.3611 32.1 29.3603 32.1C29.3596 32.1 29.3588 32.1 29.3581 32.1C29.3573 32.1 29.3566 32.1 29.3558 32.1C29.3551 32.1 29.3544 32.1 29.3536 32.1C29.3529 32.1 29.3521 32.1 29.3514 32.1C29.3506 32.1 29.3499 32.1 29.3491 32.1C29.3484 32.1 29.3476 32.1 29.3469 32.1C29.3461 32.1 29.3454 32.1 29.3446 32.1C29.3439 32.1 29.3431 32.1 29.3424 32.1C29.3416 32.1 29.3409 32.1 29.3401 32.1C29.3394 32.1 29.3386 32.1 29.3379 32.1C29.3371 32.1 29.3364 32.1 29.3356 32.1C29.3349 32.1 29.3341 32.1 29.3334 32.1C29.3326 32.1 29.3319 32.1 29.3311 32.1C29.3304 32.1 29.3296 32.1 29.3289 32.1C29.3281 32.1 29.3274 32.1 29.3266 32.1C29.3258 32.1 29.3251 32.1 29.3243 32.1C29.3236 32.1 29.3228 32.1 29.3221 32.1C29.3213 32.1 29.3206 32.1 29.3198 32.1C29.3191 32.1 29.3183 32.1 29.3175 32.1C29.3168 32.1 29.316 32.1 29.3153 32.1C29.3145 32.1 29.3138 32.1 29.313 32.1C29.3123 32.1 29.3115 32.1 29.3107 32.1C29.31 32.1 29.3092 32.1 29.3085 32.1C29.3077 32.1 29.307 32.1 29.3062 32.1C29.3054 32.1 29.3047 32.1 29.3039 32.1C29.3032 32.1 29.3024 32.1 29.3016 32.1C29.3009 32.1 29.3001 32.1 29.2994 32.1C29.2986 32.1 29.2979 32.1 29.2971 32.1C29.2963 32.1 29.2956 32.1 29.2948 32.1C29.2941 32.1 29.2933 32.1 29.2925 32.1C29.2918 32.1 29.291 32.1 29.2902 32.1C29.2895 32.1 29.2887 32.1 29.288 32.1C29.2872 32.1 29.2864 32.1 29.2857 32.1C29.2849 32.1 29.2841 32.1 29.2834 32.1C29.2826 32.1 29.2819 32.1 29.2811 32.1C29.2803 32.1 29.2796 32.1 29.2788 32.1C29.278 32.1 29.2773 32.1 29.2765 32.1C29.2757 32.1 29.275 32.1 29.2742 32.1C29.2735 32.1 29.2727 32.1 29.2719 32.1C29.2712 32.1 29.2704 32.1 29.2696 32.1C29.2689 32.1 29.2681 32.1 29.2673 32.1C29.2666 32.1 29.2658 32.1 29.265 32.1C29.2643 32.1 29.2635 32.1 29.2627 32.1C29.262 32.1 29.2612 32.1 29.2604 32.1C29.2597 32.1 29.2589 32.1 29.2581 32.1C29.2573 32.1 29.2566 32.1 29.2558 32.1C29.255 32.1 29.2543 32.1 29.2535 32.1C29.2527 32.1 29.252 32.1 29.2512 32.1C29.2504 32.1 29.2497 32.1 29.2489 32.1C29.2481 32.1 29.2473 32.1 29.2466 32.1C29.2458 32.1 29.245 32.1 29.2443 32.1C29.2435 32.1 29.2427 32.1 29.2419 32.1C29.2412 32.1 29.2404 32.1 29.2396 32.1C29.2389 32.1 29.2381 32.1 29.2373 32.1C29.2365 32.1 29.2358 32.1 29.235 32.1C29.2342 32.1 29.2334 32.1 29.2327 32.1C29.2319 32.1 29.2311 32.1 29.2303 32.1C29.2296 32.1 29.2288 32.1 29.228 32.1C29.2272 32.1 29.2265 32.1 29.2257 32.1C29.2249 32.1 29.2241 32.1 29.2234 32.1C29.2226 32.1 29.2218 32.1 29.221 32.1C29.2203 32.1 29.2195 32.1 29.2187 32.1C29.2179 32.1 29.2171 32.1 29.2164 32.1C29.2156 32.1 29.2148 32.1 29.214 32.1C29.2133 32.1 29.2125 32.1 29.2117 32.1C29.2109 32.1 29.2101 32.1 29.2094 32.1C29.2086 32.1 29.2078 32.1 29.207 32.1C29.2062 32.1 29.2055 32.1 29.2047 32.1C29.2039 32.1 29.2031 32.1 29.2023 32.1C29.2016 32.1 29.2008 32.1 29.2 32.1V34.1ZM30.2 34.1C32.8793 34.1 35.1417 33.2961 36.8912 31.6226L35.5088 30.1774C34.1917 31.4372 32.4541 32.1 30.2 32.1V34.1ZM36.8912 31.6226C38.6425 29.9475 39.5 27.7762 39.5 25.2H37.5C37.5 27.2905 36.8241 28.9192 35.5088 30.1774L36.8912 31.6226ZM39.5 25.2C39.5 22.6955 38.6791 20.5885 36.9905 18.9766L35.6095 20.4234C36.8542 21.6115 37.5 23.1711 37.5 25.2H39.5ZM37.0071 18.9929C35.392 17.3778 33.2902 16.6 30.8 16.6V18.6C32.8432 18.6 34.408 19.2222 35.5929 20.4071L37.0071 18.9929ZM30.8 16.6C28.1527 16.6 25.9401 17.4945 24.2628 19.3243L25.7372 20.6757C26.9932 19.3055 28.6473 18.6 30.8 18.6V16.6ZM24.2628 19.3243C22.5992 21.1391 21.8 23.461 21.8 26.2H23.8C23.8 23.8723 24.4674 22.0609 25.7372 20.6757L24.2628 19.3243ZM22.8 25.2H4.7V27.2H22.8V25.2ZM5.69304 26.3178C6.14888 22.4757 7.08983 19.0845 8.50213 16.1315L6.69787 15.2685C5.17684 18.4489 4.18446 22.0576 3.70696 26.0822L5.69304 26.3178ZM8.49443 16.1472C9.97633 13.1834 11.8345 10.7224 14.063 8.74858L12.737 7.25141C10.2988 9.41092 8.29034 12.0833 6.70557 15.2528L8.49443 16.1472ZM14.0748 8.73803C16.3015 6.70217 18.9133 5.17097 21.9223 4.14665L21.2777 2.25335C18.02 3.36236 15.1652 5.03116 12.7252 7.26197L14.0748 8.73803ZM21.9401 4.14038C24.9502 3.05161 28.2999 2.5 32 2.5V0.499996C28.1001 0.499996 24.5164 1.08172 21.2599 2.25962L21.9401 4.14038ZM32 2.5C35.6385 2.5 38.8893 3.01975 41.765 4.04221L42.435 2.15778C39.3107 1.04691 35.8282 0.499996 32 0.499996V2.5ZM41.79 4.05072C44.7389 5.01233 47.2114 6.41304 49.2285 8.24099L50.5715 6.75901C48.3219 4.72029 45.5944 3.18767 42.41 2.14926L41.79 4.05072ZM49.253 8.2625C51.3288 10.0238 52.9021 12.1925 53.9763 14.783L55.8237 14.017C54.6312 11.1409 52.8712 8.70958 50.547 6.73749L49.253 8.2625ZM53.9881 14.8104C55.1224 17.3311 55.7 20.1884 55.7 23.4H57.7C57.7 19.9449 57.0776 16.8022 55.8119 13.9896L53.9881 14.8104ZM55.7 23.4C55.7 26.8757 55.0238 29.6501 53.7425 31.7855L55.4575 32.8145C56.9762 30.2833 57.7 27.1243 57.7 23.4H55.7ZM53.7381 31.793C52.4934 33.9089 50.6754 35.7691 48.2504 37.3646L49.3496 39.0354C51.9912 37.2975 54.0399 35.2244 55.4619 32.807L53.7381 31.793ZM48.5036 39.1551C52.17 40.2929 54.9763 42.3296 56.9734 45.2628L58.6266 44.1372C56.357 40.8037 53.1633 38.5071 49.0964 37.2449L48.5036 39.1551ZM56.9875 45.2829C59.0427 48.1478 60.1 51.7328 60.1 56.1H62.1C62.1 51.4006 60.9573 47.3856 58.6125 44.1171L56.9875 45.2829ZM60.1 56.1C60.1 59.6989 59.394 62.9494 57.9979 65.8685L59.8021 66.7315C61.3393 63.5173 62.1 59.9678 62.1 56.1H60.1ZM57.9979 65.8685C56.5951 68.8016 54.62 71.3196 52.0636 73.4286L53.3364 74.9714C56.1133 72.6804 58.2716 69.9317 59.8021 66.7315L57.9979 65.8685ZM52.0541 73.4366C49.5648 75.5429 46.5492 77.1844 42.989 78.3496L43.611 80.2504C47.3842 79.0156 50.6352 77.2571 53.3459 74.9634L52.0541 73.4366ZM42.9838 78.3513C39.4991 79.5129 35.6409 80.1 31.4 80.1V82.1C35.8258 82.1 39.9009 81.4871 43.6162 80.2487L42.9838 78.3513ZM31.4 80.1C25.7334 80.1 20.6521 78.9936 16.1369 76.8005L15.2631 78.5995C20.0812 80.9398 25.4667 82.1 31.4 82.1V80.1ZM16.1369 76.8005C11.6693 74.6305 8.07958 71.181 5.36969 66.4064L3.63031 67.3936C6.52043 72.4857 10.3974 76.2362 15.2631 78.5995L16.1369 76.8005ZM5.36662 66.401C4.14555 64.2802 3.32058 62.1779 2.87823 60.0925L0.921766 60.5075C1.41275 62.8221 2.32111 65.1198 3.63338 67.399L5.36662 66.401ZM2.88387 60.1211C2.49475 57.9809 2.3 55.8075 2.3 53.6H0.3C0.3 55.9258 0.505252 58.2191 0.91613 60.4789L2.88387 60.1211ZM1.3 54.6H20.7V52.6H1.3V54.6ZM19.7007 53.6377C19.8406 57.345 20.9335 60.3224 23.1054 62.4194L24.4946 60.9806C22.7998 59.3443 21.8261 56.9216 21.6993 53.5623L19.7007 53.6377ZM23.1186 62.4319C25.2783 64.4427 28.1432 65.4 31.6 65.4V63.4C28.5235 63.4 26.1884 62.5573 24.4814 60.9681L23.1186 62.4319ZM31.6 65.4C35.2344 65.4 38.1011 64.4186 39.9593 62.2508L38.4407 60.9492C37.0989 62.5147 34.899 63.4 31.6 63.4V65.4ZM39.9593 62.2508C41.7322 60.1823 42.6 57.6435 42.6 54.7H40.6C40.6 57.2232 39.8678 59.2844 38.4407 60.9492L39.9593 62.2508ZM42.6 54.7C42.6 51.2298 41.5652 48.4497 39.3529 46.5426L38.0471 48.0574C39.7015 49.4836 40.6 51.6369 40.6 54.7H42.6ZM39.3529 46.5426C37.2294 44.712 34.6947 43.8 31.8 43.8V45.8C34.2387 45.8 36.3039 46.5547 38.0471 48.0574L39.3529 46.5426ZM31.8 43.8C31.0665 43.8 30.36 43.8734 29.6831 44.0238L30.1169 45.9762C30.64 45.86 31.2002 45.8 31.8 45.8V43.8ZM29.7896 44.0061C29.1621 44.0758 28.4721 44.1796 27.7211 44.3161L28.0789 46.2839C28.7945 46.1537 29.4379 46.0575 30.0104 45.9939L29.7896 44.0061ZM28.9 45.3V33H26.9V45.3H28.9Z" fill="#D9B465" fill-opacity="0.5"/>
</svg>
