<svg width="67" height="78" viewBox="0 0 67 78" fill="none" xmlns="http://www.w3.org/2000/svg">
<path d="M37.8 46.5V47.5H38.8V46.5H37.8ZM37.8 16.8H38.8V13.0965L36.9359 16.2967L37.8 16.8ZM20.5 46.5L19.6359 45.9967L18.7602 47.5H20.5V46.5ZM56 46.5H55V47.5H56V46.5ZM65.1 46.5H66.1V45.5H65.1V46.5ZM65.1 61.5V62.5H66.1V61.5H65.1ZM56 61.5V60.5H55V61.5H56ZM56 77V78H57V77H56ZM37.8 77H36.8V78H37.8V77ZM37.8 61.5H38.8V60.5H37.8V61.5ZM1.4 61.5H0.4V62.5H1.4V61.5ZM1.4 48.9L0.545871 48.3799L0.4 48.6195V48.9H1.4ZM30.2 1.6V0.599998H29.6381L29.3459 1.07994L30.2 1.6ZM56 1.6H57V0.599998H56V1.6ZM38.8 46.5V16.8H36.8V46.5H38.8ZM36.9359 16.2967L19.6359 45.9967L21.3641 47.0033L38.6641 17.3033L36.9359 16.2967ZM20.5 47.5H37.8V45.5H20.5V47.5ZM56 47.5H65.1V45.5H56V47.5ZM64.1 46.5V61.5H66.1V46.5H64.1ZM65.1 60.5H56V62.5H65.1V60.5ZM55 61.5V77H57V61.5H55ZM56 76H37.8V78H56V76ZM38.8 77V61.5H36.8V77H38.8ZM37.8 60.5H1.4V62.5H37.8V60.5ZM2.4 61.5V48.9H0.4V61.5H2.4ZM2.25413 49.4201L31.0541 2.12006L29.3459 1.07994L0.545871 48.3799L2.25413 49.4201ZM30.2 2.6H56V0.599998H30.2V2.6ZM55 1.6V46.5H57V1.6H55Z" fill="#D9B465" fill-opacity="0.5"/>
</svg>
