<svg width="95" height="229" viewBox="0 0 95 229" fill="none" xmlns="http://www.w3.org/2000/svg">
<path d="M34.5 51.6H35.5V50.6H34.5V51.6ZM1.5 51.6H0.5V52.6H1.5V51.6ZM1.5 1.8V0.799995H0.5V1.8H1.5ZM93.3 1.8H94.3V0.799995H93.3V1.8ZM93.3 228V229H94.3V228H93.3ZM34.5 228H33.5V229H34.5V228ZM34.5 50.6H1.5V52.6H34.5V50.6ZM2.5 51.6V1.8H0.5V51.6H2.5ZM1.5 2.8H93.3V0.799995H1.5V2.8ZM92.3 1.8V228H94.3V1.8H92.3ZM93.3 227H34.5V229H93.3V227ZM35.5 228V51.6H33.5V228H35.5Z" fill="white" fill-opacity="0.4"/>
</svg>
