<svg width="150" height="50" viewBox="0 0 150 50" fill="none" xmlns="http://www.w3.org/2000/svg">
<g clip-path="url(#clip0)">
<path d="M150 42.4357C150 46.0986 147.032 49.0664 143.369 49.0664H6.63076C2.96786 49.0664 0 46.0986 0 42.4357V6.63076C0 2.96786 2.96786 0 6.63076 0H143.369C147.029 0 150 2.96786 150 6.63076V42.4357Z" fill="black"/>
<path d="M11.2498 9.44612V26.0597V42.6732L28.007 26.0597L11.2498 9.44612Z" fill="url(#paint0_linear)"/>
<path d="M32.5057 21.5991L25.743 17.6928L11.2498 9.32588V9.44612L28.007 26.0597L32.5057 21.5991Z" fill="url(#paint1_linear)"/>
<path d="M11.2498 42.6732V42.7964L25.743 34.4266L32.5057 30.5232L28.007 26.0597L11.2498 42.6732Z" fill="url(#paint2_linear)"/>
<path d="M32.5058 21.5991L28.0071 26.0597L32.5058 30.5232L40.2363 26.0597L32.5058 21.5991Z" fill="url(#paint3_linear)"/>
<path d="M116.738 32.5555C116.107 32.5555 115.535 32.4382 115.013 32.2065C114.494 31.9749 114.057 31.6171 113.702 31.1361H113.597C113.667 31.6992 113.702 32.2359 113.702 32.7403V36.717H112.239V22.7164H113.43L113.632 24.0391H113.702C114.078 23.5112 114.518 23.127 115.016 22.8924C115.515 22.6578 116.09 22.5405 116.735 22.5405C118.016 22.5405 119.005 22.9774 119.703 23.8543C120.401 24.7312 120.747 25.96 120.747 27.5407C120.747 29.1272 120.392 30.3619 119.685 31.2388C118.978 32.1156 117.996 32.5555 116.738 32.5555ZM116.527 23.7839C115.538 23.7839 114.826 24.0567 114.386 24.6051C113.946 25.1505 113.717 26.0215 113.705 27.2151V27.5407C113.705 28.8985 113.931 29.8692 114.386 30.4557C114.837 31.0393 115.565 31.3326 116.562 31.3326C117.398 31.3326 118.052 30.9953 118.524 30.3179C118.996 29.6434 119.233 28.7108 119.233 27.5231C119.233 26.3177 118.996 25.3939 118.524 24.7488C118.049 24.1036 117.383 23.7839 116.527 23.7839Z" fill="#F9F9F9"/>
<path d="M124.137 32.3796H122.673V18.6606H124.137V32.3796Z" fill="#F9F9F9"/>
<path d="M132.554 32.3796L132.263 31.0042H132.193C131.712 31.6112 131.231 32.0189 130.75 32.2329C130.272 32.447 129.674 32.5555 128.955 32.5555C127.996 32.5555 127.246 32.3092 126.703 31.8136C126.16 31.3209 125.888 30.617 125.888 29.7079C125.888 27.7577 127.448 26.7342 130.568 26.6403L132.208 26.5876V25.9893C132.208 25.2297 132.043 24.6696 131.718 24.3089C131.392 23.9482 130.87 23.7663 130.152 23.7663C129.345 23.7663 128.436 24.0127 127.419 24.5083L126.97 23.388C127.445 23.1299 127.967 22.9276 128.536 22.781C129.102 22.6343 129.671 22.561 130.243 22.561C131.395 22.561 132.249 22.8161 132.803 23.3294C133.357 23.8396 133.636 24.6608 133.636 25.7899V32.3854H132.554V32.3796ZM129.246 31.3473C130.158 31.3473 130.87 31.098 131.392 30.5994C131.911 30.1009 132.172 29.4 132.172 28.4997V27.6257L130.709 27.6873C129.545 27.7284 128.706 27.9102 128.193 28.2299C127.68 28.5495 127.421 29.0481 127.421 29.7255C127.421 30.2534 127.58 30.6581 127.902 30.9338C128.222 31.2094 128.671 31.3473 129.246 31.3473Z" fill="#F9F9F9"/>
<path d="M134.486 22.7164H136.055L138.173 28.2269C138.636 29.485 138.926 30.3941 139.038 30.9514H139.108C139.184 30.6522 139.346 30.139 139.589 29.4117C139.833 28.6844 140.63 26.4556 141.982 22.7164H143.551L139.399 33.7198C138.988 34.8078 138.507 35.5791 137.956 36.0337C137.407 36.4882 136.733 36.717 135.932 36.717C135.486 36.717 135.044 36.6671 134.61 36.5674V35.3943C134.932 35.4647 135.296 35.4999 135.695 35.4999C136.7 35.4999 137.416 34.9368 137.847 33.8078L138.384 32.4323L134.486 22.7164Z" fill="#F9F9F9"/>
<path d="M89.6251 23.6138C90.0884 23.998 91.0592 24.8074 91.0592 26.3441C91.0592 27.8398 90.2116 28.5466 89.3611 29.2152C89.0972 29.4762 88.7951 29.7607 88.7951 30.2065C88.7951 30.6493 89.0972 30.8927 89.3201 31.0745L90.0474 31.6405C90.936 32.3884 91.7454 33.0775 91.7454 34.4706C91.7454 36.3709 89.9066 38.2889 86.4314 38.2889C83.4988 38.2889 82.0852 36.8959 82.0852 35.3973C82.0852 34.67 82.4489 33.6406 83.6424 32.9309C84.8947 32.1625 86.5927 32.0628 87.5018 32.0013C87.2174 31.6376 86.8948 31.2534 86.8948 30.6288C86.8948 30.2856 86.9974 30.0833 87.0971 29.8399C86.8742 29.8604 86.6514 29.8809 86.449 29.8809C84.3082 29.8809 83.094 28.2826 83.094 26.7078C83.094 25.7781 83.5193 24.7458 84.3873 23.998C85.5399 23.0478 86.9153 22.8865 88.0063 22.8865H92.1677L90.8744 23.6138H89.6251ZM88.1881 32.5878C88.0268 32.5673 87.9241 32.5673 87.7247 32.5673C87.5429 32.5673 86.449 32.6083 85.6015 32.8928C85.1557 33.0541 83.8624 33.538 83.8624 34.975C83.8624 36.409 85.2583 37.4413 87.4197 37.4413C89.3582 37.4413 90.3905 36.5088 90.3905 35.2565C90.3934 34.2242 89.7248 33.6817 88.1881 32.5878ZM88.7746 28.7489C89.238 28.2826 89.279 27.6374 89.279 27.2738C89.279 25.8192 88.411 23.5552 86.7335 23.5552C86.2085 23.5552 85.6425 23.8162 85.317 24.2238C84.9739 24.6491 84.8712 25.1945 84.8712 25.7195C84.8712 27.0744 85.6601 29.3179 87.3992 29.3179C87.9065 29.3149 88.452 29.0715 88.7746 28.7489Z" fill="#F9F9F9"/>
<path d="M76.9003 32.2652C73.6919 32.2652 71.9763 29.7636 71.9763 27.5025C71.9763 24.8602 74.1348 22.5991 77.2023 22.5991C80.1672 22.5991 82.0236 24.9189 82.0236 27.3618C82.0266 29.7431 80.1907 32.2652 76.9003 32.2652ZM79.4224 30.6317C79.9062 29.9865 80.0294 29.1771 80.0294 28.3911C80.0294 26.6139 79.1819 23.2238 76.6803 23.2238C76.0146 23.2238 75.3489 23.4877 74.865 23.91C74.079 24.6168 73.9353 25.5025 73.9353 26.3735C73.9353 28.3706 74.9236 31.6581 77.3666 31.6581C78.1525 31.6581 78.959 31.2769 79.4224 30.6317Z" fill="#F9F9F9"/>
<path d="M65.9645 32.2652C62.7561 32.2652 61.0405 29.7636 61.0405 27.5025C61.0405 24.8602 63.199 22.5991 66.2665 22.5991C69.2315 22.5991 71.0878 24.9189 71.0878 27.3618C71.0878 29.7431 69.252 32.2652 65.9645 32.2652ZM68.4866 30.6317C68.9705 29.9865 69.0936 29.1771 69.0936 28.3911C69.0936 26.6139 68.2461 23.2238 65.7445 23.2238C65.0788 23.2238 64.4131 23.4877 63.9292 23.91C63.1433 24.6168 62.9996 25.5025 62.9996 26.3735C62.9996 28.3706 63.9879 31.6581 66.4308 31.6581C67.2138 31.6581 68.0203 31.2769 68.4866 30.6317Z" fill="#F9F9F9"/>
<path d="M59.4978 31.9485L56.5974 32.6171C55.4214 32.7989 54.3657 32.9602 53.2513 32.9602C47.6499 32.9602 45.5208 28.8428 45.5208 25.6168C45.5208 21.6812 48.5443 18.03 53.7176 18.03C54.8144 18.03 55.8672 18.1913 56.8203 18.4553C58.3424 18.8805 59.0521 19.4084 59.4978 19.7134L57.8145 21.3146L57.1048 21.4759L57.6121 20.6636C56.923 19.9949 55.6648 18.7573 53.2718 18.7573C50.0664 18.7573 47.6528 21.1914 47.6528 24.7429C47.6528 28.5554 50.4124 32.1479 54.8349 32.1479C56.1341 32.1479 56.8027 31.8839 57.4127 31.6405V28.3794L54.351 28.5407L55.9728 27.6668H60.275L59.7471 28.1741C59.6034 28.2973 59.5858 28.3383 59.5448 28.4996C59.5242 28.6815 59.5037 29.2709 59.5037 29.4733V31.9485H59.4978Z" fill="#F9F9F9"/>
<path d="M96.0359 31.3649C95.3672 31.3033 95.2265 31.183 95.2265 30.3912V30.1683V18.9069C95.2294 18.8629 95.2323 18.8189 95.2382 18.7749C95.3203 18.0652 95.5227 17.945 96.1532 17.5784H93.2498L91.7278 18.3086H93.2792V18.3174V18.3086V30.1625V30.834C93.2792 31.2388 93.2 31.3003 92.7308 31.9074H96.3233L97.074 31.4616C96.728 31.4235 96.3819 31.4059 96.0359 31.3649Z" fill="#F9F9F9"/>
<path d="M104.291 31.5496C104.071 31.6699 103.849 31.8136 103.629 31.9133C102.963 32.2153 102.277 32.2975 101.673 32.2975C101.03 32.2975 100.021 32.2564 98.9921 31.5115C97.5639 30.5027 96.9392 28.7695 96.9392 27.2591C96.9392 24.1358 99.4789 22.605 101.552 22.605C102.277 22.605 103.024 22.7868 103.629 23.1681C104.635 23.8308 104.898 24.6989 105.036 25.1623L100.303 27.0773L98.7516 27.1976C99.2531 29.7548 100.986 31.2446 102.901 31.2446C103.928 31.2446 104.676 30.8839 105.359 30.5408L104.291 31.5496ZM102.4 25.5465C102.781 25.4057 102.983 25.2855 102.983 25.0039C102.983 24.1974 102.077 23.2707 100.989 23.2707C100.183 23.2707 98.6724 23.8954 98.6724 26.0714C98.6724 26.4145 98.7135 26.7752 98.734 27.1389L102.4 25.5465Z" fill="#F9F9F9"/>
<path d="M106.239 22.7428V24.0713H106.077V22.7428H105.637V22.605H106.679V22.7428H106.239Z" fill="#F9F9F9"/>
<path d="M108.051 24.0713V22.7282H108.042L107.632 24.0713H107.505L107.092 22.7282H107.086V24.0713H106.939V22.605H107.192L107.564 23.7898H107.57L107.937 22.605H108.192V24.0713H108.051Z" fill="#F9F9F9"/>
<path d="M49.5475 14.0797H48.5387C48.5387 13.9419 48.4419 13.5489 48.2513 12.9008H46.7967C46.6002 13.5372 46.5005 13.9302 46.5005 14.0797H45.5532C45.5532 13.9976 45.7996 13.326 46.2893 12.0621C46.7791 10.801 47.0254 10.106 47.0254 9.97693H48.2161C48.2161 10.0972 48.439 10.7805 48.8818 12.0327C49.3276 13.285 49.5475 13.9683 49.5475 14.0797ZM48.0929 12.3025C47.7351 11.2174 47.5533 10.6338 47.5533 10.5459H47.5034C47.5034 10.628 47.3187 11.2145 46.9462 12.3025H48.0929Z" fill="#FCFCFD"/>
<path d="M53.6121 14.0797H52.8349C52.8349 13.9947 52.5475 13.5401 51.9698 12.716C51.3657 11.848 51.0196 11.2556 50.9375 10.9359H50.8876C50.9404 11.3963 50.9668 11.8128 50.9668 12.1823C50.9668 12.7014 50.9815 13.3319 51.0108 14.0797H50.2366C50.2688 13.4287 50.2835 12.7131 50.2835 11.933C50.2835 11.1676 50.2688 10.5136 50.2366 9.97693H51.1721C51.1721 10.0884 51.4302 10.5312 51.9493 11.3084C52.5006 12.1324 52.8173 12.6926 52.8994 12.9888H52.9464C52.8965 12.5195 52.8701 12.1002 52.8701 11.7277C52.8701 11.1588 52.8554 10.5752 52.8261 9.97693H53.615C53.5857 10.4989 53.571 11.15 53.571 11.933C53.5681 12.7248 53.5827 13.4404 53.6121 14.0797Z" fill="#FCFCFD"/>
<path d="M58.1783 11.889C58.1783 12.4844 57.9877 13.0064 57.6035 13.4521C57.2223 13.8979 56.6856 14.1208 55.9964 14.1208C55.6856 14.1208 55.2574 14.1091 54.7119 14.0827C54.7383 13.4492 54.753 12.7336 54.753 11.9359C54.753 11.1705 54.7383 10.5195 54.7119 9.97986H55.2633C55.3542 9.97986 55.4891 9.97693 55.668 9.97106C55.8469 9.9652 55.9642 9.96227 56.0169 9.96227C56.7736 9.96227 57.3249 10.15 57.6651 10.5283C58.0053 10.9066 58.1783 11.3582 58.1783 11.889ZM57.3161 12.0239C57.3161 11.6192 57.1988 11.282 56.9642 11.0034C56.7296 10.7277 56.3689 10.5899 55.8879 10.5899C55.797 10.5899 55.6738 10.5987 55.5155 10.6192C55.536 11.0386 55.5477 11.4785 55.5477 11.9359C55.5477 12.4374 55.5595 12.936 55.58 13.4287C55.7178 13.4551 55.8527 13.4697 55.9906 13.4697C56.4422 13.4697 56.7765 13.329 56.9935 13.0504C57.2076 12.7688 57.3161 12.4286 57.3161 12.0239Z" fill="#FCFCFD"/>
<path d="M62.3867 14.0797H61.4541C61.2107 13.3348 61.023 12.8773 60.8939 12.7043C60.7649 12.5313 60.5538 12.4433 60.2634 12.4433C60.1403 12.4433 60.0259 12.4433 59.9144 12.4462C59.9144 12.9858 59.9232 13.5313 59.9438 14.0827H59.0669C59.0933 13.4492 59.108 12.7336 59.108 11.9359C59.108 11.1705 59.0933 10.5195 59.0669 9.97986H59.6124C59.674 9.97986 59.8059 9.97693 60.0083 9.97106C60.2077 9.9652 60.3954 9.96227 60.5655 9.96227C61.5303 9.96227 62.0113 10.2907 62.0113 10.9506C62.0113 11.4726 61.7356 11.8392 61.1872 12.0445V12.0914C61.3984 12.15 61.5861 12.3143 61.7444 12.587C61.8998 12.8568 62.1169 13.3554 62.3867 14.0797ZM61.2048 11.1823C61.2048 10.7658 60.935 10.5547 60.3983 10.5547C60.2018 10.5547 60.0259 10.5693 59.8763 10.5987C59.8998 10.9242 59.9115 11.3494 59.9115 11.8714C60.0259 11.8744 60.1256 11.8773 60.2048 11.8773C60.8705 11.8802 61.2048 11.6456 61.2048 11.1823Z" fill="#FCFCFD"/>
<path d="M66.903 11.9535C66.903 12.5987 66.7065 13.1325 66.3106 13.5577C65.9147 13.983 65.4279 14.1941 64.8443 14.1941C64.29 14.1941 63.8266 14.0005 63.4513 13.6105C63.0788 13.2205 62.8911 12.7248 62.8911 12.1266C62.8911 11.4814 63.0876 10.9476 63.4835 10.5224C63.8794 10.0972 64.3662 9.88602 64.9498 9.88602C65.5041 9.88602 65.9675 10.0796 66.3429 10.4696C66.7153 10.8567 66.903 11.3523 66.903 11.9535ZM66.0349 12.0474C66.0349 11.6075 65.9235 11.2526 65.6977 10.9799C65.4719 10.7072 65.1962 10.5693 64.8648 10.5693C64.5569 10.5693 64.2988 10.7072 64.0847 10.9828C63.8706 11.2585 63.7621 11.6046 63.7621 12.0269C63.7621 12.4638 63.8736 12.8187 64.0994 13.0944C64.3252 13.3671 64.6009 13.5049 64.9293 13.5049C65.2372 13.5049 65.4953 13.3671 65.7094 13.0914C65.9264 12.8099 66.0349 12.4638 66.0349 12.0474Z" fill="#FCFCFD"/>
<path d="M68.683 14.0797H67.7915C67.8179 13.4287 67.8326 12.7131 67.8326 11.933C67.8326 11.1676 67.8179 10.5136 67.7915 9.97693H68.683C68.6566 10.5048 68.642 11.1588 68.642 11.933C68.642 12.7278 68.6566 13.4433 68.683 14.0797Z" fill="#FCFCFD"/>
<path d="M73.2494 11.889C73.2494 12.4844 73.0587 13.0064 72.6746 13.4521C72.2933 13.8979 71.7566 14.1208 71.0675 14.1208C70.7566 14.1208 70.3284 14.1091 69.783 14.0827C69.8094 13.4492 69.824 12.7336 69.824 11.9359C69.824 11.1705 69.8094 10.5195 69.783 9.97986H70.3343C70.4252 9.97986 70.5601 9.97693 70.739 9.97106C70.9179 9.9652 71.0352 9.96227 71.088 9.96227C71.8446 9.96227 72.396 10.15 72.7362 10.5283C73.0793 10.9066 73.2494 11.3582 73.2494 11.889ZM72.3901 12.0239C72.3901 11.6192 72.2728 11.282 72.0382 11.0034C71.8036 10.7277 71.4428 10.5899 70.9619 10.5899C70.871 10.5899 70.7478 10.5987 70.5894 10.6192C70.61 11.0386 70.6217 11.4785 70.6217 11.9359C70.6217 12.4374 70.6334 12.936 70.654 13.4287C70.7918 13.4551 70.9267 13.4697 71.0645 13.4697C71.5162 13.4697 71.8505 13.329 72.0675 13.0504C72.2816 12.7688 72.3901 12.4286 72.3901 12.0239Z" fill="#FCFCFD"/>
<path d="M79.3083 14.0797H78.2994C78.2994 13.9419 78.2026 13.5489 78.012 12.9008H76.5574C76.3609 13.5372 76.2612 13.9302 76.2612 14.0797H75.314C75.314 13.9976 75.5603 13.326 76.0501 12.0621C76.5398 10.801 76.7862 10.106 76.7862 9.97693H77.9768C77.9768 10.0972 78.1997 10.7805 78.6425 12.0327C79.0854 13.285 79.3083 13.9683 79.3083 14.0797ZM77.8537 12.3025C77.4959 11.2174 77.314 10.6338 77.314 10.5459H77.2642C77.2642 10.628 77.0794 11.2145 76.707 12.3025H77.8537Z" fill="#FCFCFD"/>
<path d="M82.9828 11.0532C82.9828 11.5547 82.7951 11.9272 82.4226 12.1647C82.0502 12.4052 81.5927 12.5225 81.0502 12.5225C80.9504 12.5225 80.8801 12.5196 80.839 12.5166C80.839 12.9125 80.8507 13.4316 80.8742 14.0797H79.9885C80.0149 13.4727 80.0296 12.7571 80.0296 11.933C80.0296 11.1764 80.0149 10.5253 79.9885 9.97693H80.5369C80.6132 9.97693 80.7627 9.974 80.9856 9.96813C81.2056 9.96227 81.3962 9.95934 81.5604 9.95934C81.9593 9.95934 82.2965 10.0502 82.5722 10.2291C82.8449 10.411 82.9828 10.6866 82.9828 11.0532ZM82.1704 11.2262C82.1704 10.7775 81.8713 10.5517 81.276 10.5517C81.1264 10.5517 80.968 10.5664 80.8038 10.5987C80.8273 10.9946 80.839 11.4462 80.839 11.9477C80.8918 11.9506 80.9534 11.9535 81.0208 11.9535C81.7862 11.9535 82.1704 11.7131 82.1704 11.2262Z" fill="#FCFCFD"/>
<path d="M86.7601 11.0532C86.7601 11.5547 86.5724 11.9272 86.2 12.1647C85.8275 12.4052 85.37 12.5225 84.8275 12.5225C84.7278 12.5225 84.6574 12.5196 84.6163 12.5166C84.6163 12.9125 84.6281 13.4316 84.6515 14.0797H83.7659C83.7923 13.4727 83.8069 12.7571 83.8069 11.933C83.8069 11.1764 83.7923 10.5253 83.7659 9.97693H84.3143C84.3905 9.97693 84.5401 9.974 84.763 9.96813C84.9829 9.96227 85.1735 9.95934 85.3378 9.95934C85.7366 9.95934 86.0739 10.0502 86.3495 10.2291C86.6252 10.411 86.7601 10.6866 86.7601 11.0532ZM85.9478 11.2262C85.9478 10.7775 85.6486 10.5517 85.0533 10.5517C84.9037 10.5517 84.7454 10.5664 84.5811 10.5987C84.6046 10.9946 84.6163 11.4462 84.6163 11.9477C84.6691 11.9506 84.7307 11.9535 84.7982 11.9535C85.5665 11.9535 85.9478 11.7131 85.9478 11.2262Z" fill="#FCFCFD"/>
<path d="M92.9391 11.9535C92.9391 12.5987 92.7426 13.1325 92.3467 13.5577C91.9508 13.983 91.464 14.1941 90.8804 14.1941C90.3261 14.1941 89.8628 14.0005 89.4874 13.6105C89.1149 13.2205 88.9272 12.7248 88.9272 12.1266C88.9272 11.4814 89.1237 10.9476 89.5196 10.5224C89.9155 10.0972 90.4024 9.88602 90.986 9.88602C91.5402 9.88602 92.0036 10.0796 92.379 10.4696C92.7514 10.8567 92.9391 11.3523 92.9391 11.9535ZM92.0681 12.0474C92.0681 11.6075 91.9567 11.2526 91.7309 10.9799C91.5051 10.7072 91.2294 10.5693 90.898 10.5693C90.5901 10.5693 90.332 10.7072 90.1179 10.9828C89.9038 11.2585 89.7953 11.6046 89.7953 12.0269C89.7953 12.4638 89.9068 12.8187 90.1355 13.0944C90.3613 13.3671 90.637 13.5049 90.9654 13.5049C91.2734 13.5049 91.5314 13.3671 91.7455 13.0914C91.9625 12.8099 92.0681 12.4638 92.0681 12.0474Z" fill="#FCFCFD"/>
<path d="M97.2092 14.0797H96.4321C96.4321 13.9947 96.1447 13.5401 95.5669 12.716C94.9628 11.848 94.6168 11.2556 94.5347 10.9359H94.4848C94.5376 11.3963 94.564 11.8128 94.564 12.1823C94.564 12.7014 94.5786 13.3319 94.608 14.0797H93.8337C93.866 13.4287 93.8807 12.7131 93.8807 11.933C93.8807 11.1676 93.866 10.5136 93.8337 9.97693H94.7693C94.7693 10.0884 95.0273 10.5312 95.5464 11.3084C96.0978 12.1324 96.4145 12.6926 96.4966 12.9888H96.5435C96.4937 12.5195 96.4673 12.1002 96.4673 11.7277C96.4673 11.1588 96.4526 10.5752 96.4233 9.97693H97.2122C97.1828 10.4989 97.1682 11.15 97.1682 11.933C97.1652 12.7248 97.1799 13.4404 97.2092 14.0797Z" fill="#FCFCFD"/>
</g>
<defs>
<linearGradient id="paint0_linear" x1="19.6289" y1="9.44641" x2="19.6289" y2="42.6743" gradientUnits="userSpaceOnUse">
<stop stop-color="#2079B0"/>
<stop offset="0.2863" stop-color="#4A93B8"/>
<stop offset="0.767" stop-color="#83BEBF"/>
<stop offset="1" stop-color="#97CFBF"/>
</linearGradient>
<linearGradient id="paint1_linear" x1="11.2512" y1="17.6931" x2="32.507" y2="17.6931" gradientUnits="userSpaceOnUse">
<stop stop-color="#5ABCAB"/>
<stop offset="1" stop-color="#E6E99A"/>
</linearGradient>
<linearGradient id="paint2_linear" x1="21.8789" y1="26.0606" x2="21.8789" y2="42.7952" gradientUnits="userSpaceOnUse">
<stop stop-color="#E53432"/>
<stop offset="0.1668" stop-color="#D73948"/>
<stop offset="0.5748" stop-color="#B33F72"/>
<stop offset="0.8619" stop-color="#9A4189"/>
<stop offset="1" stop-color="#904192"/>
</linearGradient>
<linearGradient id="paint3_linear" x1="34.1215" y1="21.5981" x2="34.1215" y2="30.5226" gradientUnits="userSpaceOnUse">
<stop stop-color="#F18779"/>
<stop offset="0.1194" stop-color="#F2917A"/>
<stop offset="0.7128" stop-color="#FABC77"/>
<stop offset="1" stop-color="#FDCB72"/>
</linearGradient>
<clipPath id="clip0">
<rect width="150" height="49.0664" fill="white"/>
</clipPath>
</defs>
</svg>
