<svg width="24" height="24" viewBox="0 0 24 24" fill="none" xmlns="http://www.w3.org/2000/svg">
<path d="M12.0024 5.84769C8.59712 5.84769 5.85044 8.59498 5.85044 12.001C5.85044 15.407 8.59712 18.1543 12.0024 18.1543C15.4076 18.1543 18.1543 15.407 18.1543 12.001C18.1543 8.59498 15.4071 5.84769 12.0024 5.84769ZM12.0024 16.0009C9.8018 16.0009 8.00281 14.2069 8.00281 12.0005C8.00281 9.79405 9.79645 8 12.0024 8C14.2083 8 16.0019 9.79405 16.0019 12.0005C16.0019 14.2069 14.2024 16.0009 12.0024 16.0009ZM19.8403 5.59599C19.8403 6.39393 19.1978 7.03122 18.4054 7.03122C17.6076 7.03122 16.9705 6.38858 16.9705 5.59599C16.9705 4.80339 17.613 4.16075 18.4054 4.16075C19.1978 4.16075 19.8403 4.80339 19.8403 5.59599ZM23.9148 7.05264C23.8238 5.13007 23.3848 3.42707 21.9766 2.02396C20.5738 0.620859 18.8712 0.18172 16.9491 0.0853234C14.968 -0.0271391 9.03027 -0.0271391 7.04923 0.0853234C5.13244 0.176364 3.42982 0.615504 2.02168 2.01861C0.613535 3.42171 0.179848 5.12471 0.0834735 7.04729C-0.0289638 9.02877 -0.0289638 14.9679 0.0834735 16.9493C0.174494 18.8719 0.613535 20.5749 2.02168 21.978C3.42982 23.3811 5.12709 23.8203 7.04923 23.9167C9.03027 24.0291 14.968 24.0291 16.9491 23.9167C18.8712 23.8256 20.5738 23.3865 21.9766 21.978C23.3794 20.5749 23.8184 18.8719 23.9148 16.9493C24.0273 14.9673 24.0273 9.03359 23.9148 7.05264ZM21.3555 19.0749C20.9379 20.1245 20.1294 20.9332 19.0747 21.3563C17.4952 21.9828 13.7473 21.8382 12.0018 21.8382C10.2564 21.8382 6.50311 21.9775 4.92898 21.3563C3.87957 20.9385 3.07109 20.1299 2.64811 19.0749C2.02168 17.4951 2.16624 13.7463 2.16624 12.0005C2.16624 10.2546 2.02703 6.5005 2.64811 4.92603C3.06574 3.87638 3.87422 3.06772 4.92898 2.64465C6.50846 2.01807 10.2564 2.16267 12.0018 2.16267C13.7473 2.16267 17.5005 2.02343 19.0747 2.64465C20.1241 3.06237 20.9326 3.87102 21.3555 4.92603C21.982 6.50586 21.8374 10.2546 21.8374 12.0005C21.8374 13.7463 21.982 17.5004 21.3555 19.0749Z" fill="white"/>
</svg>
