<svg width="22" height="16" viewBox="0 0 22 16" fill="none" xmlns="http://www.w3.org/2000/svg">
<path d="M19.7386 3.9873C19.7527 4.16237 19.7527 4.33744 19.7527 4.5125C19.7527 9.84994 15.2161 16 6.92398 16C4.36949 16 1.99633 15.3374 0 14.1874C0.363086 14.2247 0.711992 14.2374 1.08883 14.2374C3.19688 14.2374 5.13691 13.5998 6.68637 12.5125C4.70422 12.4748 3.04305 11.3124 2.4707 9.71258C2.75 9.7499 3.0293 9.77491 3.32234 9.77491C3.72711 9.77491 4.13188 9.72489 4.50871 9.63755C2.44277 9.26241 0.89332 7.63755 0.89332 5.67526V5.62524C1.49359 5.92536 2.19141 6.11274 2.93133 6.13775C1.71703 5.41285 0.92125 4.17545 0.92125 2.7753C0.92125 2.02539 1.14469 1.33782 1.53527 0.737976C3.75461 3.18815 7.09113 4.788 10.8324 4.96306C10.7628 4.66295 10.7207 4.35052 10.7207 4.03809C10.7207 1.81262 12.7308 0 15.2294 0C16.5275 0 17.7001 0.487495 18.5238 1.27511C19.5426 1.10004 20.5202 0.762601 21.3855 0.300115C21.0504 1.23778 20.3384 2.02501 19.4034 2.5252C20.3109 2.43786 21.19 2.21277 22 1.90035C21.386 2.69988 20.6181 3.41247 19.7386 3.9873Z" fill="white"/>
</svg>
