<svg width="150" height="50" viewBox="0 0 150 50" fill="none" xmlns="http://www.w3.org/2000/svg">
<g clip-path="url(#clip0)">
<path d="M150 42.4345C150 46.0975 147.033 49.0646 143.37 49.0646H6.63012C2.97004 49.0675 0 46.0975 0 42.4345V6.63012C0 2.97004 2.97004 0 6.63012 0H143.37C147.03 0 150 2.97004 150 6.63012V42.4345Z" fill="black"/>
<path d="M39.1164 32.4318C38.3229 34.1914 37.9434 34.9763 36.9198 36.5318C35.4937 38.7026 33.4811 41.4081 30.9912 41.4311C28.7774 41.4512 28.2081 39.9906 25.2035 40.0079C22.199 40.0251 21.5722 41.457 19.3583 41.4368C16.8685 41.4138 14.9622 38.9728 13.5361 36.7992C9.54543 30.7269 9.1314 23.5993 11.5897 19.8127C13.3378 17.1216 16.095 15.546 18.6884 15.546C21.3278 15.546 22.9897 16.9951 25.1719 16.9951C27.2909 16.9951 28.5819 15.546 31.6324 15.546C33.9412 15.546 36.385 16.8025 38.1274 18.9761C32.4202 22.1014 33.3489 30.2525 39.1164 32.4318Z" fill="white"/>
<path d="M29.3179 13.1165C30.4277 11.6933 31.2701 9.68067 30.9625 7.62781C29.1511 7.75144 27.0321 8.90438 25.7929 10.4081C24.6687 11.7738 23.7429 13.795 24.1023 15.7616C26.0833 15.8249 28.1304 14.6432 29.3179 13.1165Z" fill="white"/>
<path d="M51.27 19.7207L45.5542 36.5404H48.1706L49.8756 31.3766H55.4074L57.1612 36.5404H59.8495L54.1107 19.7207H51.27ZM52.6242 22.4866C52.8169 23.2371 53.0267 24.0162 53.2941 24.8586L54.8352 29.318H50.4535L51.9716 24.8299C52.2016 24.1025 52.4201 23.3176 52.6242 22.4866Z" fill="white"/>
<path d="M67.2473 24.0823C65.5136 24.0823 64.1249 24.7522 63.202 26.0231L63.1013 24.3497H60.7725L60.7868 24.5625C60.8558 25.6033 60.8846 26.7534 60.8846 28.398V41.3621H63.4291V35.3127C64.2198 36.2586 65.4791 36.8078 66.9081 36.8078C68.3945 36.8078 69.766 36.2241 70.7636 35.169C71.8792 33.9901 72.4657 32.2967 72.4657 30.2726C72.4657 28.4842 71.954 26.9374 70.9879 25.8017C70.042 24.6947 68.7136 24.0823 67.2473 24.0823ZM66.6148 26.1898C68.8833 26.1898 69.8982 28.2916 69.8982 30.3732C69.8982 33.0586 68.6015 34.7291 66.517 34.7291C65.0938 34.7291 63.8633 33.7601 63.5182 32.3686C63.4579 32.1529 63.4291 31.8683 63.4291 31.5434V29.4963C63.4291 29.3123 63.4694 29.0851 63.5096 28.8695C63.5211 28.8005 63.5355 28.7315 63.547 28.6625C63.9265 27.2048 65.1858 26.1898 66.6148 26.1898Z" fill="white"/>
<path d="M80.3524 24.0823C78.6186 24.0823 77.2299 24.7522 76.307 26.0231L76.2064 24.3497H73.8804L73.8919 24.5625C73.9609 25.6062 73.9896 26.7534 73.9896 28.398V41.3621H76.5341V35.3127C77.3248 36.2586 78.5841 36.8078 80.0131 36.8078C81.4996 36.8078 82.871 36.2241 83.8716 35.169C84.9842 33.9901 85.5737 32.2967 85.5737 30.2726C85.5737 28.4842 85.0619 26.9374 84.0929 25.8017C83.147 24.6947 81.8187 24.0823 80.3524 24.0823ZM79.7198 26.1898C81.9883 26.1898 83.0033 28.2916 83.0033 30.3732C83.0033 33.0586 81.7066 34.7291 79.6221 34.7291C78.1989 34.7291 76.9654 33.7601 76.6233 32.3686C76.5629 32.1529 76.5341 31.8683 76.5341 31.5434V29.4963C76.5341 29.3094 76.5744 29.0851 76.6147 28.8666C76.6262 28.7976 76.6405 28.7286 76.652 28.6625C77.0316 27.2048 78.2909 26.1898 79.7198 26.1898Z" fill="white"/>
<path d="M96.7723 26.8483C94.3974 25.9282 93.6355 25.2065 93.6355 23.8696C93.6355 22.7454 94.5297 21.6097 96.5279 21.6097C98.1754 21.6097 99.2306 22.1819 99.5152 22.3601L99.7309 22.4924L100.45 20.3676L100.309 20.2843C99.8833 20.0341 98.6671 19.4533 96.6027 19.4533C93.3566 19.4533 91.091 21.3682 91.091 24.1111C91.091 26.3221 92.5113 27.8689 95.559 28.9759C97.7183 29.7838 98.5233 30.609 98.5233 32.0264C98.5233 33.6308 97.2841 34.6256 95.2887 34.6256C93.9892 34.6256 92.6522 34.246 91.62 33.5848L91.3986 33.4439L90.7144 35.6175L90.8409 35.7009C91.8012 36.342 93.6096 36.8078 95.1421 36.8078C99.5152 36.8078 101.068 34.1397 101.068 31.8568C101.065 29.5049 99.82 28.0529 96.7723 26.8483Z" fill="white"/>
<path d="M105.645 21.4516L103.149 22.2365V24.3497H101.321V26.3825H103.149V32.6129C103.149 34.1195 103.437 35.1747 104.029 35.8417C104.598 36.4657 105.473 36.8078 106.49 36.8078C107.454 36.8078 108.135 36.618 108.457 36.503L108.601 36.4513L108.48 34.4128L108.236 34.4875C107.914 34.5853 107.583 34.6256 107.051 34.6256C106.065 34.6256 105.645 34.0016 105.645 32.5382V26.3853H108.716V24.3526H105.645V21.4516Z" fill="white"/>
<path d="M115.021 24.0823C111.461 24.0823 108.974 26.739 108.974 30.5428C108.974 34.2317 111.381 36.8107 114.828 36.8107H114.851C117.764 36.8107 120.898 34.7808 120.898 30.3243C120.898 28.513 120.337 26.9575 119.276 25.8218C118.209 24.6861 116.737 24.0823 115.021 24.0823ZM114.949 26.0921C117.238 26.0921 118.281 28.3232 118.281 30.3991C118.281 32.9493 116.858 34.8009 114.9 34.8009H114.874C112.945 34.8009 111.542 32.981 111.542 30.4709C111.545 28.2916 112.597 26.0921 114.949 26.0921Z" fill="white"/>
<path d="M128.692 24.2002L128.54 24.1628C128.316 24.1082 128.132 24.0823 127.907 24.0823C126.576 24.0823 125.38 24.8673 124.716 26.1323L124.641 24.3526H122.358L122.373 24.5654C122.442 25.5717 122.468 26.7045 122.468 28.2312L122.445 36.5462H124.989V30.0598C124.989 29.7062 125.012 29.3726 125.058 29.0736C125.346 27.5153 126.395 26.509 127.735 26.509C127.997 26.509 128.201 26.5291 128.419 26.5521L128.692 26.5808V24.2002Z" fill="white"/>
<path d="M134.414 24.0594C131.027 24.0594 128.661 26.7649 128.661 30.6435C128.661 34.3754 131.015 36.7877 134.658 36.7877C136.573 36.7877 137.907 36.3679 138.686 36.0143L138.839 35.9453L138.35 34.0477L138.137 34.1339C137.444 34.4157 136.521 34.7032 134.949 34.7032C133.842 34.7032 131.294 34.3381 131.136 31.0144L139.351 31.0402L139.385 30.8764C139.437 30.6176 139.463 30.2697 139.463 29.8154C139.463 27.1588 138.14 24.0594 134.414 24.0594ZM134.244 25.9943C135.021 25.9943 135.647 26.233 136.113 26.7074C136.846 27.452 136.973 28.5504 136.99 29.0765H131.185C131.424 27.6073 132.341 25.9943 134.244 25.9943Z" fill="white"/>
<path d="M45.5541 8.23159C46.2643 8.13671 47.0895 8.0677 47.9952 8.0677C49.6369 8.0677 50.8042 8.39835 51.5776 9.04813C52.3769 9.69792 52.8369 10.6295 52.8369 11.9175C52.8369 13.2171 52.3769 14.278 51.5632 15.0112C50.7237 15.7559 49.358 16.1584 47.6386 16.1584C46.8106 16.1584 46.1436 16.1354 45.5513 16.0635V8.23159H45.5541ZM46.71 15.2844C46.9975 15.3304 47.4172 15.3304 47.8658 15.3304C50.3068 15.3419 51.6322 14.1027 51.6322 11.952C51.6466 10.0516 50.4649 8.88137 48.0498 8.88137C47.4604 8.88137 47.0119 8.93025 46.71 8.98775V15.2844Z" fill="white"/>
<path d="M56.9313 16.2159C55.2234 16.2159 53.8865 15.0831 53.8865 13.2746C53.8865 11.3598 55.2896 10.2384 57.0348 10.2384C58.8605 10.2384 60.0939 11.4316 60.0939 13.1682C60.0939 15.293 58.4522 16.2159 56.9456 16.2159H56.9313ZM56.9715 15.4367C58.0727 15.4367 58.9008 14.5023 58.9008 13.2056C58.9008 12.2367 58.3631 11.0205 56.9974 11.0205C55.6461 11.0205 55.0538 12.1533 55.0538 13.2401C55.0538 14.4908 55.8416 15.4367 56.9571 15.4367H56.9715Z" fill="white"/>
<path d="M61.9225 10.3707L62.7764 13.266C62.946 13.9043 63.1185 14.5052 63.2364 15.0975H63.2767C63.4204 14.5196 63.6303 13.9043 63.8402 13.2775L64.8781 10.3707H65.8499L66.8332 13.2286C67.069 13.9014 67.253 14.5167 67.3968 15.0946H67.437C67.5434 14.5167 67.713 13.9129 67.9229 13.2401L68.8286 10.3707H69.97L67.9229 16.0865H66.8735L65.9017 13.358C65.6774 12.7082 65.4934 12.1418 65.3382 11.469H65.3123C65.1541 12.1533 64.9586 12.7571 64.7344 13.3695L63.7108 16.0865H62.6614L60.7437 10.3707H61.9225Z" fill="white"/>
<path d="M71.123 11.9175C71.123 11.3138 71.1087 10.8422 71.0713 10.3707H72.0948L72.161 11.3051H72.1869C72.5031 10.7732 73.2363 10.2413 74.2857 10.2413C75.1655 10.2413 76.5312 10.7128 76.5312 12.6737V16.0865H75.3783V12.7916C75.3783 11.8715 74.9959 11.0924 73.9091 11.0924C73.1615 11.0924 72.5692 11.5754 72.3594 12.1562C72.3076 12.2856 72.2817 12.4753 72.2817 12.6392V16.0894H71.1259V11.9175H71.123Z" fill="white"/>
<path d="M78.4058 7.69968H79.5616V16.0865H78.4058V7.69968Z" fill="white"/>
<path d="M84.0641 16.2159C82.3591 16.2159 81.0193 15.0831 81.0193 13.2746C81.0193 11.3598 82.4224 10.2384 84.1705 10.2384C85.9933 10.2384 87.2268 11.4316 87.2268 13.1682C87.2268 15.293 85.585 16.2159 84.0756 16.2159H84.0641ZM84.1043 15.4367C85.2055 15.4367 86.0336 14.5023 86.0336 13.2056C86.0336 12.2367 85.4959 11.0205 84.1302 11.0205C82.7789 11.0205 82.1866 12.1533 82.1866 13.2401C82.1866 14.4908 82.9744 15.4367 84.09 15.4367H84.1043Z" fill="white"/>
<path d="M93.161 14.7151C93.161 15.2096 93.1869 15.6955 93.253 16.0836H92.2151L92.1087 15.3649H92.0713C91.7292 15.8134 91.0334 16.2159 90.1277 16.2159C88.8425 16.2159 88.1841 15.4022 88.1841 14.5742C88.1841 13.1912 89.5498 12.4351 92.0023 12.4494V12.3316C92.0023 11.86 91.8585 10.9975 90.559 11.009C89.9552 11.009 89.337 11.1614 88.8914 11.4345L88.6297 10.7387C89.1559 10.4426 89.9293 10.2413 90.7286 10.2413C92.6837 10.2413 93.1552 11.4345 93.1552 12.5788V14.7151H93.161ZM92.031 13.1682C90.7717 13.1452 89.3399 13.3465 89.3399 14.4563C89.3399 15.1406 89.8373 15.4482 90.4152 15.4482C91.2548 15.4482 91.7924 14.9767 91.9764 14.4908C92.0167 14.3844 92.0282 14.2665 92.0282 14.1602V13.1682H92.031Z" fill="white"/>
<path d="M100.496 7.69968V14.6087C100.496 15.1176 100.51 15.6955 100.547 16.0865H99.5095L99.4578 15.0946H99.4319C99.0782 15.7329 98.3163 16.2159 97.2784 16.2159C95.7431 16.2159 94.547 15.0457 94.547 13.3091C94.5326 11.3943 95.8609 10.2384 97.3963 10.2384C98.3825 10.2384 99.038 10.6525 99.314 11.101H99.3399V7.69968H100.496ZM99.3428 12.6967C99.3428 12.5558 99.3313 12.3891 99.291 12.2482C99.1214 11.5984 98.4917 11.055 97.6234 11.055C96.4302 11.055 95.7201 12.0009 95.7201 13.2516C95.7201 14.4218 96.3641 15.3764 97.5975 15.3764C98.371 15.3764 99.0811 14.9048 99.291 14.1372C99.3313 13.9963 99.3428 13.8525 99.3428 13.6886V12.6967Z" fill="white"/>
<path d="M107.781 16.2159C106.076 16.2159 104.737 15.0831 104.737 13.2746C104.737 11.3598 106.143 10.2384 107.888 10.2384C109.713 10.2384 110.947 11.4316 110.947 13.1682C110.947 15.293 109.305 16.2159 107.799 16.2159H107.781ZM107.822 15.4367C108.923 15.4367 109.751 14.5023 109.751 13.2056C109.751 12.2367 109.213 11.0205 107.847 11.0205C106.496 11.0205 105.904 12.1533 105.904 13.2401C105.904 14.4908 106.692 15.4367 107.807 15.4367H107.822Z" fill="white"/>
<path d="M112.402 11.9175C112.402 11.3138 112.387 10.8422 112.35 10.3707H113.373L113.44 11.3051H113.465C113.782 10.7732 114.515 10.2413 115.564 10.2413C116.444 10.2413 117.81 10.7128 117.81 12.6737V16.0865H116.654V12.7916C116.654 11.8715 116.274 11.0924 115.185 11.0924C114.437 11.0924 113.845 11.5754 113.635 12.1562C113.583 12.2856 113.557 12.4753 113.557 12.6392V16.0894H112.402V11.9175Z" fill="white"/>
<path d="M123.859 8.99924V10.3678H125.512V11.1585H123.859V14.2407C123.859 14.9479 124.083 15.3505 124.725 15.3505C125.038 15.3505 125.222 15.3275 125.394 15.2786L125.446 16.0693C125.222 16.1411 124.868 16.2101 124.423 16.2101C123.885 16.2101 123.451 16.0434 123.175 15.7731C122.859 15.454 122.729 14.9451 122.729 14.2723V11.1614H121.746V10.3707H122.729V9.31838L123.859 8.99924Z" fill="white"/>
<path d="M126.812 7.69968H127.968V11.2677H127.994C128.178 10.9716 128.465 10.7013 128.822 10.5346C129.164 10.3448 129.569 10.2384 130.003 10.2384C130.854 10.2384 132.22 10.71 132.22 12.6823V16.0836H131.064V12.8031C131.064 11.8687 130.685 11.101 129.595 11.101C128.848 11.101 128.27 11.5725 128.045 12.1418C127.979 12.2827 127.965 12.4379 127.965 12.6392V16.0894H126.809V7.69968H126.812Z" fill="white"/>
<path d="M134.753 13.404C134.779 14.8099 135.765 15.3879 136.918 15.3879C137.746 15.3879 138.258 15.2585 138.678 15.1032L138.888 15.8364C138.479 16.0031 137.772 16.2015 136.76 16.2015C134.816 16.2015 133.635 15.0313 133.635 13.3206C133.635 11.584 134.776 10.2269 136.628 10.2269C138.701 10.2269 139.238 11.8687 139.238 12.921C139.238 13.1337 139.227 13.2976 139.201 13.4155L134.753 13.404ZM138.129 12.6622C138.14 12.0124 137.827 10.9716 136.539 10.9716C135.357 10.9716 134.86 11.9405 134.768 12.6622H138.129Z" fill="white"/>
</g>
<defs>
<clipPath id="clip0">
<rect width="150" height="49.0675" fill="white"/>
</clipPath>
</defs>
</svg>
