<svg width="50" height="70" viewBox="0 0 50 70" fill="none" xmlns="http://www.w3.org/2000/svg">
<path d="M38.0952 19.3103V21.7241H27.381V19.3103H38.0952ZM12.2976 57.931L3.57143 51.2931V45.8862L19.1071 57.931H12.2976ZM13.869 12.069L25 21.0966V26.4672L7 12.069H13.869ZM25 43.3517L3.57143 25.9724V20.6138L25 37.9931V43.3517ZM25 29.5569V34.9035L3.57143 17.5241V12.4069L25 29.5569ZM3.57143 29.0621L25 46.4414V51.8L3.57143 34.4207V29.0621ZM27.381 24.1379H38.0952V45.8621H27.381V24.1379ZM25 18.0069L17.6786 12.069H25V18.0069ZM3.57143 3.62069C3.57143 1.62931 5.17857 0 7.14286 0H21.4286C23.3929 0 25 1.62931 25 3.62069V4.82759H3.57143V3.62069ZM0 7.24138H28.5714V9.65517H0V7.24138ZM3.57143 54.3103L8.33333 57.931H3.57143V54.3103ZM25 66.3793C25 68.3707 23.3929 70 21.4286 70H7.14286C5.17857 70 3.57143 68.3707 3.57143 66.3793V65.1724H25V66.3793ZM28.5714 62.7586H0V60.3448H28.5714V62.7586ZM23.0238 57.931L3.57143 42.8569V37.5224L25 54.9017V57.931H23.0238ZM27.381 50.6897V48.2759H38.0952V50.6897H27.381ZM40.4762 61.5517V8.44828C40.4762 7.78448 41.0119 7.24138 41.6667 7.24138H44.0476V62.7586H41.6667C41.0119 62.7586 40.4762 62.2155 40.4762 61.5517ZM50 61.5517C50 62.2155 49.4643 62.7586 48.8095 62.7586H46.4286V7.24138H48.8095C49.4643 7.24138 50 7.78448 50 8.44828V61.5517Z" fill="white"/>
<path d="M39.5238 19.3103V21.7241H28.8095V19.3103H39.5238ZM15.2976 12.069L26.4286 21.0966V26.4672L8.42857 12.069H15.2976ZM26.4286 43.3517L5 25.9724V20.6138L26.4286 37.9931V43.3517ZM26.4286 18.0069L19.1071 12.069H26.4286V18.0069ZM5 54.3104L9.7619 57.931H5V54.3104ZM24.4524 57.931L5 42.8569V37.5224L26.4286 54.9017V57.931H24.4524ZM28.8095 50.6897V48.2759H39.5238V50.6897H28.8095Z" fill="#DAAD50"/>
</svg>
