<svg width="53" height="70" viewBox="0 0 53 70" fill="none" xmlns="http://www.w3.org/2000/svg">
<g clip-path="url(#clip0)">
<path d="M37.3409 27.7586V17.3914L34.6547 14.7C29.1259 16.9569 23.3079 18.1035 17.3213 18.1035H15.6591V27.7586C15.6591 33.7448 20.5254 38.6207 26.5 38.6207C32.4745 38.6207 37.3409 33.7448 37.3409 27.7586ZM19.2727 24.1379C19.2727 23.4742 19.8147 22.931 20.4772 22.931C21.1397 22.931 21.6818 23.4742 21.6818 24.1379C21.6818 24.8017 21.1397 25.3448 20.4772 25.3448C19.8147 25.3448 19.2727 24.8017 19.2727 24.1379ZM32.5227 35H20.4772V31.3793C20.4772 29.3879 22.1034 27.7586 24.0909 27.7586H28.9091C30.8966 27.7586 32.5227 29.3879 32.5227 31.3793V35ZM32.5227 25.3448C31.8602 25.3448 31.3181 24.8017 31.3181 24.1379C31.3181 23.4742 31.8602 22.931 32.5227 22.931C33.1852 22.931 33.7272 23.4742 33.7272 24.1379C33.7272 24.8017 33.1852 25.3448 32.5227 25.3448Z" fill="white"/>
<path d="M21.6818 40.1172V41.6621L26.4999 45.5241L31.3181 41.6621V40.1172C29.8245 40.6966 28.1984 41.0345 26.4999 41.0345C24.8015 41.0345 23.1754 40.6966 21.6818 40.1172Z" fill="white"/>
<path d="M10.8409 25.3449C10.8409 26.938 11.8769 28.2776 13.2982 28.7604C13.2741 28.4345 13.25 28.0966 13.25 27.7586V21.9414C11.8528 22.4483 10.8409 23.7759 10.8409 25.3449Z" fill="white"/>
<path d="M12.0454 19.6121V19.8293C12.4309 19.6603 12.8284 19.5276 13.25 19.4431V15.6897H17.3214C23.2477 15.6897 29.0054 14.5069 34.45 12.1655L35.1968 11.8397L39.75 16.4017V19.431C40.292 19.5397 40.7979 19.7448 41.2798 19.9983C41.8579 17.0655 42.1591 14.0603 42.1591 11.0552C42.1591 9.2931 41.0389 7.73621 39.3645 7.18103L38.967 7.04828L37.2325 4.44138C35.3895 1.66552 32.2939 0 28.9573 0C22.8623 0 16.9479 1.78621 11.8768 5.17759C10.4795 6.11897 9.63635 7.68793 9.63635 9.38966C9.63635 10.1741 9.81703 10.9466 10.1664 11.6466C11.395 14.1086 12.0454 16.8603 12.0454 19.6121Z" fill="white"/>
<path d="M28.9091 30.1724H24.0909C23.4284 30.1724 22.8864 30.7155 22.8864 31.3793V32.5862H30.1136V31.3793C30.1136 30.7155 29.5716 30.1724 28.9091 30.1724Z" fill="white"/>
<path d="M10.8409 66.3793H2.40906V70H10.8409V66.3793Z" fill="white"/>
<path d="M39.75 21.9414V27.7586C39.75 28.0966 39.7259 28.4224 39.7018 28.7604C41.1231 28.2776 42.1591 26.938 42.1591 25.3449C42.1591 23.7759 41.1472 22.4483 39.75 21.9414Z" fill="white"/>
<path d="M42.1591 59.138H50.5909V53.5983C50.5909 50.9431 48.8925 48.6259 46.3629 47.8414L32.7756 43.5811L26.5 48.6138L20.2243 43.5811L6.63701 47.8414C4.10747 48.6259 2.40906 50.9431 2.40906 53.5983V59.138H10.8409V53.1035H13.25V70H15.6591V57.9311H37.3409V70H39.75V53.1035H42.1591V59.138Z" fill="white"/>
<path d="M53 61.5518H42.1591V63.9655H53V61.5518Z" fill="white"/>
<path d="M34.9318 60.3448H32.5227V70H34.9318V60.3448Z" fill="white"/>
<path d="M10.8409 61.5518H0V63.9655H10.8409V61.5518Z" fill="white"/>
<path d="M25.2954 60.3448H22.8864V70H25.2954V60.3448Z" fill="white"/>
<path d="M20.4773 60.3448H18.0682V70H20.4773V60.3448Z" fill="white"/>
<path d="M50.5909 66.3793H42.1591V70H50.5909V66.3793Z" fill="white"/>
<path d="M30.1137 60.3448H27.7046V70H30.1137V60.3448Z" fill="white"/>
<path d="M11.0454 19.6121V19.8293C11.4309 19.6603 11.8284 19.5276 12.25 19.4431V15.6897H16.3214C22.2477 15.6897 28.0054 14.5069 33.45 12.1655L34.1968 11.8397L38.75 16.4017V19.431C39.292 19.5397 39.7979 19.7448 40.2798 19.9983C40.8579 17.0655 41.1591 14.0603 41.1591 11.0552C41.1591 9.2931 40.0389 7.73621 38.3645 7.18103L37.967 7.04828L36.2325 4.44138C34.3895 1.66552 31.2939 0 27.9573 0C21.8623 0 15.9479 1.78621 10.8768 5.17759C9.47953 6.11897 8.63635 7.68793 8.63635 9.38966C8.63635 10.1741 8.81703 10.9466 9.16635 11.6466C10.395 14.1086 11.0454 16.8603 11.0454 19.6121Z" fill="#DAAD50"/>
<path d="M52 61.5518H41.1591V63.9655H52V61.5518Z" fill="#DAAD50"/>
<path d="M33.9318 60.3448H31.5227V70H33.9318V60.3448Z" fill="#DAAD50"/>
<path d="M9.84091 61.5518H-1V63.9655H9.84091V61.5518Z" fill="#DAAD50"/>
<path d="M24.2954 60.3448H21.8864V70H24.2954V60.3448Z" fill="#DAAD50"/>
<path d="M19.4773 60.3448H17.0682V70H19.4773V60.3448Z" fill="#DAAD50"/>
<path d="M29.1137 60.3448H26.7046V70H29.1137V60.3448Z" fill="#DAAD50"/>
</g>
<defs>
<clipPath id="clip0">
<rect width="53" height="70" fill="white"/>
</clipPath>
</defs>
</svg>
