<svg width="65" height="61" viewBox="0 0 65 61" fill="none" xmlns="http://www.w3.org/2000/svg">
<g clip-path="url(#clip0)">
<path d="M11.565 0C11.0343 0 10.6018 0.430496 10.6018 0.95231V3.17002H4.65222C2.09022 3.17002 0 5.24423 0 7.80111V49.357C0 52.3314 2.43095 54.7578 5.4254 54.7578H45.1265C46.7122 58.4301 50.3816 61 54.6472 61C60.3609 61 65.0066 56.3754 65.0066 50.6877C65.0066 46.3762 62.3332 42.6713 58.5459 41.1385V7.80111C58.5459 5.25075 56.4622 3.17002 53.8937 3.17002H47.9375V0.95231C47.9375 0.430496 47.505 0 46.9743 0C46.4436 0 46.0111 0.430496 46.0111 0.95231V3.17002H36.13V0.95231C36.13 0.423974 35.6976 0 35.1668 0C34.6361 0 34.2102 0.430496 34.2102 0.95231V3.17002H24.3291V0.95231C24.3291 0.423974 23.8967 0 23.3659 0C22.8352 0 22.4093 0.430496 22.4093 0.95231V3.17002H12.5282V0.95231C12.5282 0.430496 12.0958 0 11.565 0ZM4.64567 5.08116H10.6018V6.52919C8.82611 6.95969 7.50252 8.55774 7.50252 10.4558C7.50252 12.6866 9.32409 14.4999 11.5585 14.4999C13.7928 14.4999 15.621 12.6866 15.621 10.4558C15.621 8.55774 14.2974 6.95969 12.5217 6.52919V5.08116H22.4093V6.52919C20.6336 6.95969 19.31 8.55774 19.31 10.4558C19.31 12.6866 21.1316 14.4999 23.3659 14.4999C25.6069 14.4999 27.4284 12.6866 27.4284 10.4558C27.4284 8.55774 26.1048 6.95969 24.3291 6.52919V5.08116H34.2102V6.52919C32.4345 6.95969 31.1109 8.55774 31.1109 10.4558C31.1109 12.6866 32.9325 14.4999 35.1668 14.4999C37.4078 14.4999 39.2293 12.6866 39.2293 10.4558C39.2293 8.55774 37.9057 6.95969 36.13 6.52919V5.08116H46.0111V6.52919C44.2354 6.95969 42.9118 8.55774 42.9118 10.4558C42.9118 12.6866 44.7334 14.4999 46.9743 14.4999C49.2152 14.4999 51.0302 12.6866 51.0302 10.4558C51.0302 8.55774 49.7067 6.95969 47.931 6.52919V5.08116H53.8871C55.3942 5.08116 56.6195 6.3009 56.6195 7.80111V15.5696H1.91986V7.80111C1.91986 6.3009 3.14516 5.08116 4.64567 5.08116ZM10.6084 8.55774V10.4558C10.6084 10.9842 11.0408 11.4147 11.5716 11.4147C12.1023 11.4147 12.5282 10.9842 12.5282 10.4558V8.55774C13.2293 8.90997 13.7077 9.62746 13.7077 10.4558C13.7077 11.6299 12.751 12.5822 11.5716 12.5822C10.3921 12.5822 9.42893 11.6299 9.42893 10.4558C9.42893 9.62746 9.90726 8.90344 10.6084 8.55774ZM22.4093 8.55774V10.4558C22.4093 10.9842 22.8417 11.4147 23.3659 11.4147C23.8967 11.4147 24.3226 10.9842 24.3226 10.4558V8.55774C25.0237 8.90997 25.502 9.62746 25.502 10.4558C25.502 11.6299 24.5454 12.5822 23.3659 12.5822C22.1865 12.5822 21.2233 11.6299 21.2233 10.4558C21.2298 9.62746 21.7147 8.90344 22.4093 8.55774ZM34.2167 8.55774V10.4558C34.2167 10.9842 34.6492 11.4147 35.1734 11.4147C35.7041 11.4147 36.1366 10.9842 36.1366 10.4558V8.55774C36.8377 8.90997 37.316 9.62746 37.316 10.4558C37.316 11.6299 36.3594 12.5822 35.1799 12.5822C34.0005 12.5822 33.0373 11.6299 33.0373 10.4558C33.0307 9.62746 33.5156 8.90344 34.2167 8.55774ZM46.0176 8.55774V10.4558C46.0176 10.9842 46.4501 11.4147 46.9808 11.4147C47.5116 11.4147 47.9375 10.9842 47.9375 10.4558V8.55774C48.6386 8.90997 49.1169 9.62746 49.1169 10.4558C49.1169 11.6299 48.1537 12.5822 46.9808 12.5822C45.8014 12.5822 44.8382 11.6299 44.8382 10.4558C44.8382 9.62746 45.3165 8.90344 46.0176 8.55774ZM9.38962 20.9247H11.6109C13.0524 20.9247 14.2319 22.0923 14.2319 23.5273V25.7385C14.2319 27.1734 13.059 28.341 11.6109 28.341H9.38962C7.94808 28.341 6.7752 27.1734 6.7752 25.7385V23.5273C6.7752 22.0988 7.94808 20.9247 9.38962 20.9247ZM18.7727 20.9247H20.994C22.4355 20.9247 23.6084 22.0923 23.6084 23.5273V25.7385C23.6084 27.1734 22.4355 28.341 20.994 28.341H18.7727C17.3312 28.341 16.1583 27.1734 16.1583 25.7385V23.5273C16.1583 22.0988 17.3312 20.9247 18.7727 20.9247ZM28.1623 20.9247H30.3836C31.8251 20.9247 32.998 22.0923 32.998 23.5273V25.7385C32.998 27.1734 31.8251 28.341 30.3836 28.341H28.1623C26.7208 28.341 25.5479 27.1734 25.5479 25.7385V23.5273C25.5479 22.0988 26.7208 20.9247 28.1623 20.9247ZM37.5454 20.9247H39.7666C41.2082 20.9247 42.3811 22.0923 42.3811 23.5273V25.7385C42.3811 27.1734 41.2082 28.341 39.7666 28.341H37.5454C36.1038 28.341 34.9244 27.1734 34.9244 25.7385V23.5273C34.931 22.0988 36.1038 20.9247 37.5454 20.9247ZM46.9284 20.9247H49.1497C50.5912 20.9247 51.7641 22.0923 51.7641 23.5273V25.7385C51.7641 27.1734 50.5912 28.341 49.1497 28.341H46.9284C45.4869 28.341 44.314 27.1734 44.314 25.7385V23.5273C44.314 22.0988 45.4869 20.9247 46.9284 20.9247ZM9.38962 22.8359C9.00303 22.8359 8.69506 23.149 8.69506 23.5273V25.7385C8.69506 26.1233 9.00958 26.4299 9.38962 26.4299H11.6109C11.9975 26.4299 12.312 26.1168 12.312 25.7385V23.5273C12.312 23.1424 11.9975 22.8359 11.6109 22.8359H9.38962ZM18.7727 22.8359C18.3861 22.8359 18.0781 23.149 18.0781 23.5273V25.7385C18.0781 26.1233 18.3926 26.4299 18.7727 26.4299H20.994C21.3805 26.4299 21.6885 26.1168 21.6885 25.7385V23.5273C21.6885 23.1424 21.374 22.8359 20.994 22.8359C21.0005 22.8359 18.7727 22.8359 18.7727 22.8359ZM28.1623 22.8359C27.7757 22.8359 27.4677 23.149 27.4677 23.5273V25.7385C27.4677 26.1233 27.7823 26.4299 28.1623 26.4299H30.3836C30.7702 26.4299 31.0781 26.1168 31.0781 25.7385V23.5273C31.0781 23.1424 30.7636 22.8359 30.3836 22.8359H28.1623ZM37.5454 22.8359C37.1588 22.8359 36.8508 23.149 36.8508 23.5273V25.7385C36.8508 26.1233 37.1653 26.4299 37.5454 26.4299H39.7666C40.1532 26.4299 40.4612 26.1168 40.4612 25.7385V23.5273C40.4612 23.1424 40.1467 22.8359 39.7666 22.8359H37.5454ZM46.9284 22.8359C46.5418 22.8359 46.2339 23.149 46.2339 23.5273V25.7385C46.2339 26.1233 46.5484 26.4299 46.9284 26.4299H49.1497C49.5363 26.4299 49.8443 26.1168 49.8443 25.7385V23.5273C49.8443 23.1424 49.5297 22.8359 49.1497 22.8359H46.9284ZM9.38962 30.3565H11.6109C13.0524 30.3565 14.2319 31.5241 14.2319 32.959V35.1702C14.2319 36.6052 13.059 37.7728 11.6109 37.7728H9.38962C7.94808 37.7728 6.7752 36.6052 6.7752 35.1702V32.959C6.7752 31.5241 7.94808 30.3565 9.38962 30.3565ZM18.7727 30.3565H20.994C22.4355 30.3565 23.6084 31.5241 23.6084 32.959V35.1702C23.6084 36.6052 22.4355 37.7728 20.994 37.7728H18.7727C17.3312 37.7728 16.1583 36.6052 16.1583 35.1702V32.959C16.1583 31.5241 17.3312 30.3565 18.7727 30.3565ZM28.1623 30.3565H30.3836C31.8251 30.3565 32.998 31.5241 32.998 32.959V35.1702C32.998 36.6052 31.8251 37.7728 30.3836 37.7728H28.1623C26.7208 37.7728 25.5479 36.6052 25.5479 35.1702V32.959C25.5479 31.5241 26.7208 30.3565 28.1623 30.3565ZM37.5454 30.3565H39.7666C41.2082 30.3565 42.3811 31.5241 42.3811 32.959V35.1702C42.3811 36.6052 41.2082 37.7728 39.7666 37.7728H37.5454C36.1038 37.7728 34.9244 36.6052 34.9244 35.1702V32.959C34.931 31.5241 36.1038 30.3565 37.5454 30.3565ZM46.9284 30.3565H49.1497C50.5912 30.3565 51.7641 31.5241 51.7641 32.959V35.1702C51.7641 36.6052 50.5912 37.7728 49.1497 37.7728H46.9284C45.4869 37.7728 44.314 36.6052 44.314 35.1702V32.959C44.314 31.5241 45.4869 30.3565 46.9284 30.3565ZM9.38962 32.2676C9.00303 32.2676 8.69506 32.5807 8.69506 32.959V35.1702C8.69506 35.5551 9.00958 35.8616 9.38962 35.8616H11.6109C11.9975 35.8616 12.312 35.5485 12.312 35.1702V32.959C12.312 32.5742 11.9975 32.2676 11.6109 32.2676H9.38962ZM18.7727 32.2676C18.3861 32.2676 18.0781 32.5807 18.0781 32.959V35.1702C18.0781 35.5551 18.3926 35.8616 18.7727 35.8616H20.994C21.3805 35.8616 21.6885 35.5485 21.6885 35.1702V32.959C21.6885 32.5742 21.374 32.2676 20.994 32.2676C21.0005 32.2676 18.7727 32.2676 18.7727 32.2676ZM28.1623 32.2676C27.7757 32.2676 27.4677 32.5807 27.4677 32.959V35.1702C27.4677 35.5551 27.7823 35.8616 28.1623 35.8616H30.3836C30.7702 35.8616 31.0781 35.5485 31.0781 35.1702V32.959C31.0781 32.5742 30.7636 32.2676 30.3836 32.2676H28.1623ZM37.5454 32.2676C37.1588 32.2676 36.8508 32.5807 36.8508 32.959V35.1702C36.8508 35.5551 37.1653 35.8616 37.5454 35.8616H39.7666C40.1532 35.8616 40.4612 35.5485 40.4612 35.1702V32.959C40.4612 32.5742 40.1467 32.2676 39.7666 32.2676H37.5454ZM46.9284 32.2676C46.5418 32.2676 46.2339 32.5807 46.2339 32.959V35.1702C46.2339 35.5551 46.5484 35.8616 46.9284 35.8616H49.1497C49.5363 35.8616 49.8443 35.5485 49.8443 35.1702V32.959C49.8443 32.5742 49.5297 32.2676 49.1497 32.2676H46.9284ZM9.38962 39.7883H11.6109C13.0524 39.7883 14.2319 40.9558 14.2319 42.3908V44.602C14.2319 46.037 13.059 47.2046 11.6109 47.2046H9.38962C7.94808 47.2046 6.7752 46.037 6.7752 44.602V42.3908C6.7752 40.9558 7.94808 39.7883 9.38962 39.7883ZM18.7727 39.7883H20.994C22.4355 39.7883 23.6084 40.9558 23.6084 42.3908V44.602C23.6084 46.037 22.4355 47.2046 20.994 47.2046H18.7727C17.3312 47.2046 16.1583 46.037 16.1583 44.602V42.3908C16.1583 40.9558 17.3312 39.7883 18.7727 39.7883ZM28.1623 39.7883H30.3836C31.8251 39.7883 32.998 40.9558 32.998 42.3908V44.602C32.998 46.037 31.8251 47.2046 30.3836 47.2046H28.1623C26.7208 47.2046 25.5479 46.037 25.5479 44.602V42.3908C25.5479 40.9558 26.7208 39.7883 28.1623 39.7883ZM37.4929 39.7883H39.7142C41.1557 39.7883 42.3286 40.9558 42.3286 42.3908V44.602C42.3286 46.037 41.1557 47.2046 39.7142 47.2046H37.4929C36.0514 47.2046 34.8785 46.037 34.8785 44.602V42.3908C34.872 40.9558 36.0449 39.7883 37.4929 39.7883ZM9.38962 41.6994C9.00303 41.6994 8.69506 42.0125 8.69506 42.3908V44.602C8.69506 44.9868 9.00958 45.2934 9.38962 45.2934H11.6109C11.9975 45.2934 12.312 44.9803 12.312 44.602V42.3908C12.312 42.006 11.9975 41.6994 11.6109 41.6994H9.38962ZM18.7727 41.6994C18.3861 41.6994 18.0781 42.0125 18.0781 42.3908V44.602C18.0781 44.9868 18.3926 45.2934 18.7727 45.2934H20.994C21.3805 45.2934 21.6885 44.9803 21.6885 44.602V42.3908C21.6885 42.006 21.374 41.6994 20.994 41.6994H18.7727ZM28.1623 41.6994C27.7757 41.6994 27.4677 42.0125 27.4677 42.3908V44.602C27.4677 44.9868 27.7823 45.2934 28.1623 45.2934H30.3836C30.7702 45.2934 31.0781 44.9803 31.0781 44.602V42.3908C31.0781 42.006 30.7636 41.6994 30.3836 41.6994H28.1623ZM37.4929 41.6994C37.1064 41.6994 36.7984 42.0125 36.7984 42.3908V44.602C36.7984 44.9868 37.1129 45.2934 37.4929 45.2934H39.7142C40.1008 45.2934 40.4088 44.9803 40.4088 44.602V42.3908C40.4088 42.006 40.0943 41.6994 39.7142 41.6994H37.4929ZM54.6406 42.2865C59.2928 42.2865 63.0801 46.0566 63.0801 50.6877C63.0801 55.3188 59.2928 59.0889 54.6406 59.0889C49.9884 59.0889 46.2011 55.3188 46.2011 50.6877C46.2011 49.0439 46.6794 47.4524 47.5771 46.0892C47.623 46.024 47.6557 45.9718 47.7278 45.8805C48.4158 44.9281 49.1825 44.2563 50.0736 43.6171C50.1064 43.604 50.1326 43.5845 50.1588 43.5714C51.502 42.73 53.0484 42.2865 54.6406 42.2865ZM54.6406 44.0737C54.1099 44.0737 53.684 44.5042 53.684 45.026V50.6616C53.684 51.1899 54.1164 51.6204 54.6406 51.6204H60.3216C60.8523 51.6204 61.2782 51.1899 61.2782 50.6616C61.2782 50.1332 60.8458 49.7093 60.3216 49.7093H55.5973V45.026C55.6038 44.4977 55.1714 44.0737 54.6406 44.0737Z" fill="white"/>
<path d="M10.6946 23C10.308 23 10 23.3131 10 23.6914V25.9026C10 26.2874 10.3145 26.594 10.6946 26.594H12.9158C13.3024 26.594 13.6169 26.2809 13.6169 25.9026V23.6914C13.6169 23.3066 13.3024 23 12.9158 23H10.6946ZM20.0776 23C19.691 23 19.3831 23.3131 19.3831 23.6914V25.9026C19.3831 26.2874 19.6976 26.594 20.0776 26.594H22.2989C22.6855 26.594 22.9934 26.2809 22.9934 25.9026V23.6914C22.9934 23.3066 22.6789 23 22.2989 23C22.3054 23 20.0776 23 20.0776 23ZM29.4672 23C29.0806 23 28.7727 23.3131 28.7727 23.6914V25.9026C28.7727 26.2874 29.0872 26.594 29.4672 26.594H31.6885C32.0751 26.594 32.3831 26.2809 32.3831 25.9026V23.6914C32.3831 23.3066 32.0686 23 31.6885 23H29.4672ZM38.8503 23C38.4637 23 38.1558 23.3131 38.1558 23.6914V25.9026C38.1558 26.2874 38.4703 26.594 38.8503 26.594H41.0716C41.4582 26.594 41.7661 26.2809 41.7661 25.9026V23.6914C41.7661 23.3066 41.4516 23 41.0716 23H38.8503ZM48.2334 23C47.8468 23 47.5388 23.3131 47.5388 23.6914V25.9026C47.5388 26.2874 47.8533 26.594 48.2334 26.594H50.4546C50.8412 26.594 51.1492 26.2809 51.1492 25.9026V23.6914C51.1492 23.3066 50.8347 23 50.4546 23H48.2334ZM10.6946 32.4318C10.308 32.4318 10 32.7449 10 33.1232V35.3344C10 35.7192 10.3145 36.0258 10.6946 36.0258H12.9158C13.3024 36.0258 13.6169 35.7127 13.6169 35.3344V33.1232C13.6169 32.7383 13.3024 32.4318 12.9158 32.4318H10.6946ZM20.0776 32.4318C19.691 32.4318 19.3831 32.7449 19.3831 33.1232V35.3344C19.3831 35.7192 19.6976 36.0258 20.0776 36.0258H22.2989C22.6855 36.0258 22.9934 35.7127 22.9934 35.3344V33.1232C22.9934 32.7383 22.6789 32.4318 22.2989 32.4318C22.3054 32.4318 20.0776 32.4318 20.0776 32.4318ZM29.4672 32.4318C29.0806 32.4318 28.7727 32.7449 28.7727 33.1232V35.3344C28.7727 35.7192 29.0872 36.0258 29.4672 36.0258H31.6885C32.0751 36.0258 32.3831 35.7127 32.3831 35.3344V33.1232C32.3831 32.7383 32.0686 32.4318 31.6885 32.4318H29.4672ZM38.8503 32.4318C38.4637 32.4318 38.1558 32.7449 38.1558 33.1232V35.3344C38.1558 35.7192 38.4703 36.0258 38.8503 36.0258H41.0716C41.4582 36.0258 41.7661 35.7127 41.7661 35.3344V33.1232C41.7661 32.7383 41.4516 32.4318 41.0716 32.4318H38.8503ZM48.2334 32.4318C47.8468 32.4318 47.5388 32.7449 47.5388 33.1232V35.3344C47.5388 35.7192 47.8533 36.0258 48.2334 36.0258H50.4546C50.8412 36.0258 51.1492 35.7127 51.1492 35.3344V33.1232C51.1492 32.7383 50.8347 32.4318 50.4546 32.4318H48.2334ZM10.6946 41.8636C10.308 41.8636 10 42.1766 10 42.555V44.7661C10 45.151 10.3145 45.4576 10.6946 45.4576H12.9158C13.3024 45.4576 13.6169 45.1445 13.6169 44.7661V42.555C13.6169 42.1701 13.3024 41.8636 12.9158 41.8636H10.6946ZM20.0776 41.8636C19.691 41.8636 19.3831 42.1766 19.3831 42.555V44.7661C19.3831 45.151 19.6976 45.4576 20.0776 45.4576H22.2989C22.6855 45.4576 22.9934 45.1445 22.9934 44.7661V42.555C22.9934 42.1701 22.6789 41.8636 22.2989 41.8636H20.0776ZM29.4672 41.8636C29.0806 41.8636 28.7727 42.1766 28.7727 42.555V44.7661C28.7727 45.151 29.0872 45.4576 29.4672 45.4576H31.6885C32.0751 45.4576 32.3831 45.1445 32.3831 44.7661V42.555C32.3831 42.1701 32.0686 41.8636 31.6885 41.8636H29.4672ZM38.7979 41.8636C38.4113 41.8636 38.1033 42.1766 38.1033 42.555V44.7661C38.1033 45.151 38.4178 45.4576 38.7979 45.4576H41.0192C41.4057 45.4576 41.7137 45.1445 41.7137 44.7661V42.555C41.7137 42.1701 41.3992 41.8636 41.0192 41.8636H38.7979ZM55.9456 44.2378C55.4148 44.2378 54.9889 44.6683 54.9889 45.1901V50.8257C54.9889 51.354 55.4214 51.7845 55.9456 51.7845H61.6265C62.1573 51.7845 62.5832 51.354 62.5832 50.8257C62.5832 50.2974 62.1507 49.8734 61.6265 49.8734H56.9022V45.1901C56.9088 44.6618 56.4763 44.2378 55.9456 44.2378Z" fill="#D9B465"/>
</g>
<defs>
<clipPath id="clip0">
<rect width="65" height="61" fill="white"/>
</clipPath>
</defs>
</svg>
