<svg width="186" height="235" viewBox="0 0 186 235" fill="none" xmlns="http://www.w3.org/2000/svg">
<path d="M184.5 234V235H185.5V234H184.5ZM2.4 234L1.68002 233.306L0.0471492 235H2.4V234ZM58.5 175.8L59.22 176.494L59.221 176.493L58.5 175.8ZM93.3 136.8L94.0838 137.421L94.0894 137.414L93.3 136.8ZM111.9 109.5L111.03 109.006L111.025 109.015L111.02 109.024L111.9 109.5ZM119.4 69.9L118.446 70.1983L118.454 70.2249L118.464 70.2511L119.4 69.9ZM114.6 61.5L113.837 62.1459L113.849 62.1611L113.863 62.1757L114.6 61.5ZM106.5 55.5L106.029 56.3823L106.064 56.4006L106.099 56.4162L106.5 55.5ZM76.8 60.9L76.051 60.2374L76.0437 60.2457L76.0366 60.2541L76.8 60.9ZM71.1 90V91H72.253L72.09 89.8586L71.1 90ZM6.9 90H5.9V91H6.9V90ZM13.2 54L12.2739 53.6227L12.2709 53.6301L12.268 53.6375L13.2 54ZM31.5 26.1L32.2071 26.8071L31.5 26.1ZM59.1 8.09999L58.7375 7.16797L58.7316 7.17031L59.1 8.09999ZM129.3 7.8L128.947 8.73562L128.953 8.73775L129.3 7.8ZM157.2 24.6L156.522 25.3348L157.2 24.6ZM175.5 50.4L174.585 50.8027L174.588 50.8096L175.5 50.4ZM174 117L173.109 116.546L173.106 116.553L174 117ZM148.8 149.1L149.483 149.83L149.488 149.826L148.8 149.1ZM111.3 184.2L110.617 183.47L108.768 185.2H111.3V184.2ZM184.5 184.2H185.5V183.2H184.5V184.2ZM184.5 233H2.4V235H184.5V233ZM3.11998 234.694L59.22 176.494L57.78 175.106L1.68002 233.306L3.11998 234.694ZM59.221 176.493C74.032 161.081 85.6561 148.056 94.0838 137.421L92.5163 136.179C84.1439 146.744 72.568 159.719 57.779 175.107L59.221 176.493ZM94.0894 137.414C102.505 126.594 108.742 117.445 112.78 109.976L111.02 109.024C107.058 116.355 100.895 125.406 92.5107 136.186L94.0894 137.414ZM112.77 109.994C116.986 102.565 119.645 96.4604 120.677 91.7124L118.723 91.2876C117.755 95.7396 115.214 101.635 111.03 109.006L112.77 109.994ZM120.677 91.7124C121.686 87.072 122.2 83.0963 122.2 79.8H120.2C120.2 82.9037 119.714 86.728 118.723 91.2876L120.677 91.7124ZM122.2 79.8C122.2 76.2794 121.578 72.8605 120.336 69.5489L118.464 70.2511C119.622 73.3394 120.2 76.5205 120.2 79.8H122.2ZM120.354 69.6017C119.312 66.2657 117.639 63.3359 115.337 60.8243L113.863 62.1757C115.961 64.4641 117.488 67.1342 118.446 70.1983L120.354 69.6017ZM115.363 60.854C113.062 58.1344 110.237 56.0434 106.901 54.5838L106.099 56.4162C109.163 57.7566 111.738 59.6655 113.837 62.1459L115.363 60.854ZM106.971 54.6176C103.796 52.9243 100.026 52.1 95.7 52.1V54.1C99.7739 54.1 103.204 54.8757 106.029 56.3823L106.971 54.6176ZM95.7 52.1C87.4618 52.1 80.8706 54.7892 76.051 60.2374L77.549 61.5626C81.9294 56.6108 87.9382 54.1 95.7 54.1V52.1ZM76.0366 60.2541C71.4619 65.6606 69.2 72.3998 69.2 80.4H71.2C71.2 72.8002 73.3381 66.5394 77.5634 61.5459L76.0366 60.2541ZM69.2 80.4C69.2 82.6726 69.5083 85.9291 70.1101 90.1414L72.09 89.8586C71.4917 85.6709 71.2 82.5273 71.2 80.4H69.2ZM71.1 89H6.9V91H71.1V89ZM7.9 90C7.9 76.9069 9.98275 65.032 14.132 54.3624L12.268 53.6375C8.01725 64.568 5.9 76.6931 5.9 90H7.9ZM14.1261 54.3773C18.4787 43.6935 24.5067 34.5075 32.2071 26.8071L30.7929 25.3929C22.8933 33.2924 16.7213 42.7064 12.2739 53.6227L14.1261 54.3773ZM32.2071 26.8071C39.9073 19.1069 48.9909 13.1811 59.4684 9.02968L58.7316 7.17031C48.0091 11.4189 38.6927 17.4931 30.7929 25.3929L32.2071 26.8071ZM59.4624 9.032C70.1354 4.8814 81.811 2.79999 94.5 2.79999V0.799988C81.589 0.799988 69.6646 2.91857 58.7376 7.16799L59.4624 9.032ZM94.5 2.79999C106.993 2.79999 118.472 4.78268 128.947 8.7356L129.653 6.8644C118.928 2.8173 107.207 0.799988 94.5 0.799988V2.79999ZM128.953 8.73775C139.641 12.6963 148.826 18.2307 156.522 25.3348L157.878 23.8652C149.974 16.5693 140.559 10.9037 129.647 6.86225L128.953 8.73775ZM156.522 25.3348C164.218 32.4388 170.238 40.9248 174.585 50.8027L176.415 49.9973C171.962 39.8752 165.782 31.1612 157.878 23.8652L156.522 25.3348ZM174.588 50.8096C178.925 60.4707 181.1 71.0298 181.1 82.5H183.1C183.1 70.7702 180.875 59.9292 176.412 49.9904L174.588 50.8096ZM181.1 82.5C181.1 94.7491 178.434 106.093 173.109 116.546L174.891 117.454C180.366 106.707 183.1 95.0509 183.1 82.5H181.1ZM173.106 116.553C167.973 126.818 159.657 137.427 148.112 148.374L149.488 149.826C161.143 138.773 169.627 127.982 174.894 117.447L173.106 116.553ZM148.117 148.37L110.617 183.47L111.983 184.93L149.483 149.83L148.117 148.37ZM111.3 185.2H184.5V183.2H111.3V185.2ZM183.5 184.2V234H185.5V184.2H183.5Z" fill="white" fill-opacity="0.4"/>
</svg>
