<svg width="28" height="28" viewBox="0 0 28 28" fill="none" xmlns="http://www.w3.org/2000/svg">
<path d="M14 -0.0012207C6.27511 -0.0012207 0 6.27389 0 13.9988C0 21.7237 6.27511 27.9988 14 27.9988C21.7249 27.9988 28 21.7237 28 13.9988C28 6.27389 21.7249 -0.0012207 14 -0.0012207ZM14 1.24322C21.0529 1.24322 26.7556 6.94589 26.7556 13.9988C26.7556 21.0517 21.0529 26.7543 14 26.7543C6.94711 26.7543 1.24444 21.0517 1.24444 13.9988C1.24444 6.949 6.94711 1.24322 14 1.24322ZM8.71111 8.08767C7.50711 8.08767 6.53333 9.06145 6.53333 10.2654C6.53333 11.4694 7.50711 12.4432 8.71111 12.4432C9.91511 12.4432 10.8889 11.4694 10.8889 10.2654C10.8889 9.06145 9.91511 8.08767 8.71111 8.08767ZM19.2889 8.08767C18.0849 8.08767 17.1111 9.06145 17.1111 10.2654C17.1111 11.4694 18.0849 12.4432 19.2889 12.4432C20.4929 12.4432 21.4667 11.4694 21.4667 10.2654C21.4667 9.06145 20.4929 8.08767 19.2889 8.08767ZM14 15.8654C10.948 15.8654 8.25378 17.4552 6.63911 19.8726C6.42444 20.1401 6.468 20.5321 6.73867 20.7468C7.00622 20.9614 7.39822 20.9179 7.61289 20.6472C7.63467 20.6192 7.65333 20.5912 7.66889 20.5632C9.06889 18.4663 11.3804 17.113 13.9969 17.113C16.6133 17.113 18.9249 18.4695 20.3249 20.5632C20.4929 20.865 20.8724 20.9708 21.1711 20.8028C21.4729 20.6348 21.5787 20.2552 21.4107 19.9566C21.3951 19.9255 21.3764 19.8974 21.3547 19.8726C19.7462 17.4552 17.052 15.8654 14 15.8654Z" fill="white"/>
</svg>
