<svg width="183" height="242" viewBox="0 0 183 242" fill="none" xmlns="http://www.w3.org/2000/svg">
<path d="M81.7 96L81.824 95.0077L80.7 94.8672V96H81.7ZM106.6 89.7L105.909 88.9773L106.6 89.7ZM106.9 56.1L106.193 56.8071L106.201 56.8153L106.21 56.8233L106.9 56.1ZM73 57L72.2628 56.3243L73 57ZM66.4 75.6V76.6H67.4V75.6H66.4ZM12.1 75.6L11.107 75.4822L10.9743 76.6H12.1V75.6ZM20.8 44.1L19.9056 43.6528L19.9016 43.6606L19.8979 43.6685L20.8 44.1ZM38.2 21L38.863 21.7486L38.8689 21.7433L38.8748 21.738L38.2 21ZM62.8 6.6L63.1223 7.54665L63.1312 7.54359L63.1401 7.54037L62.8 6.6ZM124.3 6.29998L123.965 7.2422L123.977 7.24662L123.99 7.25071L124.3 6.29998ZM147.7 19.5L147.029 20.241L147.041 20.2519L147.053 20.2625L147.7 19.5ZM162.7 40.2L161.776 40.583L161.782 40.5968L161.788 40.6104L162.7 40.2ZM161.8 93.9L160.942 93.3855L160.938 93.393L161.8 93.9ZM144.4 111.6L143.85 110.765L142.082 111.928L144.104 112.555L144.4 111.6ZM171.4 131.1L170.573 131.663L170.58 131.673L170.587 131.683L171.4 131.1ZM156.1 219.6L155.464 218.829L155.454 218.837L156.1 219.6ZM127.9 234.9L127.589 233.95L127.584 233.951L127.9 234.9ZM45.1 230.1L44.6631 231L45.1 230.1ZM11.5 197.7L12.3697 197.206L12.3666 197.201L11.5 197.7ZM3.7 177.9L2.71613 178.079L2.71874 178.093L2.72177 178.108L3.7 177.9ZM1.9 157.8V156.8H0.9V157.8H1.9ZM60.1 157.8L61.0993 157.762L61.063 156.8H60.1V157.8ZM69.4 182.1L68.7054 182.819L68.7119 182.826L68.7186 182.832L69.4 182.1ZM115.6 181.8L116.359 182.451L115.6 181.8ZM114.1 138.9L113.447 139.657L114.1 138.9ZM87.7 132L87.8104 132.994L87.8642 132.988L87.9169 132.976L87.7 132ZM81.7 132.9H80.7V134.098L81.8789 133.884L81.7 132.9ZM81.576 96.9923C83.1955 97.1947 84.5413 97.3 85.6 97.3V95.3C84.6587 95.3 83.4045 95.2053 81.824 95.0077L81.576 96.9923ZM85.6 97.3C85.6023 97.3 85.6047 97.3 85.607 97.3C85.6094 97.3 85.6117 97.3 85.6141 97.3C85.6164 97.3 85.6187 97.3 85.6211 97.3C85.6234 97.3 85.6258 97.3 85.6281 97.3C85.6304 97.3 85.6328 97.3 85.6351 97.3C85.6374 97.3 85.6398 97.3 85.6421 97.3C85.6444 97.3 85.6468 97.3 85.6491 97.3C85.6514 97.3 85.6538 97.3 85.6561 97.3C85.6584 97.3 85.6608 97.3 85.6631 97.3C85.6654 97.3 85.6678 97.3 85.6701 97.3C85.6724 97.3 85.6747 97.3 85.6771 97.3C85.6794 97.3 85.6817 97.3 85.684 97.3C85.6864 97.3 85.6887 97.3 85.691 97.3C85.6933 97.3 85.6957 97.3 85.698 97.3C85.7003 97.3 85.7026 97.3 85.705 97.3C85.7073 97.3 85.7096 97.3 85.7119 97.3C85.7142 97.3 85.7166 97.3 85.7189 97.3C85.7212 97.3 85.7235 97.3 85.7258 97.3C85.7281 97.3 85.7305 97.3 85.7328 97.3C85.7351 97.3 85.7374 97.3 85.7397 97.3C85.742 97.3 85.7443 97.3 85.7467 97.3C85.749 97.3 85.7513 97.3 85.7536 97.3C85.7559 97.3 85.7582 97.3 85.7605 97.3C85.7628 97.3 85.7651 97.3 85.7674 97.3C85.7697 97.3 85.772 97.3 85.7744 97.3C85.7767 97.3 85.779 97.3 85.7813 97.3C85.7836 97.3 85.7859 97.3 85.7882 97.3C85.7905 97.3 85.7928 97.3 85.7951 97.3C85.7974 97.3 85.7997 97.3 85.802 97.3C85.8043 97.3 85.8066 97.3 85.8089 97.3C85.8112 97.3 85.8135 97.3 85.8158 97.3C85.8181 97.3 85.8204 97.3 85.8227 97.3C85.825 97.3 85.8272 97.3 85.8295 97.3C85.8318 97.3 85.8341 97.3 85.8364 97.3C85.8387 97.3 85.841 97.3 85.8433 97.3C85.8456 97.3 85.8479 97.3 85.8502 97.3C85.8524 97.3 85.8547 97.3 85.857 97.3C85.8593 97.3 85.8616 97.3 85.8639 97.3C85.8662 97.3 85.8685 97.3 85.8707 97.3C85.873 97.3 85.8753 97.3 85.8776 97.3C85.8799 97.3 85.8822 97.3 85.8844 97.3C85.8867 97.3 85.889 97.3 85.8913 97.3C85.8936 97.3 85.8958 97.3 85.8981 97.3C85.9004 97.3 85.9027 97.3 85.9049 97.3C85.9072 97.3 85.9095 97.3 85.9118 97.3C85.914 97.3 85.9163 97.3 85.9186 97.3C85.9209 97.3 85.9231 97.3 85.9254 97.3C85.9277 97.3 85.93 97.3 85.9322 97.3C85.9345 97.3 85.9368 97.3 85.939 97.3C85.9413 97.3 85.9436 97.3 85.9458 97.3C85.9481 97.3 85.9504 97.3 85.9526 97.3C85.9549 97.3 85.9572 97.3 85.9594 97.3C85.9617 97.3 85.964 97.3 85.9662 97.3C85.9685 97.3 85.9708 97.3 85.973 97.3C85.9753 97.3 85.9775 97.3 85.9798 97.3C85.9821 97.3 85.9843 97.3 85.9866 97.3C85.9888 97.3 85.9911 97.3 85.9933 97.3C85.9956 97.3 85.9979 97.3 86.0001 97.3C86.0024 97.3 86.0046 97.3 86.0069 97.3C86.0091 97.3 86.0114 97.3 86.0136 97.3C86.0159 97.3 86.0181 97.3 86.0204 97.3C86.0226 97.3 86.0249 97.3 86.0271 97.3C86.0294 97.3 86.0316 97.3 86.0339 97.3C86.0361 97.3 86.0384 97.3 86.0406 97.3C86.0429 97.3 86.0451 97.3 86.0474 97.3C86.0496 97.3 86.0518 97.3 86.0541 97.3C86.0563 97.3 86.0586 97.3 86.0608 97.3C86.0631 97.3 86.0653 97.3 86.0675 97.3C86.0698 97.3 86.072 97.3 86.0743 97.3C86.0765 97.3 86.0787 97.3 86.081 97.3C86.0832 97.3 86.0854 97.3 86.0877 97.3C86.0899 97.3 86.0922 97.3 86.0944 97.3C86.0966 97.3 86.0989 97.3 86.1011 97.3C86.1033 97.3 86.1056 97.3 86.1078 97.3C86.11 97.3 86.1122 97.3 86.1145 97.3C86.1167 97.3 86.1189 97.3 86.1212 97.3C86.1234 97.3 86.1256 97.3 86.1278 97.3C86.1301 97.3 86.1323 97.3 86.1345 97.3C86.1367 97.3 86.139 97.3 86.1412 97.3C86.1434 97.3 86.1456 97.3 86.1479 97.3C86.1501 97.3 86.1523 97.3 86.1545 97.3C86.1567 97.3 86.159 97.3 86.1612 97.3C86.1634 97.3 86.1656 97.3 86.1678 97.3C86.17 97.3 86.1723 97.3 86.1745 97.3C86.1767 97.3 86.1789 97.3 86.1811 97.3C86.1833 97.3 86.1855 97.3 86.1878 97.3C86.19 97.3 86.1922 97.3 86.1944 97.3C86.1966 97.3 86.1988 97.3 86.201 97.3C86.2032 97.3 86.2054 97.3 86.2077 97.3C86.2099 97.3 86.2121 97.3 86.2143 97.3C86.2165 97.3 86.2187 97.3 86.2209 97.3C86.2231 97.3 86.2253 97.3 86.2275 97.3C86.2297 97.3 86.2319 97.3 86.2341 97.3C86.2363 97.3 86.2385 97.3 86.2407 97.3C86.2429 97.3 86.2451 97.3 86.2473 97.3C86.2495 97.3 86.2517 97.3 86.2539 97.3C86.2561 97.3 86.2583 97.3 86.2605 97.3C86.2627 97.3 86.2649 97.3 86.2671 97.3C86.2693 97.3 86.2715 97.3 86.2737 97.3C86.2759 97.3 86.278 97.3 86.2802 97.3C86.2824 97.3 86.2846 97.3 86.2868 97.3C86.289 97.3 86.2912 97.3 86.2934 97.3C86.2956 97.3 86.2978 97.3 86.2999 97.3C86.3021 97.3 86.3043 97.3 86.3065 97.3C86.3087 97.3 86.3109 97.3 86.313 97.3C86.3152 97.3 86.3174 97.3 86.3196 97.3C86.3218 97.3 86.324 97.3 86.3261 97.3C86.3283 97.3 86.3305 97.3 86.3327 97.3C86.3349 97.3 86.337 97.3 86.3392 97.3C86.3414 97.3 86.3436 97.3 86.3457 97.3C86.3479 97.3 86.3501 97.3 86.3523 97.3C86.3544 97.3 86.3566 97.3 86.3588 97.3C86.361 97.3 86.3631 97.3 86.3653 97.3C86.3675 97.3 86.3697 97.3 86.3718 97.3C86.374 97.3 86.3762 97.3 86.3783 97.3C86.3805 97.3 86.3827 97.3 86.3848 97.3C86.387 97.3 86.3892 97.3 86.3913 97.3C86.3935 97.3 86.3957 97.3 86.3978 97.3C86.4 97.3 86.4021 97.3 86.4043 97.3C86.4065 97.3 86.4086 97.3 86.4108 97.3C86.413 97.3 86.4151 97.3 86.4173 97.3C86.4194 97.3 86.4216 97.3 86.4238 97.3C86.4259 97.3 86.4281 97.3 86.4302 97.3C86.4324 97.3 86.4345 97.3 86.4367 97.3C86.4388 97.3 86.441 97.3 86.4431 97.3C86.4453 97.3 86.4474 97.3 86.4496 97.3C86.4518 97.3 86.4539 97.3 86.4561 97.3C86.4582 97.3 86.4604 97.3 86.4625 97.3C86.4647 97.3 86.4668 97.3 86.4689 97.3C86.4711 97.3 86.4732 97.3 86.4754 97.3C86.4775 97.3 86.4797 97.3 86.4818 97.3C86.484 97.3 86.4861 97.3 86.4883 97.3C86.4904 97.3 86.4925 97.3 86.4947 97.3C86.4968 97.3 86.499 97.3 86.5011 97.3C86.5032 97.3 86.5054 97.3 86.5075 97.3C86.5096 97.3 86.5118 97.3 86.5139 97.3C86.5161 97.3 86.5182 97.3 86.5203 97.3C86.5225 97.3 86.5246 97.3 86.5267 97.3C86.5289 97.3 86.531 97.3 86.5331 97.3C86.5353 97.3 86.5374 97.3 86.5395 97.3C86.5416 97.3 86.5438 97.3 86.5459 97.3C86.548 97.3 86.5502 97.3 86.5523 97.3C86.5544 97.3 86.5565 97.3 86.5587 97.3C86.5608 97.3 86.5629 97.3 86.565 97.3C86.5672 97.3 86.5693 97.3 86.5714 97.3C86.5735 97.3 86.5757 97.3 86.5778 97.3C86.5799 97.3 86.582 97.3 86.5841 97.3C86.5863 97.3 86.5884 97.3 86.5905 97.3C86.5926 97.3 86.5947 97.3 86.5968 97.3C86.599 97.3 86.6011 97.3 86.6032 97.3C86.6053 97.3 86.6074 97.3 86.6095 97.3C86.6116 97.3 86.6138 97.3 86.6159 97.3C86.618 97.3 86.6201 97.3 86.6222 97.3C86.6243 97.3 86.6264 97.3 86.6285 97.3C86.6306 97.3 86.6328 97.3 86.6349 97.3C86.637 97.3 86.6391 97.3 86.6412 97.3C86.6433 97.3 86.6454 97.3 86.6475 97.3C86.6496 97.3 86.6517 97.3 86.6538 97.3C86.6559 97.3 86.658 97.3 86.6601 97.3C86.6622 97.3 86.6643 97.3 86.6664 97.3C86.6685 97.3 86.6706 97.3 86.6727 97.3C86.6748 97.3 86.6769 97.3 86.679 97.3C86.6811 97.3 86.6832 97.3 86.6853 97.3C86.6874 97.3 86.6895 97.3 86.6916 97.3C86.6937 97.3 86.6958 97.3 86.6978 97.3C86.6999 97.3 86.702 97.3 86.7041 97.3C86.7062 97.3 86.7083 97.3 86.7104 97.3C86.7125 97.3 86.7146 97.3 86.7167 97.3C86.7187 97.3 86.7208 97.3 86.7229 97.3C86.725 97.3 86.7271 97.3 86.7292 97.3C86.7313 97.3 86.7333 97.3 86.7354 97.3C86.7375 97.3 86.7396 97.3 86.7417 97.3C86.7438 97.3 86.7458 97.3 86.7479 97.3C86.75 97.3 86.7521 97.3 86.7541 97.3C86.7562 97.3 86.7583 97.3 86.7604 97.3C86.7625 97.3 86.7645 97.3 86.7666 97.3C86.7687 97.3 86.7708 97.3 86.7728 97.3C86.7749 97.3 86.777 97.3 86.779 97.3C86.7811 97.3 86.7832 97.3 86.7853 97.3C86.7873 97.3 86.7894 97.3 86.7915 97.3C86.7935 97.3 86.7956 97.3 86.7977 97.3C86.7997 97.3 86.8018 97.3 86.8039 97.3C86.8059 97.3 86.808 97.3 86.8101 97.3C86.8121 97.3 86.8142 97.3 86.8163 97.3C86.8183 97.3 86.8204 97.3 86.8224 97.3C86.8245 97.3 86.8266 97.3 86.8286 97.3C86.8307 97.3 86.8327 97.3 86.8348 97.3C86.8369 97.3 86.8389 97.3 86.841 97.3C86.843 97.3 86.8451 97.3 86.8472 97.3C86.8492 97.3 86.8513 97.3 86.8533 97.3C86.8554 97.3 86.8574 97.3 86.8595 97.3C86.8615 97.3 86.8636 97.3 86.8656 97.3C86.8677 97.3 86.8697 97.3 86.8718 97.3C86.8738 97.3 86.8759 97.3 86.8779 97.3C86.88 97.3 86.882 97.3 86.8841 97.3C86.8861 97.3 86.8882 97.3 86.8902 97.3C86.8923 97.3 86.8943 97.3 86.8963 97.3C86.8984 97.3 86.9004 97.3 86.9025 97.3C86.9045 97.3 86.9065 97.3 86.9086 97.3C86.9106 97.3 86.9127 97.3 86.9147 97.3C86.9167 97.3 86.9188 97.3 86.9208 97.3C86.9229 97.3 86.9249 97.3 86.9269 97.3C86.929 97.3 86.931 97.3 86.933 97.3C86.9351 97.3 86.9371 97.3 86.9391 97.3C86.9412 97.3 86.9432 97.3 86.9452 97.3C86.9473 97.3 86.9493 97.3 86.9513 97.3C86.9533 97.3 86.9554 97.3 86.9574 97.3C86.9594 97.3 86.9615 97.3 86.9635 97.3C86.9655 97.3 86.9675 97.3 86.9696 97.3C86.9716 97.3 86.9736 97.3 86.9756 97.3C86.9777 97.3 86.9797 97.3 86.9817 97.3C86.9837 97.3 86.9857 97.3 86.9878 97.3C86.9898 97.3 86.9918 97.3 86.9938 97.3C86.9958 97.3 86.9979 97.3 86.9999 97.3C87.0019 97.3 87.0039 97.3 87.0059 97.3C87.0079 97.3 87.01 97.3 87.012 97.3C87.014 97.3 87.016 97.3 87.018 97.3C87.02 97.3 87.022 97.3 87.024 97.3C87.0261 97.3 87.0281 97.3 87.0301 97.3C87.0321 97.3 87.0341 97.3 87.0361 97.3C87.0381 97.3 87.0401 97.3 87.0421 97.3C87.0441 97.3 87.0461 97.3 87.0481 97.3C87.0501 97.3 87.0521 97.3 87.0542 97.3C87.0562 97.3 87.0582 97.3 87.0602 97.3C87.0622 97.3 87.0642 97.3 87.0662 97.3C87.0682 97.3 87.0702 97.3 87.0722 97.3C87.0742 97.3 87.0762 97.3 87.0782 97.3C87.0802 97.3 87.0822 97.3 87.0841 97.3C87.0861 97.3 87.0881 97.3 87.0901 97.3C87.0921 97.3 87.0941 97.3 87.0961 97.3C87.0981 97.3 87.1001 97.3 87.1021 97.3C87.1041 97.3 87.1061 97.3 87.1081 97.3C87.1101 97.3 87.112 97.3 87.114 97.3C87.116 97.3 87.118 97.3 87.12 97.3C87.122 97.3 87.124 97.3 87.1259 97.3C87.1279 97.3 87.1299 97.3 87.1319 97.3C87.1339 97.3 87.1359 97.3 87.1378 97.3C87.1398 97.3 87.1418 97.3 87.1438 97.3C87.1458 97.3 87.1478 97.3 87.1497 97.3C87.1517 97.3 87.1537 97.3 87.1557 97.3C87.1576 97.3 87.1596 97.3 87.1616 97.3C87.1636 97.3 87.1656 97.3 87.1675 97.3C87.1695 97.3 87.1715 97.3 87.1734 97.3C87.1754 97.3 87.1774 97.3 87.1794 97.3C87.1813 97.3 87.1833 97.3 87.1853 97.3C87.1872 97.3 87.1892 97.3 87.1912 97.3C87.1932 97.3 87.1951 97.3 87.1971 97.3C87.1991 97.3 87.201 97.3 87.203 97.3C87.2049 97.3 87.2069 97.3 87.2089 97.3C87.2108 97.3 87.2128 97.3 87.2148 97.3C87.2167 97.3 87.2187 97.3 87.2206 97.3C87.2226 97.3 87.2246 97.3 87.2265 97.3C87.2285 97.3 87.2304 97.3 87.2324 97.3C87.2344 97.3 87.2363 97.3 87.2383 97.3C87.2402 97.3 87.2422 97.3 87.2441 97.3C87.2461 97.3 87.2481 97.3 87.25 97.3C87.252 97.3 87.2539 97.3 87.2559 97.3C87.2578 97.3 87.2598 97.3 87.2617 97.3C87.2637 97.3 87.2656 97.3 87.2676 97.3C87.2695 97.3 87.2715 97.3 87.2734 97.3C87.2754 97.3 87.2773 97.3 87.2792 97.3C87.2812 97.3 87.2831 97.3 87.2851 97.3C87.287 97.3 87.289 97.3 87.2909 97.3C87.2929 97.3 87.2948 97.3 87.2967 97.3C87.2987 97.3 87.3006 97.3 87.3026 97.3C87.3045 97.3 87.3064 97.3 87.3084 97.3C87.3103 97.3 87.3122 97.3 87.3142 97.3C87.3161 97.3 87.3181 97.3 87.32 97.3C87.3219 97.3 87.3239 97.3 87.3258 97.3C87.3277 97.3 87.3297 97.3 87.3316 97.3C87.3335 97.3 87.3354 97.3 87.3374 97.3C87.3393 97.3 87.3412 97.3 87.3432 97.3C87.3451 97.3 87.347 97.3 87.349 97.3C87.3509 97.3 87.3528 97.3 87.3547 97.3C87.3567 97.3 87.3586 97.3 87.3605 97.3C87.3624 97.3 87.3644 97.3 87.3663 97.3C87.3682 97.3 87.3701 97.3 87.372 97.3C87.374 97.3 87.3759 97.3 87.3778 97.3C87.3797 97.3 87.3816 97.3 87.3836 97.3C87.3855 97.3 87.3874 97.3 87.3893 97.3C87.3912 97.3 87.3931 97.3 87.3951 97.3C87.397 97.3 87.3989 97.3 87.4008 97.3C87.4027 97.3 87.4046 97.3 87.4065 97.3C87.4085 97.3 87.4104 97.3 87.4123 97.3C87.4142 97.3 87.4161 97.3 87.418 97.3C87.4199 97.3 87.4218 97.3 87.4237 97.3C87.4256 97.3 87.4275 97.3 87.4294 97.3C87.4314 97.3 87.4333 97.3 87.4352 97.3C87.4371 97.3 87.439 97.3 87.4409 97.3C87.4428 97.3 87.4447 97.3 87.4466 97.3C87.4485 97.3 87.4504 97.3 87.4523 97.3C87.4542 97.3 87.4561 97.3 87.458 97.3C87.4599 97.3 87.4618 97.3 87.4637 97.3C87.4656 97.3 87.4675 97.3 87.4694 97.3C87.4713 97.3 87.4731 97.3 87.475 97.3C87.4769 97.3 87.4788 97.3 87.4807 97.3C87.4826 97.3 87.4845 97.3 87.4864 97.3C87.4883 97.3 87.4902 97.3 87.4921 97.3C87.4939 97.3 87.4958 97.3 87.4977 97.3C87.4996 97.3 87.5015 97.3 87.5034 97.3C87.5053 97.3 87.5072 97.3 87.509 97.3C87.5109 97.3 87.5128 97.3 87.5147 97.3C87.5166 97.3 87.5185 97.3 87.5203 97.3C87.5222 97.3 87.5241 97.3 87.526 97.3C87.5279 97.3 87.5297 97.3 87.5316 97.3C87.5335 97.3 87.5354 97.3 87.5373 97.3C87.5391 97.3 87.541 97.3 87.5429 97.3C87.5448 97.3 87.5466 97.3 87.5485 97.3C87.5504 97.3 87.5523 97.3 87.5541 97.3C87.556 97.3 87.5579 97.3 87.5597 97.3C87.5616 97.3 87.5635 97.3 87.5653 97.3C87.5672 97.3 87.5691 97.3 87.571 97.3C87.5728 97.3 87.5747 97.3 87.5766 97.3C87.5784 97.3 87.5803 97.3 87.5822 97.3C87.584 97.3 87.5859 97.3 87.5877 97.3C87.5896 97.3 87.5915 97.3 87.5933 97.3C87.5952 97.3 87.5971 97.3 87.5989 97.3C87.6008 97.3 87.6026 97.3 87.6045 97.3C87.6063 97.3 87.6082 97.3 87.6101 97.3C87.6119 97.3 87.6138 97.3 87.6156 97.3C87.6175 97.3 87.6193 97.3 87.6212 97.3C87.623 97.3 87.6249 97.3 87.6268 97.3C87.6286 97.3 87.6305 97.3 87.6323 97.3C87.6342 97.3 87.636 97.3 87.6379 97.3C87.6397 97.3 87.6416 97.3 87.6434 97.3C87.6453 97.3 87.6471 97.3 87.6489 97.3C87.6508 97.3 87.6526 97.3 87.6545 97.3C87.6563 97.3 87.6582 97.3 87.66 97.3C87.6619 97.3 87.6637 97.3 87.6655 97.3C87.6674 97.3 87.6692 97.3 87.6711 97.3C87.6729 97.3 87.6747 97.3 87.6766 97.3C87.6784 97.3 87.6803 97.3 87.6821 97.3C87.6839 97.3 87.6858 97.3 87.6876 97.3C87.6894 97.3 87.6913 97.3 87.6931 97.3C87.6949 97.3 87.6968 97.3 87.6986 97.3C87.7004 97.3 87.7023 97.3 87.7041 97.3C87.7059 97.3 87.7078 97.3 87.7096 97.3C87.7114 97.3 87.7133 97.3 87.7151 97.3C87.7169 97.3 87.7187 97.3 87.7206 97.3C87.7224 97.3 87.7242 97.3 87.726 97.3C87.7279 97.3 87.7297 97.3 87.7315 97.3C87.7333 97.3 87.7352 97.3 87.737 97.3C87.7388 97.3 87.7406 97.3 87.7424 97.3C87.7443 97.3 87.7461 97.3 87.7479 97.3C87.7497 97.3 87.7515 97.3 87.7534 97.3C87.7552 97.3 87.757 97.3 87.7588 97.3C87.7606 97.3 87.7624 97.3 87.7643 97.3C87.7661 97.3 87.7679 97.3 87.7697 97.3C87.7715 97.3 87.7733 97.3 87.7751 97.3C87.7769 97.3 87.7788 97.3 87.7806 97.3C87.7824 97.3 87.7842 97.3 87.786 97.3C87.7878 97.3 87.7896 97.3 87.7914 97.3C87.7932 97.3 87.795 97.3 87.7968 97.3C87.7986 97.3 87.8004 97.3 87.8022 97.3C87.804 97.3 87.8058 97.3 87.8077 97.3C87.8095 97.3 87.8113 97.3 87.8131 97.3C87.8149 97.3 87.8167 97.3 87.8185 97.3C87.8203 97.3 87.8221 97.3 87.8239 97.3C87.8256 97.3 87.8274 97.3 87.8292 97.3C87.831 97.3 87.8328 97.3 87.8346 97.3C87.8364 97.3 87.8382 97.3 87.84 97.3C87.8418 97.3 87.8436 97.3 87.8454 97.3C87.8472 97.3 87.849 97.3 87.8508 97.3C87.8525 97.3 87.8543 97.3 87.8561 97.3C87.8579 97.3 87.8597 97.3 87.8615 97.3C87.8633 97.3 87.8651 97.3 87.8668 97.3C87.8686 97.3 87.8704 97.3 87.8722 97.3C87.874 97.3 87.8758 97.3 87.8775 97.3C87.8793 97.3 87.8811 97.3 87.8829 97.3C87.8847 97.3 87.8865 97.3 87.8882 97.3C87.89 97.3 87.8918 97.3 87.8936 97.3C87.8953 97.3 87.8971 97.3 87.8989 97.3C87.9007 97.3 87.9025 97.3 87.9042 97.3C87.906 97.3 87.9078 97.3 87.9095 97.3C87.9113 97.3 87.9131 97.3 87.9149 97.3C87.9166 97.3 87.9184 97.3 87.9202 97.3C87.9219 97.3 87.9237 97.3 87.9255 97.3C87.9272 97.3 87.929 97.3 87.9308 97.3C87.9325 97.3 87.9343 97.3 87.9361 97.3C87.9379 97.3 87.9396 97.3 87.9414 97.3C87.9431 97.3 87.9449 97.3 87.9467 97.3C87.9484 97.3 87.9502 97.3 87.952 97.3C87.9537 97.3 87.9555 97.3 87.9572 97.3C87.959 97.3 87.9607 97.3 87.9625 97.3C87.9643 97.3 87.966 97.3 87.9678 97.3C87.9695 97.3 87.9713 97.3 87.973 97.3C87.9748 97.3 87.9766 97.3 87.9783 97.3C87.9801 97.3 87.9818 97.3 87.9836 97.3C87.9853 97.3 87.9871 97.3 87.9888 97.3C87.9906 97.3 87.9923 97.3 87.9941 97.3C87.9958 97.3 87.9976 97.3 87.9993 97.3C88.0011 97.3 88.0028 97.3 88.0045 97.3C88.0063 97.3 88.008 97.3 88.0098 97.3C88.0115 97.3 88.0133 97.3 88.015 97.3C88.0168 97.3 88.0185 97.3 88.0202 97.3C88.022 97.3 88.0237 97.3 88.0255 97.3C88.0272 97.3 88.0289 97.3 88.0307 97.3C88.0324 97.3 88.0341 97.3 88.0359 97.3C88.0376 97.3 88.0394 97.3 88.0411 97.3C88.0428 97.3 88.0446 97.3 88.0463 97.3C88.048 97.3 88.0498 97.3 88.0515 97.3C88.0532 97.3 88.055 97.3 88.0567 97.3C88.0584 97.3 88.0602 97.3 88.0619 97.3C88.0636 97.3 88.0653 97.3 88.0671 97.3C88.0688 97.3 88.0705 97.3 88.0722 97.3C88.074 97.3 88.0757 97.3 88.0774 97.3C88.0791 97.3 88.0809 97.3 88.0826 97.3C88.0843 97.3 88.086 97.3 88.0878 97.3C88.0895 97.3 88.0912 97.3 88.0929 97.3C88.0946 97.3 88.0964 97.3 88.0981 97.3C88.0998 97.3 88.1015 97.3 88.1032 97.3C88.1049 97.3 88.1067 97.3 88.1084 97.3C88.1101 97.3 88.1118 97.3 88.1135 97.3C88.1152 97.3 88.1169 97.3 88.1187 97.3C88.1204 97.3 88.1221 97.3 88.1238 97.3C88.1255 97.3 88.1272 97.3 88.1289 97.3C88.1306 97.3 88.1323 97.3 88.134 97.3C88.1357 97.3 88.1375 97.3 88.1392 97.3C88.1409 97.3 88.1426 97.3 88.1443 97.3C88.146 97.3 88.1477 97.3 88.1494 97.3C88.1511 97.3 88.1528 97.3 88.1545 97.3C88.1562 97.3 88.1579 97.3 88.1596 97.3C88.1613 97.3 88.163 97.3 88.1647 97.3C88.1664 97.3 88.1681 97.3 88.1698 97.3C88.1715 97.3 88.1732 97.3 88.1749 97.3C88.1766 97.3 88.1783 97.3 88.18 97.3C88.1816 97.3 88.1833 97.3 88.185 97.3C88.1867 97.3 88.1884 97.3 88.1901 97.3C88.1918 97.3 88.1935 97.3 88.1952 97.3C88.1969 97.3 88.1986 97.3 88.2002 97.3C88.2019 97.3 88.2036 97.3 88.2053 97.3C88.207 97.3 88.2087 97.3 88.2104 97.3C88.212 97.3 88.2137 97.3 88.2154 97.3C88.2171 97.3 88.2188 97.3 88.2205 97.3C88.2221 97.3 88.2238 97.3 88.2255 97.3C88.2272 97.3 88.2289 97.3 88.2305 97.3C88.2322 97.3 88.2339 97.3 88.2356 97.3C88.2372 97.3 88.2389 97.3 88.2406 97.3C88.2423 97.3 88.2439 97.3 88.2456 97.3C88.2473 97.3 88.249 97.3 88.2506 97.3C88.2523 97.3 88.254 97.3 88.2557 97.3C88.2573 97.3 88.259 97.3 88.2607 97.3C88.2623 97.3 88.264 97.3 88.2657 97.3C88.2673 97.3 88.269 97.3 88.2707 97.3C88.2723 97.3 88.274 97.3 88.2757 97.3C88.2773 97.3 88.279 97.3 88.2807 97.3C88.2823 97.3 88.284 97.3 88.2857 97.3C88.2873 97.3 88.289 97.3 88.2906 97.3C88.2923 97.3 88.294 97.3 88.2956 97.3C88.2973 97.3 88.2989 97.3 88.3006 97.3C88.3022 97.3 88.3039 97.3 88.3055 97.3C88.3072 97.3 88.3089 97.3 88.3105 97.3C88.3122 97.3 88.3138 97.3 88.3155 97.3C88.3171 97.3 88.3188 97.3 88.3204 97.3C88.3221 97.3 88.3237 97.3 88.3254 97.3C88.327 97.3 88.3287 97.3 88.3303 97.3C88.332 97.3 88.3336 97.3 88.3353 97.3C88.3369 97.3 88.3386 97.3 88.3402 97.3C88.3419 97.3 88.3435 97.3 88.3451 97.3C88.3468 97.3 88.3484 97.3 88.3501 97.3C88.3517 97.3 88.3533 97.3 88.355 97.3C88.3566 97.3 88.3583 97.3 88.3599 97.3C88.3615 97.3 88.3632 97.3 88.3648 97.3C88.3665 97.3 88.3681 97.3 88.3697 97.3C88.3714 97.3 88.373 97.3 88.3746 97.3C88.3763 97.3 88.3779 97.3 88.3795 97.3C88.3812 97.3 88.3828 97.3 88.3844 97.3C88.3861 97.3 88.3877 97.3 88.3893 97.3C88.391 97.3 88.3926 97.3 88.3942 97.3C88.3958 97.3 88.3975 97.3 88.3991 97.3C88.4007 97.3 88.4023 97.3 88.404 97.3C88.4056 97.3 88.4072 97.3 88.4088 97.3C88.4105 97.3 88.4121 97.3 88.4137 97.3C88.4153 97.3 88.417 97.3 88.4186 97.3C88.4202 97.3 88.4218 97.3 88.4234 97.3C88.4251 97.3 88.4267 97.3 88.4283 97.3C88.4299 97.3 88.4315 97.3 88.4331 97.3C88.4348 97.3 88.4364 97.3 88.438 97.3C88.4396 97.3 88.4412 97.3 88.4428 97.3C88.4444 97.3 88.4461 97.3 88.4477 97.3C88.4493 97.3 88.4509 97.3 88.4525 97.3C88.4541 97.3 88.4557 97.3 88.4573 97.3C88.4589 97.3 88.4605 97.3 88.4621 97.3C88.4638 97.3 88.4654 97.3 88.467 97.3C88.4686 97.3 88.4702 97.3 88.4718 97.3C88.4734 97.3 88.475 97.3 88.4766 97.3C88.4782 97.3 88.4798 97.3 88.4814 97.3C88.483 97.3 88.4846 97.3 88.4862 97.3C88.4878 97.3 88.4894 97.3 88.491 97.3C88.4926 97.3 88.4942 97.3 88.4958 97.3C88.4974 97.3 88.499 97.3 88.5006 97.3C88.5022 97.3 88.5037 97.3 88.5053 97.3C88.5069 97.3 88.5085 97.3 88.5101 97.3C88.5117 97.3 88.5133 97.3 88.5149 97.3C88.5165 97.3 88.5181 97.3 88.5197 97.3C88.5212 97.3 88.5228 97.3 88.5244 97.3C88.526 97.3 88.5276 97.3 88.5292 97.3C88.5308 97.3 88.5323 97.3 88.5339 97.3C88.5355 97.3 88.5371 97.3 88.5387 97.3C88.5403 97.3 88.5418 97.3 88.5434 97.3C88.545 97.3 88.5466 97.3 88.5482 97.3C88.5498 97.3 88.5513 97.3 88.5529 97.3C88.5545 97.3 88.5561 97.3 88.5576 97.3C88.5592 97.3 88.5608 97.3 88.5624 97.3C88.5639 97.3 88.5655 97.3 88.5671 97.3C88.5687 97.3 88.5702 97.3 88.5718 97.3C88.5734 97.3 88.5749 97.3 88.5765 97.3C88.5781 97.3 88.5797 97.3 88.5812 97.3C88.5828 97.3 88.5844 97.3 88.5859 97.3C88.5875 97.3 88.5891 97.3 88.5906 97.3C88.5922 97.3 88.5938 97.3 88.5953 97.3C88.5969 97.3 88.5984 97.3 88.6 97.3V95.3C88.5984 95.3 88.5969 95.3 88.5953 95.3C88.5938 95.3 88.5922 95.3 88.5906 95.3C88.5891 95.3 88.5875 95.3 88.5859 95.3C88.5844 95.3 88.5828 95.3 88.5812 95.3C88.5797 95.3 88.5781 95.3 88.5765 95.3C88.5749 95.3 88.5734 95.3 88.5718 95.3C88.5702 95.3 88.5687 95.3 88.5671 95.3C88.5655 95.3 88.5639 95.3 88.5624 95.3C88.5608 95.3 88.5592 95.3 88.5576 95.3C88.5561 95.3 88.5545 95.3 88.5529 95.3C88.5513 95.3 88.5498 95.3 88.5482 95.3C88.5466 95.3 88.545 95.3 88.5434 95.3C88.5418 95.3 88.5403 95.3 88.5387 95.3C88.5371 95.3 88.5355 95.3 88.5339 95.3C88.5323 95.3 88.5308 95.3 88.5292 95.3C88.5276 95.3 88.526 95.3 88.5244 95.3C88.5228 95.3 88.5212 95.3 88.5197 95.3C88.5181 95.3 88.5165 95.3 88.5149 95.3C88.5133 95.3 88.5117 95.3 88.5101 95.3C88.5085 95.3 88.5069 95.3 88.5053 95.3C88.5037 95.3 88.5022 95.3 88.5006 95.3C88.499 95.3 88.4974 95.3 88.4958 95.3C88.4942 95.3 88.4926 95.3 88.491 95.3C88.4894 95.3 88.4878 95.3 88.4862 95.3C88.4846 95.3 88.483 95.3 88.4814 95.3C88.4798 95.3 88.4782 95.3 88.4766 95.3C88.475 95.3 88.4734 95.3 88.4718 95.3C88.4702 95.3 88.4686 95.3 88.467 95.3C88.4654 95.3 88.4638 95.3 88.4621 95.3C88.4605 95.3 88.4589 95.3 88.4573 95.3C88.4557 95.3 88.4541 95.3 88.4525 95.3C88.4509 95.3 88.4493 95.3 88.4477 95.3C88.4461 95.3 88.4444 95.3 88.4428 95.3C88.4412 95.3 88.4396 95.3 88.438 95.3C88.4364 95.3 88.4348 95.3 88.4331 95.3C88.4315 95.3 88.4299 95.3 88.4283 95.3C88.4267 95.3 88.4251 95.3 88.4234 95.3C88.4218 95.3 88.4202 95.3 88.4186 95.3C88.417 95.3 88.4153 95.3 88.4137 95.3C88.4121 95.3 88.4105 95.3 88.4088 95.3C88.4072 95.3 88.4056 95.3 88.404 95.3C88.4023 95.3 88.4007 95.3 88.3991 95.3C88.3975 95.3 88.3958 95.3 88.3942 95.3C88.3926 95.3 88.391 95.3 88.3893 95.3C88.3877 95.3 88.3861 95.3 88.3844 95.3C88.3828 95.3 88.3812 95.3 88.3795 95.3C88.3779 95.3 88.3763 95.3 88.3746 95.3C88.373 95.3 88.3714 95.3 88.3697 95.3C88.3681 95.3 88.3665 95.3 88.3648 95.3C88.3632 95.3 88.3615 95.3 88.3599 95.3C88.3583 95.3 88.3566 95.3 88.355 95.3C88.3533 95.3 88.3517 95.3 88.3501 95.3C88.3484 95.3 88.3468 95.3 88.3451 95.3C88.3435 95.3 88.3419 95.3 88.3402 95.3C88.3386 95.3 88.3369 95.3 88.3353 95.3C88.3336 95.3 88.332 95.3 88.3303 95.3C88.3287 95.3 88.327 95.3 88.3254 95.3C88.3237 95.3 88.3221 95.3 88.3204 95.3C88.3188 95.3 88.3171 95.3 88.3155 95.3C88.3138 95.3 88.3122 95.3 88.3105 95.3C88.3089 95.3 88.3072 95.3 88.3055 95.3C88.3039 95.3 88.3022 95.3 88.3006 95.3C88.2989 95.3 88.2973 95.3 88.2956 95.3C88.294 95.3 88.2923 95.3 88.2906 95.3C88.289 95.3 88.2873 95.3 88.2857 95.3C88.284 95.3 88.2823 95.3 88.2807 95.3C88.279 95.3 88.2773 95.3 88.2757 95.3C88.274 95.3 88.2723 95.3 88.2707 95.3C88.269 95.3 88.2673 95.3 88.2657 95.3C88.264 95.3 88.2623 95.3 88.2607 95.3C88.259 95.3 88.2573 95.3 88.2557 95.3C88.254 95.3 88.2523 95.3 88.2506 95.3C88.249 95.3 88.2473 95.3 88.2456 95.3C88.2439 95.3 88.2423 95.3 88.2406 95.3C88.2389 95.3 88.2372 95.3 88.2356 95.3C88.2339 95.3 88.2322 95.3 88.2305 95.3C88.2289 95.3 88.2272 95.3 88.2255 95.3C88.2238 95.3 88.2221 95.3 88.2205 95.3C88.2188 95.3 88.2171 95.3 88.2154 95.3C88.2137 95.3 88.212 95.3 88.2104 95.3C88.2087 95.3 88.207 95.3 88.2053 95.3C88.2036 95.3 88.2019 95.3 88.2002 95.3C88.1986 95.3 88.1969 95.3 88.1952 95.3C88.1935 95.3 88.1918 95.3 88.1901 95.3C88.1884 95.3 88.1867 95.3 88.185 95.3C88.1833 95.3 88.1816 95.3 88.18 95.3C88.1783 95.3 88.1766 95.3 88.1749 95.3C88.1732 95.3 88.1715 95.3 88.1698 95.3C88.1681 95.3 88.1664 95.3 88.1647 95.3C88.163 95.3 88.1613 95.3 88.1596 95.3C88.1579 95.3 88.1562 95.3 88.1545 95.3C88.1528 95.3 88.1511 95.3 88.1494 95.3C88.1477 95.3 88.146 95.3 88.1443 95.3C88.1426 95.3 88.1409 95.3 88.1392 95.3C88.1375 95.3 88.1357 95.3 88.134 95.3C88.1323 95.3 88.1306 95.3 88.1289 95.3C88.1272 95.3 88.1255 95.3 88.1238 95.3C88.1221 95.3 88.1204 95.3 88.1187 95.3C88.1169 95.3 88.1152 95.3 88.1135 95.3C88.1118 95.3 88.1101 95.3 88.1084 95.3C88.1067 95.3 88.1049 95.3 88.1032 95.3C88.1015 95.3 88.0998 95.3 88.0981 95.3C88.0964 95.3 88.0946 95.3 88.0929 95.3C88.0912 95.3 88.0895 95.3 88.0878 95.3C88.086 95.3 88.0843 95.3 88.0826 95.3C88.0809 95.3 88.0791 95.3 88.0774 95.3C88.0757 95.3 88.074 95.3 88.0722 95.3C88.0705 95.3 88.0688 95.3 88.0671 95.3C88.0653 95.3 88.0636 95.3 88.0619 95.3C88.0602 95.3 88.0584 95.3 88.0567 95.3C88.055 95.3 88.0532 95.3 88.0515 95.3C88.0498 95.3 88.048 95.3 88.0463 95.3C88.0446 95.3 88.0428 95.3 88.0411 95.3C88.0394 95.3 88.0376 95.3 88.0359 95.3C88.0341 95.3 88.0324 95.3 88.0307 95.3C88.0289 95.3 88.0272 95.3 88.0255 95.3C88.0237 95.3 88.022 95.3 88.0202 95.3C88.0185 95.3 88.0168 95.3 88.015 95.3C88.0133 95.3 88.0115 95.3 88.0098 95.3C88.008 95.3 88.0063 95.3 88.0045 95.3C88.0028 95.3 88.0011 95.3 87.9993 95.3C87.9976 95.3 87.9958 95.3 87.9941 95.3C87.9923 95.3 87.9906 95.3 87.9888 95.3C87.9871 95.3 87.9853 95.3 87.9836 95.3C87.9818 95.3 87.9801 95.3 87.9783 95.3C87.9766 95.3 87.9748 95.3 87.973 95.3C87.9713 95.3 87.9695 95.3 87.9678 95.3C87.966 95.3 87.9643 95.3 87.9625 95.3C87.9607 95.3 87.959 95.3 87.9572 95.3C87.9555 95.3 87.9537 95.3 87.952 95.3C87.9502 95.3 87.9484 95.3 87.9467 95.3C87.9449 95.3 87.9431 95.3 87.9414 95.3C87.9396 95.3 87.9379 95.3 87.9361 95.3C87.9343 95.3 87.9325 95.3 87.9308 95.3C87.929 95.3 87.9272 95.3 87.9255 95.3C87.9237 95.3 87.9219 95.3 87.9202 95.3C87.9184 95.3 87.9166 95.3 87.9149 95.3C87.9131 95.3 87.9113 95.3 87.9095 95.3C87.9078 95.3 87.906 95.3 87.9042 95.3C87.9025 95.3 87.9007 95.3 87.8989 95.3C87.8971 95.3 87.8953 95.3 87.8936 95.3C87.8918 95.3 87.89 95.3 87.8882 95.3C87.8865 95.3 87.8847 95.3 87.8829 95.3C87.8811 95.3 87.8793 95.3 87.8775 95.3C87.8758 95.3 87.874 95.3 87.8722 95.3C87.8704 95.3 87.8686 95.3 87.8668 95.3C87.8651 95.3 87.8633 95.3 87.8615 95.3C87.8597 95.3 87.8579 95.3 87.8561 95.3C87.8543 95.3 87.8525 95.3 87.8508 95.3C87.849 95.3 87.8472 95.3 87.8454 95.3C87.8436 95.3 87.8418 95.3 87.84 95.3C87.8382 95.3 87.8364 95.3 87.8346 95.3C87.8328 95.3 87.831 95.3 87.8292 95.3C87.8274 95.3 87.8256 95.3 87.8239 95.3C87.8221 95.3 87.8203 95.3 87.8185 95.3C87.8167 95.3 87.8149 95.3 87.8131 95.3C87.8113 95.3 87.8095 95.3 87.8077 95.3C87.8058 95.3 87.804 95.3 87.8022 95.3C87.8004 95.3 87.7986 95.3 87.7968 95.3C87.795 95.3 87.7932 95.3 87.7914 95.3C87.7896 95.3 87.7878 95.3 87.786 95.3C87.7842 95.3 87.7824 95.3 87.7806 95.3C87.7788 95.3 87.7769 95.3 87.7751 95.3C87.7733 95.3 87.7715 95.3 87.7697 95.3C87.7679 95.3 87.7661 95.3 87.7643 95.3C87.7624 95.3 87.7606 95.3 87.7588 95.3C87.757 95.3 87.7552 95.3 87.7534 95.3C87.7515 95.3 87.7497 95.3 87.7479 95.3C87.7461 95.3 87.7443 95.3 87.7424 95.3C87.7406 95.3 87.7388 95.3 87.737 95.3C87.7352 95.3 87.7333 95.3 87.7315 95.3C87.7297 95.3 87.7279 95.3 87.726 95.3C87.7242 95.3 87.7224 95.3 87.7206 95.3C87.7187 95.3 87.7169 95.3 87.7151 95.3C87.7133 95.3 87.7114 95.3 87.7096 95.3C87.7078 95.3 87.7059 95.3 87.7041 95.3C87.7023 95.3 87.7004 95.3 87.6986 95.3C87.6968 95.3 87.6949 95.3 87.6931 95.3C87.6913 95.3 87.6894 95.3 87.6876 95.3C87.6858 95.3 87.6839 95.3 87.6821 95.3C87.6803 95.3 87.6784 95.3 87.6766 95.3C87.6747 95.3 87.6729 95.3 87.6711 95.3C87.6692 95.3 87.6674 95.3 87.6655 95.3C87.6637 95.3 87.6619 95.3 87.66 95.3C87.6582 95.3 87.6563 95.3 87.6545 95.3C87.6526 95.3 87.6508 95.3 87.6489 95.3C87.6471 95.3 87.6453 95.3 87.6434 95.3C87.6416 95.3 87.6397 95.3 87.6379 95.3C87.636 95.3 87.6342 95.3 87.6323 95.3C87.6305 95.3 87.6286 95.3 87.6268 95.3C87.6249 95.3 87.623 95.3 87.6212 95.3C87.6193 95.3 87.6175 95.3 87.6156 95.3C87.6138 95.3 87.6119 95.3 87.6101 95.3C87.6082 95.3 87.6063 95.3 87.6045 95.3C87.6026 95.3 87.6008 95.3 87.5989 95.3C87.5971 95.3 87.5952 95.3 87.5933 95.3C87.5915 95.3 87.5896 95.3 87.5877 95.3C87.5859 95.3 87.584 95.3 87.5822 95.3C87.5803 95.3 87.5784 95.3 87.5766 95.3C87.5747 95.3 87.5728 95.3 87.571 95.3C87.5691 95.3 87.5672 95.3 87.5653 95.3C87.5635 95.3 87.5616 95.3 87.5597 95.3C87.5579 95.3 87.556 95.3 87.5541 95.3C87.5523 95.3 87.5504 95.3 87.5485 95.3C87.5466 95.3 87.5448 95.3 87.5429 95.3C87.541 95.3 87.5391 95.3 87.5373 95.3C87.5354 95.3 87.5335 95.3 87.5316 95.3C87.5297 95.3 87.5279 95.3 87.526 95.3C87.5241 95.3 87.5222 95.3 87.5203 95.3C87.5185 95.3 87.5166 95.3 87.5147 95.3C87.5128 95.3 87.5109 95.3 87.509 95.3C87.5072 95.3 87.5053 95.3 87.5034 95.3C87.5015 95.3 87.4996 95.3 87.4977 95.3C87.4958 95.3 87.4939 95.3 87.4921 95.3C87.4902 95.3 87.4883 95.3 87.4864 95.3C87.4845 95.3 87.4826 95.3 87.4807 95.3C87.4788 95.3 87.4769 95.3 87.475 95.3C87.4731 95.3 87.4713 95.3 87.4694 95.3C87.4675 95.3 87.4656 95.3 87.4637 95.3C87.4618 95.3 87.4599 95.3 87.458 95.3C87.4561 95.3 87.4542 95.3 87.4523 95.3C87.4504 95.3 87.4485 95.3 87.4466 95.3C87.4447 95.3 87.4428 95.3 87.4409 95.3C87.439 95.3 87.4371 95.3 87.4352 95.3C87.4333 95.3 87.4314 95.3 87.4294 95.3C87.4275 95.3 87.4256 95.3 87.4237 95.3C87.4218 95.3 87.4199 95.3 87.418 95.3C87.4161 95.3 87.4142 95.3 87.4123 95.3C87.4104 95.3 87.4085 95.3 87.4065 95.3C87.4046 95.3 87.4027 95.3 87.4008 95.3C87.3989 95.3 87.397 95.3 87.3951 95.3C87.3931 95.3 87.3912 95.3 87.3893 95.3C87.3874 95.3 87.3855 95.3 87.3836 95.3C87.3816 95.3 87.3797 95.3 87.3778 95.3C87.3759 95.3 87.374 95.3 87.372 95.3C87.3701 95.3 87.3682 95.3 87.3663 95.3C87.3644 95.3 87.3624 95.3 87.3605 95.3C87.3586 95.3 87.3567 95.3 87.3547 95.3C87.3528 95.3 87.3509 95.3 87.349 95.3C87.347 95.3 87.3451 95.3 87.3432 95.3C87.3412 95.3 87.3393 95.3 87.3374 95.3C87.3354 95.3 87.3335 95.3 87.3316 95.3C87.3297 95.3 87.3277 95.3 87.3258 95.3C87.3239 95.3 87.3219 95.3 87.32 95.3C87.3181 95.3 87.3161 95.3 87.3142 95.3C87.3122 95.3 87.3103 95.3 87.3084 95.3C87.3064 95.3 87.3045 95.3 87.3026 95.3C87.3006 95.3 87.2987 95.3 87.2967 95.3C87.2948 95.3 87.2929 95.3 87.2909 95.3C87.289 95.3 87.287 95.3 87.2851 95.3C87.2831 95.3 87.2812 95.3 87.2792 95.3C87.2773 95.3 87.2754 95.3 87.2734 95.3C87.2715 95.3 87.2695 95.3 87.2676 95.3C87.2656 95.3 87.2637 95.3 87.2617 95.3C87.2598 95.3 87.2578 95.3 87.2559 95.3C87.2539 95.3 87.252 95.3 87.25 95.3C87.2481 95.3 87.2461 95.3 87.2441 95.3C87.2422 95.3 87.2402 95.3 87.2383 95.3C87.2363 95.3 87.2344 95.3 87.2324 95.3C87.2304 95.3 87.2285 95.3 87.2265 95.3C87.2246 95.3 87.2226 95.3 87.2206 95.3C87.2187 95.3 87.2167 95.3 87.2148 95.3C87.2128 95.3 87.2108 95.3 87.2089 95.3C87.2069 95.3 87.2049 95.3 87.203 95.3C87.201 95.3 87.1991 95.3 87.1971 95.3C87.1951 95.3 87.1932 95.3 87.1912 95.3C87.1892 95.3 87.1872 95.3 87.1853 95.3C87.1833 95.3 87.1813 95.3 87.1794 95.3C87.1774 95.3 87.1754 95.3 87.1734 95.3C87.1715 95.3 87.1695 95.3 87.1675 95.3C87.1656 95.3 87.1636 95.3 87.1616 95.3C87.1596 95.3 87.1576 95.3 87.1557 95.3C87.1537 95.3 87.1517 95.3 87.1497 95.3C87.1478 95.3 87.1458 95.3 87.1438 95.3C87.1418 95.3 87.1398 95.3 87.1378 95.3C87.1359 95.3 87.1339 95.3 87.1319 95.3C87.1299 95.3 87.1279 95.3 87.1259 95.3C87.124 95.3 87.122 95.3 87.12 95.3C87.118 95.3 87.116 95.3 87.114 95.3C87.112 95.3 87.1101 95.3 87.1081 95.3C87.1061 95.3 87.1041 95.3 87.1021 95.3C87.1001 95.3 87.0981 95.3 87.0961 95.3C87.0941 95.3 87.0921 95.3 87.0901 95.3C87.0881 95.3 87.0861 95.3 87.0841 95.3C87.0822 95.3 87.0802 95.3 87.0782 95.3C87.0762 95.3 87.0742 95.3 87.0722 95.3C87.0702 95.3 87.0682 95.3 87.0662 95.3C87.0642 95.3 87.0622 95.3 87.0602 95.3C87.0582 95.3 87.0562 95.3 87.0542 95.3C87.0521 95.3 87.0501 95.3 87.0481 95.3C87.0461 95.3 87.0441 95.3 87.0421 95.3C87.0401 95.3 87.0381 95.3 87.0361 95.3C87.0341 95.3 87.0321 95.3 87.0301 95.3C87.0281 95.3 87.0261 95.3 87.024 95.3C87.022 95.3 87.02 95.3 87.018 95.3C87.016 95.3 87.014 95.3 87.012 95.3C87.01 95.3 87.0079 95.3 87.0059 95.3C87.0039 95.3 87.0019 95.3 86.9999 95.3C86.9979 95.3 86.9958 95.3 86.9938 95.3C86.9918 95.3 86.9898 95.3 86.9878 95.3C86.9857 95.3 86.9837 95.3 86.9817 95.3C86.9797 95.3 86.9777 95.3 86.9756 95.3C86.9736 95.3 86.9716 95.3 86.9696 95.3C86.9675 95.3 86.9655 95.3 86.9635 95.3C86.9615 95.3 86.9594 95.3 86.9574 95.3C86.9554 95.3 86.9533 95.3 86.9513 95.3C86.9493 95.3 86.9473 95.3 86.9452 95.3C86.9432 95.3 86.9412 95.3 86.9391 95.3C86.9371 95.3 86.9351 95.3 86.933 95.3C86.931 95.3 86.929 95.3 86.9269 95.3C86.9249 95.3 86.9229 95.3 86.9208 95.3C86.9188 95.3 86.9167 95.3 86.9147 95.3C86.9127 95.3 86.9106 95.3 86.9086 95.3C86.9065 95.3 86.9045 95.3 86.9025 95.3C86.9004 95.3 86.8984 95.3 86.8963 95.3C86.8943 95.3 86.8923 95.3 86.8902 95.3C86.8882 95.3 86.8861 95.3 86.8841 95.3C86.882 95.3 86.88 95.3 86.8779 95.3C86.8759 95.3 86.8738 95.3 86.8718 95.3C86.8697 95.3 86.8677 95.3 86.8656 95.3C86.8636 95.3 86.8615 95.3 86.8595 95.3C86.8574 95.3 86.8554 95.3 86.8533 95.3C86.8513 95.3 86.8492 95.3 86.8472 95.3C86.8451 95.3 86.843 95.3 86.841 95.3C86.8389 95.3 86.8369 95.3 86.8348 95.3C86.8327 95.3 86.8307 95.3 86.8286 95.3C86.8266 95.3 86.8245 95.3 86.8224 95.3C86.8204 95.3 86.8183 95.3 86.8163 95.3C86.8142 95.3 86.8121 95.3 86.8101 95.3C86.808 95.3 86.8059 95.3 86.8039 95.3C86.8018 95.3 86.7997 95.3 86.7977 95.3C86.7956 95.3 86.7935 95.3 86.7915 95.3C86.7894 95.3 86.7873 95.3 86.7853 95.3C86.7832 95.3 86.7811 95.3 86.779 95.3C86.777 95.3 86.7749 95.3 86.7728 95.3C86.7708 95.3 86.7687 95.3 86.7666 95.3C86.7645 95.3 86.7625 95.3 86.7604 95.3C86.7583 95.3 86.7562 95.3 86.7541 95.3C86.7521 95.3 86.75 95.3 86.7479 95.3C86.7458 95.3 86.7438 95.3 86.7417 95.3C86.7396 95.3 86.7375 95.3 86.7354 95.3C86.7333 95.3 86.7313 95.3 86.7292 95.3C86.7271 95.3 86.725 95.3 86.7229 95.3C86.7208 95.3 86.7187 95.3 86.7167 95.3C86.7146 95.3 86.7125 95.3 86.7104 95.3C86.7083 95.3 86.7062 95.3 86.7041 95.3C86.702 95.3 86.6999 95.3 86.6978 95.3C86.6958 95.3 86.6937 95.3 86.6916 95.3C86.6895 95.3 86.6874 95.3 86.6853 95.3C86.6832 95.3 86.6811 95.3 86.679 95.3C86.6769 95.3 86.6748 95.3 86.6727 95.3C86.6706 95.3 86.6685 95.3 86.6664 95.3C86.6643 95.3 86.6622 95.3 86.6601 95.3C86.658 95.3 86.6559 95.3 86.6538 95.3C86.6517 95.3 86.6496 95.3 86.6475 95.3C86.6454 95.3 86.6433 95.3 86.6412 95.3C86.6391 95.3 86.637 95.3 86.6349 95.3C86.6328 95.3 86.6306 95.3 86.6285 95.3C86.6264 95.3 86.6243 95.3 86.6222 95.3C86.6201 95.3 86.618 95.3 86.6159 95.3C86.6138 95.3 86.6116 95.3 86.6095 95.3C86.6074 95.3 86.6053 95.3 86.6032 95.3C86.6011 95.3 86.599 95.3 86.5968 95.3C86.5947 95.3 86.5926 95.3 86.5905 95.3C86.5884 95.3 86.5863 95.3 86.5841 95.3C86.582 95.3 86.5799 95.3 86.5778 95.3C86.5757 95.3 86.5735 95.3 86.5714 95.3C86.5693 95.3 86.5672 95.3 86.565 95.3C86.5629 95.3 86.5608 95.3 86.5587 95.3C86.5565 95.3 86.5544 95.3 86.5523 95.3C86.5502 95.3 86.548 95.3 86.5459 95.3C86.5438 95.3 86.5416 95.3 86.5395 95.3C86.5374 95.3 86.5353 95.3 86.5331 95.3C86.531 95.3 86.5289 95.3 86.5267 95.3C86.5246 95.3 86.5225 95.3 86.5203 95.3C86.5182 95.3 86.5161 95.3 86.5139 95.3C86.5118 95.3 86.5096 95.3 86.5075 95.3C86.5054 95.3 86.5032 95.3 86.5011 95.3C86.499 95.3 86.4968 95.3 86.4947 95.3C86.4925 95.3 86.4904 95.3 86.4883 95.3C86.4861 95.3 86.484 95.3 86.4818 95.3C86.4797 95.3 86.4775 95.3 86.4754 95.3C86.4732 95.3 86.4711 95.3 86.4689 95.3C86.4668 95.3 86.4647 95.3 86.4625 95.3C86.4604 95.3 86.4582 95.3 86.4561 95.3C86.4539 95.3 86.4518 95.3 86.4496 95.3C86.4474 95.3 86.4453 95.3 86.4431 95.3C86.441 95.3 86.4388 95.3 86.4367 95.3C86.4345 95.3 86.4324 95.3 86.4302 95.3C86.4281 95.3 86.4259 95.3 86.4238 95.3C86.4216 95.3 86.4194 95.3 86.4173 95.3C86.4151 95.3 86.413 95.3 86.4108 95.3C86.4086 95.3 86.4065 95.3 86.4043 95.3C86.4021 95.3 86.4 95.3 86.3978 95.3C86.3957 95.3 86.3935 95.3 86.3913 95.3C86.3892 95.3 86.387 95.3 86.3848 95.3C86.3827 95.3 86.3805 95.3 86.3783 95.3C86.3762 95.3 86.374 95.3 86.3718 95.3C86.3697 95.3 86.3675 95.3 86.3653 95.3C86.3631 95.3 86.361 95.3 86.3588 95.3C86.3566 95.3 86.3544 95.3 86.3523 95.3C86.3501 95.3 86.3479 95.3 86.3457 95.3C86.3436 95.3 86.3414 95.3 86.3392 95.3C86.337 95.3 86.3349 95.3 86.3327 95.3C86.3305 95.3 86.3283 95.3 86.3261 95.3C86.324 95.3 86.3218 95.3 86.3196 95.3C86.3174 95.3 86.3152 95.3 86.313 95.3C86.3109 95.3 86.3087 95.3 86.3065 95.3C86.3043 95.3 86.3021 95.3 86.2999 95.3C86.2978 95.3 86.2956 95.3 86.2934 95.3C86.2912 95.3 86.289 95.3 86.2868 95.3C86.2846 95.3 86.2824 95.3 86.2802 95.3C86.278 95.3 86.2759 95.3 86.2737 95.3C86.2715 95.3 86.2693 95.3 86.2671 95.3C86.2649 95.3 86.2627 95.3 86.2605 95.3C86.2583 95.3 86.2561 95.3 86.2539 95.3C86.2517 95.3 86.2495 95.3 86.2473 95.3C86.2451 95.3 86.2429 95.3 86.2407 95.3C86.2385 95.3 86.2363 95.3 86.2341 95.3C86.2319 95.3 86.2297 95.3 86.2275 95.3C86.2253 95.3 86.2231 95.3 86.2209 95.3C86.2187 95.3 86.2165 95.3 86.2143 95.3C86.2121 95.3 86.2099 95.3 86.2077 95.3C86.2054 95.3 86.2032 95.3 86.201 95.3C86.1988 95.3 86.1966 95.3 86.1944 95.3C86.1922 95.3 86.19 95.3 86.1878 95.3C86.1855 95.3 86.1833 95.3 86.1811 95.3C86.1789 95.3 86.1767 95.3 86.1745 95.3C86.1723 95.3 86.17 95.3 86.1678 95.3C86.1656 95.3 86.1634 95.3 86.1612 95.3C86.159 95.3 86.1567 95.3 86.1545 95.3C86.1523 95.3 86.1501 95.3 86.1479 95.3C86.1456 95.3 86.1434 95.3 86.1412 95.3C86.139 95.3 86.1367 95.3 86.1345 95.3C86.1323 95.3 86.1301 95.3 86.1278 95.3C86.1256 95.3 86.1234 95.3 86.1212 95.3C86.1189 95.3 86.1167 95.3 86.1145 95.3C86.1122 95.3 86.11 95.3 86.1078 95.3C86.1056 95.3 86.1033 95.3 86.1011 95.3C86.0989 95.3 86.0966 95.3 86.0944 95.3C86.0922 95.3 86.0899 95.3 86.0877 95.3C86.0854 95.3 86.0832 95.3 86.081 95.3C86.0787 95.3 86.0765 95.3 86.0743 95.3C86.072 95.3 86.0698 95.3 86.0675 95.3C86.0653 95.3 86.0631 95.3 86.0608 95.3C86.0586 95.3 86.0563 95.3 86.0541 95.3C86.0518 95.3 86.0496 95.3 86.0474 95.3C86.0451 95.3 86.0429 95.3 86.0406 95.3C86.0384 95.3 86.0361 95.3 86.0339 95.3C86.0316 95.3 86.0294 95.3 86.0271 95.3C86.0249 95.3 86.0226 95.3 86.0204 95.3C86.0181 95.3 86.0159 95.3 86.0136 95.3C86.0114 95.3 86.0091 95.3 86.0069 95.3C86.0046 95.3 86.0024 95.3 86.0001 95.3C85.9979 95.3 85.9956 95.3 85.9933 95.3C85.9911 95.3 85.9888 95.3 85.9866 95.3C85.9843 95.3 85.9821 95.3 85.9798 95.3C85.9775 95.3 85.9753 95.3 85.973 95.3C85.9708 95.3 85.9685 95.3 85.9662 95.3C85.964 95.3 85.9617 95.3 85.9594 95.3C85.9572 95.3 85.9549 95.3 85.9526 95.3C85.9504 95.3 85.9481 95.3 85.9458 95.3C85.9436 95.3 85.9413 95.3 85.939 95.3C85.9368 95.3 85.9345 95.3 85.9322 95.3C85.93 95.3 85.9277 95.3 85.9254 95.3C85.9231 95.3 85.9209 95.3 85.9186 95.3C85.9163 95.3 85.914 95.3 85.9118 95.3C85.9095 95.3 85.9072 95.3 85.9049 95.3C85.9027 95.3 85.9004 95.3 85.8981 95.3C85.8958 95.3 85.8936 95.3 85.8913 95.3C85.889 95.3 85.8867 95.3 85.8844 95.3C85.8822 95.3 85.8799 95.3 85.8776 95.3C85.8753 95.3 85.873 95.3 85.8707 95.3C85.8685 95.3 85.8662 95.3 85.8639 95.3C85.8616 95.3 85.8593 95.3 85.857 95.3C85.8547 95.3 85.8524 95.3 85.8502 95.3C85.8479 95.3 85.8456 95.3 85.8433 95.3C85.841 95.3 85.8387 95.3 85.8364 95.3C85.8341 95.3 85.8318 95.3 85.8295 95.3C85.8272 95.3 85.825 95.3 85.8227 95.3C85.8204 95.3 85.8181 95.3 85.8158 95.3C85.8135 95.3 85.8112 95.3 85.8089 95.3C85.8066 95.3 85.8043 95.3 85.802 95.3C85.7997 95.3 85.7974 95.3 85.7951 95.3C85.7928 95.3 85.7905 95.3 85.7882 95.3C85.7859 95.3 85.7836 95.3 85.7813 95.3C85.779 95.3 85.7767 95.3 85.7744 95.3C85.772 95.3 85.7697 95.3 85.7674 95.3C85.7651 95.3 85.7628 95.3 85.7605 95.3C85.7582 95.3 85.7559 95.3 85.7536 95.3C85.7513 95.3 85.749 95.3 85.7467 95.3C85.7443 95.3 85.742 95.3 85.7397 95.3C85.7374 95.3 85.7351 95.3 85.7328 95.3C85.7305 95.3 85.7281 95.3 85.7258 95.3C85.7235 95.3 85.7212 95.3 85.7189 95.3C85.7166 95.3 85.7142 95.3 85.7119 95.3C85.7096 95.3 85.7073 95.3 85.705 95.3C85.7026 95.3 85.7003 95.3 85.698 95.3C85.6957 95.3 85.6933 95.3 85.691 95.3C85.6887 95.3 85.6864 95.3 85.684 95.3C85.6817 95.3 85.6794 95.3 85.6771 95.3C85.6747 95.3 85.6724 95.3 85.6701 95.3C85.6678 95.3 85.6654 95.3 85.6631 95.3C85.6608 95.3 85.6584 95.3 85.6561 95.3C85.6538 95.3 85.6514 95.3 85.6491 95.3C85.6468 95.3 85.6444 95.3 85.6421 95.3C85.6398 95.3 85.6374 95.3 85.6351 95.3C85.6328 95.3 85.6304 95.3 85.6281 95.3C85.6258 95.3 85.6234 95.3 85.6211 95.3C85.6187 95.3 85.6164 95.3 85.6141 95.3C85.6117 95.3 85.6094 95.3 85.607 95.3C85.6047 95.3 85.6023 95.3 85.6 95.3V97.3ZM88.6 97.3C96.2126 97.3 102.475 95.0294 107.291 90.4226L105.909 88.9773C101.525 93.1705 95.7874 95.3 88.6 95.3V97.3ZM107.291 90.4226C112.109 85.8141 114.5 79.8428 114.5 72.6H112.5C112.5 79.3572 110.291 84.7858 105.909 88.9773L107.291 90.4226ZM114.5 72.6C114.5 65.5622 112.212 59.7885 107.59 55.3766L106.21 56.8233C110.388 60.8115 112.5 66.0378 112.5 72.6H114.5ZM107.607 55.3929C103.192 50.9778 97.4235 48.8 90.4 48.8V50.8C96.9765 50.8 102.208 52.8222 106.193 56.8071L107.607 55.3929ZM90.4 48.8C82.9527 48.8 76.8735 51.2945 72.2628 56.3243L73.7372 57.6757C77.9266 53.1055 83.4473 50.8 90.4 50.8V48.8ZM72.2628 56.3243C67.6659 61.3391 65.4 67.7944 65.4 75.6H67.4C67.4 68.2056 69.5341 62.2609 73.7372 57.6757L72.2628 56.3243ZM66.4 74.6H12.1V76.6H66.4V74.6ZM13.093 75.7178C14.4822 64.009 17.3565 53.6178 21.7021 44.5314L19.8979 43.6685C15.4435 52.9822 12.5178 63.591 11.107 75.4822L13.093 75.7178ZM21.6944 44.5472C26.243 35.4501 31.9679 27.8557 38.863 21.7486L37.537 20.2514C30.4321 26.5443 24.557 34.3499 19.9056 43.6528L21.6944 44.5472ZM38.8748 21.738C45.7682 15.4355 53.8466 10.7043 63.1223 7.54665L62.4777 5.65334C52.9534 8.89568 44.6318 13.7645 37.5252 20.262L38.8748 21.738ZM63.1401 7.54037C72.4169 4.18494 82.6999 2.49999 94 2.49999V0.499992C82.5001 0.499992 71.9831 2.21504 62.4599 5.65962L63.1401 7.54037ZM94 2.49999C105.105 2.49999 115.089 4.0864 123.965 7.2422L124.635 5.35777C115.511 2.11357 105.295 0.499992 94 0.499992V2.49999ZM123.99 7.25071C133.072 10.2123 140.745 14.5464 147.029 20.241L148.372 18.759C141.855 12.8536 133.928 8.38766 124.61 5.34925L123.99 7.25071ZM147.053 20.2625C153.529 25.7571 158.435 32.5258 161.776 40.583L163.624 39.817C160.165 31.4742 155.071 24.4429 148.347 18.7375L147.053 20.2625ZM161.788 40.6104C165.322 48.4645 167.1 57.3217 167.1 67.2H169.1C169.1 57.0783 167.278 47.9355 163.612 39.7896L161.788 40.6104ZM167.1 67.2C167.1 77.8757 165.024 86.5834 160.943 93.3855L162.658 94.4145C166.976 87.2166 169.1 78.1243 169.1 67.2H167.1ZM160.938 93.393C157.027 100.042 151.342 105.836 143.85 110.765L144.95 112.435C152.658 107.364 158.573 101.358 162.662 94.407L160.938 93.393ZM144.104 112.555C155.503 116.093 164.31 122.463 170.573 131.663L172.227 130.537C165.69 120.937 156.497 114.307 144.696 110.645L144.104 112.555ZM170.587 131.683C177.043 140.681 180.3 151.866 180.3 165.3H182.3C182.3 151.534 178.957 139.919 172.213 130.517L170.587 131.683ZM180.3 165.3C180.3 176.366 178.127 186.416 173.798 195.469L175.602 196.331C180.073 186.984 182.3 176.634 182.3 165.3H180.3ZM173.798 195.469C169.462 204.535 163.353 212.32 155.464 218.829L156.736 220.371C164.847 213.68 171.138 205.665 175.602 196.331L173.798 195.469ZM155.454 218.837C147.765 225.343 138.482 230.384 127.589 233.95L128.211 235.85C139.318 232.216 148.835 227.057 156.746 220.363L155.454 218.837ZM127.584 233.951C116.899 237.513 105.108 239.3 92.2 239.3V241.3C105.292 241.3 117.301 239.487 128.216 235.849L127.584 233.951ZM92.2 239.3C74.9334 239.3 59.3854 235.927 45.5369 229.201L44.6631 231C58.8146 237.873 74.6667 241.3 92.2 241.3V239.3ZM45.5369 229.201C31.7359 222.497 20.6796 211.848 12.3697 197.206L10.6303 198.194C19.1204 213.152 30.4641 224.103 44.6631 231L45.5369 229.201ZM12.3666 197.201C8.61222 190.68 6.05392 184.178 4.67823 177.693L2.72177 178.108C4.14608 184.822 6.78778 191.52 10.6334 198.199L12.3666 197.201ZM4.68387 177.721C3.49475 171.181 2.9 164.541 2.9 157.8H0.9C0.9 164.659 1.50525 171.419 2.71613 178.079L4.68387 177.721ZM1.9 158.8H60.1V156.8H1.9V158.8ZM59.1007 157.838C59.5073 168.612 62.6669 176.989 68.7054 182.819L70.0946 181.381C64.5332 176.011 61.4927 168.188 61.0993 157.762L59.1007 157.838ZM68.7186 182.832C74.745 188.443 82.8099 191.2 92.8 191.2V189.2C83.1901 189.2 75.655 186.557 70.0814 181.368L68.7186 182.832ZM92.8 191.2C103.368 191.2 111.301 188.352 116.359 182.451L114.841 181.149C110.299 186.448 103.032 189.2 92.8 189.2V191.2ZM116.359 182.451C121.332 176.649 123.8 169.51 123.8 161.1H121.8C121.8 169.09 119.468 175.751 114.841 181.149L116.359 182.451ZM123.8 161.1C123.8 151.096 120.832 143.383 114.753 138.143L113.447 139.657C118.968 144.417 121.8 151.504 121.8 161.1H123.8ZM114.753 138.143C108.763 132.979 101.628 130.4 93.4 130.4V132.4C101.172 132.4 107.837 134.821 113.447 139.657L114.753 138.143ZM93.4 130.4C91.3331 130.4 89.36 130.607 87.4831 131.024L87.9169 132.976C89.64 132.593 91.4669 132.4 93.4 132.4V130.4ZM87.5896 131.006C85.7621 131.209 83.7388 131.513 81.5211 131.916L81.8789 133.884C84.0612 133.487 86.0379 133.191 87.8104 132.994L87.5896 131.006ZM82.7 132.9V96H80.7V132.9H82.7Z" fill="white" fill-opacity="0.4"/>
</svg>
